<svg xmlns="http://www.w3.org/2000/svg" xmlns:xlink="http://www.w3.org/1999/xlink" xmlns:inkscape="http://www.inkscape.org/namespaces/inkscape" version="1.1" width="256.974" height="187.282" viewBox="0 0 256.974 187.282">
<defs>
<clipPath id="clip_0">
<path transform="matrix(1,0,0,-1,59.926,87.671)" d="M29.764 0C29.764 16.43842 16.43842 29.764 0 29.764-16.43842 29.764-29.764 16.43842-29.764 0-29.764-16.43842-16.43842-29.764 0-29.764 16.43842-29.764 29.764-16.43842 29.764 0ZM0 0"/>
</clipPath>
<g id="pattern_tile_1">
<path transform="matrix(1,0,0,-1,0,187.282)" stroke-width=".3985" stroke-linecap="butt" stroke-miterlimit="10" stroke-linejoin="miter" fill="none" stroke="#000000" d="M0 0 3.08846 3.08846"/>
</g>
<pattern id="pattern_1" patternUnits="userSpaceOnUse" patternContentUnits="userSpaceOnUse" x="0" y="0" width="2.98883" height="2.98883">
<clipPath id="clip_2">
<path d="M -.99628 -.99628 L 3.9851 -.99628 L 3.9851 3.9851 L -.99628 3.9851 Z"/>
</clipPath>
<g clip-path="url(#clip_2)">
<g transform="matrix(1,0,0,-1,-0,187.282)">
<use x="0" y="0" xlink:href="#pattern_tile_1"/>
<use x="0" y="-2.98883" xlink:href="#pattern_tile_1"/>
<use x="-2.98883" y="0" xlink:href="#pattern_tile_1"/>
<use x="-2.98883" y="-2.98883" xlink:href="#pattern_tile_1"/>
</g>
</g>
</pattern>
<clipPath id="clip_3">
<path transform="matrix(1,0,0,-1,59.926,87.671)" d="M128.97739-39.68535C128.97739-28.72641 106.76807-19.84268 79.37071-19.84268 51.97336-19.84268 29.76402-28.72641 29.76402-39.68535 29.76402-50.64429 51.97336-59.52802 79.37071-59.52802 106.76807-59.52802 128.97739-50.64429 128.97739-39.68535ZM79.37071-39.68535"/>
</clipPath>
<g id="pattern_tile_4">
<path transform="matrix(1,0,0,-1,0,187.282)" stroke-width=".3985" stroke-linecap="butt" stroke-miterlimit="10" stroke-linejoin="miter" fill="none" stroke="#000000" d="M0 0 3.08846 3.08846"/>
</g>
<pattern id="pattern_4" patternUnits="userSpaceOnUse" patternContentUnits="userSpaceOnUse" x="0" y="0" width="2.98883" height="2.98883">
<clipPath id="clip_5">
<path d="M -.99628 -.99628 L 3.9851 -.99628 L 3.9851 3.9851 L -.99628 3.9851 Z"/>
</clipPath>
<g clip-path="url(#clip_5)">
<g transform="matrix(1,0,0,-1,-0,187.282)">
<use x="0" y="0" xlink:href="#pattern_tile_4"/>
<use x="0" y="-2.98883" xlink:href="#pattern_tile_4"/>
<use x="-2.98883" y="0" xlink:href="#pattern_tile_4"/>
<use x="-2.98883" y="-2.98883" xlink:href="#pattern_tile_4"/>
</g>
</g>
</pattern>
</defs>
<path transform="matrix(1,0,0,-1,59.926,87.671)" stroke-width=".79701" stroke-linecap="butt" stroke-miterlimit="10" stroke-linejoin="miter" fill="none" stroke="#000000" d="M-59.52802 59.52802V-99.2134H138.89876V59.52802ZM138.89876-99.2134"/>
<g clip-path="url(#clip_0)">
<rect transform="matrix(1,0,0,-1,0,187.282)" fill="url(#pattern_1)" x="22.191899" y="61.8769" width="75.4682" height="75.46819"/>
</g>
<path transform="matrix(1,0,0,-1,59.926,87.671)" stroke-width=".79701" stroke-linecap="butt" stroke-miterlimit="10" stroke-linejoin="miter" fill="none" stroke="#000000" d="M29.764 0C29.764 16.43842 16.43842 29.764 0 29.764-16.43842 29.764-29.764 16.43842-29.764 0-29.764-16.43842-16.43842-29.764 0-29.764 16.43842-29.764 29.764-16.43842 29.764 0ZM0 0"/>
<g clip-path="url(#clip_3)">
<rect transform="matrix(1,0,0,-1,0,187.282)" fill="url(#pattern_4)" x="81.71992" y="32.112886" width="115.15356" height="55.625535"/>
</g>
<path transform="matrix(1,0,0,-1,59.926,87.671)" stroke-width=".79701" stroke-linecap="butt" stroke-miterlimit="10" stroke-linejoin="miter" fill="none" stroke="#000000" d="M128.97739-39.68535C128.97739-28.72641 106.76807-19.84268 79.37071-19.84268 51.97336-19.84268 29.76402-28.72641 29.76402-39.68535 29.76402-50.64429 51.97336-59.52802 79.37071-59.52802 106.76807-59.52802 128.97739-50.64429 128.97739-39.68535ZM79.37071-39.68535"/>
<text xml:space="preserve" transform="matrix(1 0 -0 1 -.000002861023 187.282)" font-size="14.3462" font-family="CMR12"><tspan y="-138.362" x="11.2">&#x2126;</tspan></text>
<text xml:space="preserve" transform="matrix(1 0 -0 1 0 187.28202)" font-size="9.9626" font-family="CMMI10" font-style="italic"><tspan y="-176.49" x="142.829">&#x03c3;</tspan></text>
<text xml:space="preserve" transform="matrix(1 0 -0 1 0 187.28202)" font-size="9.9626" font-family="CMR10"><tspan y="-176.49" x="148.8763 152.75176 161.0506 166.03189 171.57109">(man)</tspan></text>
<path transform="matrix(1,0,0,-1,59.926,87.671)" stroke-width=".79701" stroke-linecap="butt" stroke-miterlimit="10" stroke-linejoin="miter" fill="none" stroke="#000000" d="M79.38615 80.56126C44.13347 79.62085 19.13492 64.28433 2.66011 33.90619"/>
<path transform="matrix(-.47672,.879,.879,.47672,62.58611,53.764799)" stroke-width=".6376" stroke-linecap="round" stroke-linejoin="round" fill="none" stroke="#000000" d="M-1.55415 2.0722C-1.42464 1.29512 0 .1295 .38852 0 0-.1295-1.42464-1.29512-1.55415-2.0722"/>
<text xml:space="preserve" transform="matrix(1 0 -0 1 -.000015258789 187.282)" font-size="9.9626" font-family="CMMI10" font-style="italic"><tspan y="-37.593" x="207.283">&#x03c3;</tspan></text>
<text xml:space="preserve" transform="matrix(1 0 -0 1 -.000015258789 187.282)" font-size="9.9626" font-family="CMR10"><tspan y="-37.593" x="213.3303 217.20577 225.50461 230.4859 234.39124 238.2667 243.24799 246.0176">(mortal)</tspan></text>
<path transform="matrix(1,0,0,-1,59.926,87.671)" stroke-width=".79701" stroke-linecap="butt" stroke-miterlimit="10" stroke-linejoin="miter" fill="none" stroke="#000000" d="M163.05469-51.02774C154.97525-41.15279 145.09136-37.41544 133.19773-39.36076"/>
<path transform="matrix(-.98685,.16139,.16139,.98685,193.12374,127.031749)" stroke-width=".6376" stroke-linecap="round" stroke-linejoin="round" fill="none" stroke="#000000" d="M-1.55415 2.0722C-1.42464 1.29512 0 .1295 .38852 0 0-.1295-1.42464-1.29512-1.55415-2.0722"/>
<text xml:space="preserve" transform="matrix(1 0 -0 1 0 187.282)" font-size="9.9626" font-family="CMMI10" font-style="italic"><tspan y="-146.726" x="203.519">&#x03c3;</tspan></text>
<text xml:space="preserve" transform="matrix(1 0 -0 1 0 187.282)" font-size="9.9626" font-family="CMR10"><tspan y="-146.726" x="209.5663 213.44176 218.98096 224.2412 228.6646 232.56993 237.55123 241.42668 245.85009 249.77535">(Socrates)</tspan></text>
<path transform="matrix(1,0,0,-1,59.926,87.671)" stroke-width=".79701" stroke-linecap="butt" stroke-miterlimit="10" stroke-linejoin="miter" fill="none" stroke="#000000" d="M166.0943 41.10622C151.55457-3.35661 122.71489-29.22478 77.63124-38.71881"/>
<path transform="matrix(-.97852,.20605,.20605,.97852,137.55727,126.3898)" stroke-width=".6376" stroke-linecap="round" stroke-linejoin="round" fill="none" stroke="#000000" d="M-1.55415 2.0722C-1.42464 1.29512 0 .1295 .38852 0 0-.1295-1.42464-1.29512-1.55415-2.0722"/>
<path transform="matrix(1,0,0,-1,59.926,87.671)" d="M2.09216-9.92133C2.09216-8.76584 1.15549-7.82915 0-7.82915-1.15549-7.82915-2.09216-8.76584-2.09216-9.92133-2.09216-11.07681-1.15549-12.01349 0-12.01349 1.15549-12.01349 2.09216-11.07681 2.09216-9.92133ZM0-9.92133"/>
<path transform="matrix(1,0,0,-1,59.926,87.671)" stroke-width=".3985" stroke-linecap="butt" stroke-miterlimit="10" stroke-linejoin="miter" fill="none" stroke="#000000" d="M2.09216-9.92133C2.09216-8.76584 1.15549-7.82915 0-7.82915-1.15549-7.82915-2.09216-8.76584-2.09216-9.92133-2.09216-11.07681-1.15549-12.01349 0-12.01349 1.15549-12.01349 2.09216-11.07681 2.09216-9.92133ZM0-9.92133"/>
<path transform="matrix(1,0,0,-1,59.926,87.671)" d="M21.93483 31.74838C21.93483 32.90387 20.99815 33.84056 19.84267 33.84056 18.68718 33.84056 17.75049 32.90387 17.75049 31.74838 17.75049 30.5929 18.68718 29.6562 19.84267 29.6562 20.99815 29.6562 21.93483 30.5929 21.93483 31.74838ZM19.84267 31.74838"/>
<path transform="matrix(1,0,0,-1,59.926,87.671)" stroke-width=".3985" stroke-linecap="butt" stroke-miterlimit="10" stroke-linejoin="miter" fill="none" stroke="#000000" d="M21.93483 31.74838C21.93483 32.90387 20.99815 33.84056 19.84267 33.84056 18.68718 33.84056 17.75049 32.90387 17.75049 31.74838 17.75049 30.5929 18.68718 29.6562 19.84267 29.6562 20.99815 29.6562 21.93483 30.5929 21.93483 31.74838ZM19.84267 31.74838"/>
<path transform="matrix(1,0,0,-1,59.926,87.671)" d="M-7.82915 11.90572C-7.82915 13.0612-8.76584 13.99788-9.92133 13.99788-11.07681 13.99788-12.01349 13.0612-12.01349 11.90572-12.01349 10.75023-11.07681 9.81354-9.92133 9.81354-8.76584 9.81354-7.82915 10.75023-7.82915 11.90572ZM-9.92133 11.90572"/>
<path transform="matrix(1,0,0,-1,59.926,87.671)" stroke-width=".3985" stroke-linecap="butt" stroke-miterlimit="10" stroke-linejoin="miter" fill="none" stroke="#000000" d="M-7.82915 11.90572C-7.82915 13.0612-8.76584 13.99788-9.92133 13.99788-11.07681 13.99788-12.01349 13.0612-12.01349 11.90572-12.01349 10.75023-11.07681 9.81354-9.92133 9.81354-8.76584 9.81354-7.82915 10.75023-7.82915 11.90572ZM-9.92133 11.90572"/>
<path transform="matrix(1,0,0,-1,59.926,87.671)" d="M49.71446-33.73247C49.71446-32.57698 48.77777-31.64029 47.62228-31.64029 46.4668-31.64029 45.53012-32.57698 45.53012-33.73247 45.53012-34.88795 46.4668-35.82465 47.62228-35.82465 48.77777-35.82465 49.71446-34.88795 49.71446-33.73247ZM47.62228-33.73247"/>
<path transform="matrix(1,0,0,-1,59.926,87.671)" stroke-width=".3985" stroke-linecap="butt" stroke-miterlimit="10" stroke-linejoin="miter" fill="none" stroke="#000000" d="M49.71446-33.73247C49.71446-32.57698 48.77777-31.64029 47.62228-31.64029 46.4668-31.64029 45.53012-32.57698 45.53012-33.73247 45.53012-34.88795 46.4668-35.82465 47.62228-35.82465 48.77777-35.82465 49.71446-34.88795 49.71446-33.73247ZM47.62228-33.73247"/>
<path transform="matrix(1,0,0,-1,59.926,87.671)" d="M75.51001-39.68535C75.51001-38.52986 74.57333-37.59317 73.41785-37.59317 72.26236-37.59317 71.32567-38.52986 71.32567-39.68535 71.32567-40.84084 72.26236-41.77753 73.41785-41.77753 74.57333-41.77753 75.51001-40.84084 75.51001-39.68535ZM73.41785-39.68535"/>
<path transform="matrix(1,0,0,-1,59.926,87.671)" stroke-width=".3985" stroke-linecap="butt" stroke-miterlimit="10" stroke-linejoin="miter" fill="none" stroke="#000000" d="M75.51001-39.68535C75.51001-38.52986 74.57333-37.59317 73.41785-37.59317 72.26236-37.59317 71.32567-38.52986 71.32567-39.68535 71.32567-40.84084 72.26236-41.77753 73.41785-41.77753 74.57333-41.77753 75.51001-40.84084 75.51001-39.68535ZM73.41785-39.68535"/>
<path transform="matrix(1,0,0,-1,59.926,87.671)" d="M81.46288-11.90572C81.46288-10.75023 80.5262-9.81354 79.37071-9.81354 78.21523-9.81354 77.27853-10.75023 77.27853-11.90572 77.27853-13.0612 78.21523-13.99788 79.37071-13.99788 80.5262-13.99788 81.46288-13.0612 81.46288-11.90572ZM79.37071-11.90572"/>
<path transform="matrix(1,0,0,-1,59.926,87.671)" stroke-width=".3985" stroke-linecap="butt" stroke-miterlimit="10" stroke-linejoin="miter" fill="none" stroke="#000000" d="M81.46288-11.90572C81.46288-10.75023 80.5262-9.81354 79.37071-9.81354 78.21523-9.81354 77.27853-10.75023 77.27853-11.90572 77.27853-13.0612 78.21523-13.99788 79.37071-13.99788 80.5262-13.99788 81.46288-13.0612 81.46288-11.90572ZM79.37071-11.90572"/>
<path transform="matrix(1,0,0,-1,59.926,87.671)" d="M-27.67183-39.68535C-27.67183-38.52986-28.60852-37.59317-29.764-37.59317-30.9195-37.59317-31.85619-38.52986-31.85619-39.68535-31.85619-40.84084-30.9195-41.77753-29.764-41.77753-28.60852-41.77753-27.67183-40.84084-27.67183-39.68535ZM-29.764-39.68535"/>
<path transform="matrix(1,0,0,-1,59.926,87.671)" stroke-width=".3985" stroke-linecap="butt" stroke-miterlimit="10" stroke-linejoin="miter" fill="none" stroke="#000000" d="M-27.67183-39.68535C-27.67183-38.52986-28.60852-37.59317-29.764-37.59317-30.9195-37.59317-31.85619-38.52986-31.85619-39.68535-31.85619-40.84084-30.9195-41.77753-29.764-41.77753-28.60852-41.77753-27.67183-40.84084-27.67183-39.68535ZM-29.764-39.68535"/>
<path transform="matrix(1,0,0,-1,59.926,87.671)" d="M2.09216-59.52802C2.09216-58.37253 1.15549-57.43585 0-57.43585-1.15549-57.43585-2.09216-58.37253-2.09216-59.52802-2.09216-60.6835-1.15549-61.6202 0-61.6202 1.15549-61.6202 2.09216-60.6835 2.09216-59.52802ZM0-59.52802"/>
<path transform="matrix(1,0,0,-1,59.926,87.671)" stroke-width=".3985" stroke-linecap="butt" stroke-miterlimit="10" stroke-linejoin="miter" fill="none" stroke="#000000" d="M2.09216-59.52802C2.09216-58.37253 1.15549-57.43585 0-57.43585-1.15549-57.43585-2.09216-58.37253-2.09216-59.52802-2.09216-60.6835-1.15549-61.6202 0-61.6202 1.15549-61.6202 2.09216-60.6835 2.09216-59.52802ZM0-59.52802"/>
<path transform="matrix(1,0,0,-1,59.926,87.671)" d="M21.93483 5.95285C21.93483 7.10834 20.99815 8.04501 19.84267 8.04501 18.68718 8.04501 17.75049 7.10834 17.75049 5.95285 17.75049 4.79736 18.68718 3.86067 19.84267 3.86067 20.99815 3.86067 21.93483 4.79736 21.93483 5.95285ZM19.84267 5.95285"/>
<path transform="matrix(1,0,0,-1,59.926,87.671)" stroke-width=".3985" stroke-linecap="butt" stroke-miterlimit="10" stroke-linejoin="miter" fill="none" stroke="#000000" d="M21.93483 5.95285C21.93483 7.10834 20.99815 8.04501 19.84267 8.04501 18.68718 8.04501 17.75049 7.10834 17.75049 5.95285 17.75049 4.79736 18.68718 3.86067 19.84267 3.86067 20.99815 3.86067 21.93483 4.79736 21.93483 5.95285ZM19.84267 5.95285"/>
<path transform="matrix(1,0,0,-1,59.926,87.671)" d="M51.69885 1.98438C51.69885 3.13986 50.76216 4.07654 49.60667 4.07654 48.45119 4.07654 47.51451 3.13986 47.51451 1.98438 47.51451 .82887 48.45119-.10779 49.60667-.10779 50.76216-.10779 51.69885 .82887 51.69885 1.98438ZM49.60667 1.98438"/>
<path transform="matrix(1,0,0,-1,59.926,87.671)" stroke-width=".3985" stroke-linecap="butt" stroke-miterlimit="10" stroke-linejoin="miter" fill="none" stroke="#000000" d="M51.69885 1.98438C51.69885 3.13986 50.76216 4.07654 49.60667 4.07654 48.45119 4.07654 47.51451 3.13986 47.51451 1.98438 47.51451 .82887 48.45119-.10779 49.60667-.10779 50.76216-.10779 51.69885 .82887 51.69885 1.98438ZM49.60667 1.98438"/>
<path transform="matrix(1,0,0,-1,59.926,87.671)" d="M101.30557-39.68535C101.30557-38.52986 100.36888-37.59317 99.2134-37.59317 98.0579-37.59317 97.12122-38.52986 97.12122-39.68535 97.12122-40.84084 98.0579-41.77753 99.2134-41.77753 100.36888-41.77753 101.30557-40.84084 101.30557-39.68535ZM99.2134-39.68535"/>
<path transform="matrix(1,0,0,-1,59.926,87.671)" stroke-width=".3985" stroke-linecap="butt" stroke-miterlimit="10" stroke-linejoin="miter" fill="none" stroke="#000000" d="M101.30557-39.68535C101.30557-38.52986 100.36888-37.59317 99.2134-37.59317 98.0579-37.59317 97.12122-38.52986 97.12122-39.68535 97.12122-40.84084 98.0579-41.77753 99.2134-41.77753 100.36888-41.77753 101.30557-40.84084 101.30557-39.68535ZM99.2134-39.68535"/>
<path transform="matrix(1,0,0,-1,59.926,87.671)" d="M93.36859 39.68535C93.36859 40.84084 92.43192 41.77753 91.27643 41.77753 90.12094 41.77753 89.18425 40.84084 89.18425 39.68535 89.18425 38.52986 90.12094 37.59317 91.27643 37.59317 92.43192 37.59317 93.36859 38.52986 93.36859 39.68535ZM91.27643 39.68535"/>
<path transform="matrix(1,0,0,-1,59.926,87.671)" stroke-width=".3985" stroke-linecap="butt" stroke-miterlimit="10" stroke-linejoin="miter" fill="none" stroke="#000000" d="M93.36859 39.68535C93.36859 40.84084 92.43192 41.77753 91.27643 41.77753 90.12094 41.77753 89.18425 40.84084 89.18425 39.68535 89.18425 38.52986 90.12094 37.59317 91.27643 37.59317 92.43192 37.59317 93.36859 38.52986 93.36859 39.68535ZM91.27643 39.68535"/>
<path transform="matrix(1,0,0,-1,59.926,87.671)" d="M-37.59317 23.81114C-37.59317 24.96663-38.52986 25.9033-39.68535 25.9033-40.84084 25.9033-41.77753 24.96663-41.77753 23.81114-41.77753 22.65565-40.84084 21.71896-39.68535 21.71896-38.52986 21.71896-37.59317 22.65565-37.59317 23.81114ZM-39.68535 23.81114"/>
<path transform="matrix(1,0,0,-1,59.926,87.671)" stroke-width=".3985" stroke-linecap="butt" stroke-miterlimit="10" stroke-linejoin="miter" fill="none" stroke="#000000" d="M-37.59317 23.81114C-37.59317 24.96663-38.52986 25.9033-39.68535 25.9033-40.84084 25.9033-41.77753 24.96663-41.77753 23.81114-41.77753 22.65565-40.84084 21.71896-39.68535 21.71896-38.52986 21.71896-37.59317 22.65565-37.59317 23.81114ZM-39.68535 23.81114"/>
<path transform="matrix(1,0,0,-1,59.926,87.671)" d="M101.30557 13.8898C101.30557 15.04529 100.36888 15.98196 99.2134 15.98196 98.0579 15.98196 97.12122 15.04529 97.12122 13.8898 97.12122 12.73431 98.0579 11.79762 99.2134 11.79762 100.36888 11.79762 101.30557 12.73431 101.30557 13.8898ZM99.2134 13.8898"/>
<path transform="matrix(1,0,0,-1,59.926,87.671)" stroke-width=".3985" stroke-linecap="butt" stroke-miterlimit="10" stroke-linejoin="miter" fill="none" stroke="#000000" d="M101.30557 13.8898C101.30557 15.04529 100.36888 15.98196 99.2134 15.98196 98.0579 15.98196 97.12122 15.04529 97.12122 13.8898 97.12122 12.73431 98.0579 11.79762 99.2134 11.79762 100.36888 11.79762 101.30557 12.73431 101.30557 13.8898ZM99.2134 13.8898"/>
<path transform="matrix(1,0,0,-1,59.926,87.671)" d="M93.36859-79.37071C93.36859-78.21523 92.43192-77.27853 91.27643-77.27853 90.12094-77.27853 89.18425-78.21523 89.18425-79.37071 89.18425-80.5262 90.12094-81.46288 91.27643-81.46288 92.43192-81.46288 93.36859-80.5262 93.36859-79.37071ZM91.27643-79.37071"/>
<path transform="matrix(1,0,0,-1,59.926,87.671)" stroke-width=".3985" stroke-linecap="butt" stroke-miterlimit="10" stroke-linejoin="miter" fill="none" stroke="#000000" d="M93.36859-79.37071C93.36859-78.21523 92.43192-77.27853 91.27643-77.27853 90.12094-77.27853 89.18425-78.21523 89.18425-79.37071 89.18425-80.5262 90.12094-81.46288 91.27643-81.46288 92.43192-81.46288 93.36859-80.5262 93.36859-79.37071ZM91.27643-79.37071"/>
<path transform="matrix(1,0,0,-1,59.926,87.671)" d="M61.6202-71.43376C61.6202-70.27827 60.6835-69.34158 59.52802-69.34158 58.37253-69.34158 57.43585-70.27827 57.43585-71.43376 57.43585-72.58925 58.37253-73.52592 59.52802-73.52592 60.6835-73.52592 61.6202-72.58925 61.6202-71.43376ZM59.52802-71.43376"/>
<path transform="matrix(1,0,0,-1,59.926,87.671)" stroke-width=".3985" stroke-linecap="butt" stroke-miterlimit="10" stroke-linejoin="miter" fill="none" stroke="#000000" d="M61.6202-71.43376C61.6202-70.27827 60.6835-69.34158 59.52802-69.34158 58.37253-69.34158 57.43585-70.27827 57.43585-71.43376 57.43585-72.58925 58.37253-73.52592 59.52802-73.52592 60.6835-73.52592 61.6202-72.58925 61.6202-71.43376ZM59.52802-71.43376"/>
<path transform="matrix(1,0,0,-1,59.926,87.671)" d="M31.85619-79.37071C31.85619-78.21523 30.9195-77.27853 29.764-77.27853 28.60852-77.27853 27.67183-78.21523 27.67183-79.37071 27.67183-80.5262 28.60852-81.46288 29.764-81.46288 30.9195-81.46288 31.85619-80.5262 31.85619-79.37071ZM29.764-79.37071"/>
<path transform="matrix(1,0,0,-1,59.926,87.671)" stroke-width=".3985" stroke-linecap="butt" stroke-miterlimit="10" stroke-linejoin="miter" fill="none" stroke="#000000" d="M31.85619-79.37071C31.85619-78.21523 30.9195-77.27853 29.764-77.27853 28.60852-77.27853 27.67183-78.21523 27.67183-79.37071 27.67183-80.5262 28.60852-81.46288 29.764-81.46288 30.9195-81.46288 31.85619-80.5262 31.85619-79.37071ZM29.764-79.37071"/>
<path transform="matrix(1,0,0,-1,59.926,87.671)" d="M12.01349-43.65382C12.01349-42.49834 11.07681-41.56166 9.92133-41.56166 8.76584-41.56166 7.82915-42.49834 7.82915-43.65382 7.82915-44.80931 8.76584-45.746 9.92133-45.746 11.07681-45.746 12.01349-44.80931 12.01349-43.65382ZM9.92133-43.65382"/>
<path transform="matrix(1,0,0,-1,59.926,87.671)" stroke-width=".3985" stroke-linecap="butt" stroke-miterlimit="10" stroke-linejoin="miter" fill="none" stroke="#000000" d="M12.01349-43.65382C12.01349-42.49834 11.07681-41.56166 9.92133-41.56166 8.76584-41.56166 7.82915-42.49834 7.82915-43.65382 7.82915-44.80931 8.76584-45.746 9.92133-45.746 11.07681-45.746 12.01349-44.80931 12.01349-43.65382ZM9.92133-43.65382"/>
</svg>
