<svg xmlns="http://www.w3.org/2000/svg" xmlns:xlink="http://www.w3.org/1999/xlink" version="1.1" width="335.1361pt" height="278.95558pt" viewBox="0 0 335.1361 278.95558">
<defs>
<path id="font_1_1" d="M.30299378 .3157959H.47299195C.61499026 .3157959 .7539978 .41973878 .7539978 .53167727 .7539978 .6086273 .6879883 .6826172 .5569916 .6826172H.23298645C.21398926 .6826172 .20298767 .6826172 .20298767 .66360476 .20298767 .6516113 .21199036 .6516113 .23199463 .6516113 .24499512 .6516113 .2630005 .65060427 .2749939 .6496124 .29100038 .6476135 .29699708 .64460757 .29699708 .6336212 .29699708 .6296234 .29599 .62661746 .29299928 .614624L.15899658 .07795715C.14898682 .038986207 .14698792 .0309906 .067993167 .0309906 .050994874 .0309906 .039993287 .0309906 .039993287 .011993408 .039993287 0 .051986696 0 .054992677 0 .08299255 0 .1539917 .0029907227 .18199158 .0029907227 .20298767 .0029907227 .22499085 .0019989014 .24598694 .0019989014 .2679901 .0019989014 .2899933 0 .31098939 0 .31799317 0 .33099366 0 .33099366 .019989014 .33099366 .0309906 .32199098 .0309906 .30299378 .0309906 .2659912 .0309906 .23799134 .0309906 .23799134 .048980714 .23799134 .054977418 .23999024 .05996704 .24099732 .065963748L.30299378 .3157959M.375 .6136322C.38398744 .64860537 .38598634 .6516113 .42900086 .6516113H.5249939C.60798647 .6516113 .6609955 .62461856 .6609955 .55566409 .6609955 .5166931 .6409912 .43074037 .60198977 .39476014 .5519867 .34977723 .49198915 .34179688 .44799806 .34179688H.30699159L.375 .6136322Z"/>
<path id="font_2_1" d="M.35598756 .5771179C.34799195 .5941162 .34199525 .598114 .33299256 .598114 .31999208 .598114 .31698609 .5911102 .31098939 .5771179L.06199646 .017547608C.055999757 .0045318605 .054992677 .002532959 .054992677-.0024719239 .054992677-.013473511 .06399536-.022460938 .07499695-.022460938 .08198547-.022460938 .08999634-.020462037 .09799194-.0014648438L.33299256 .529068 .56799319-.0014648438C.57699587-.022460938 .58699038-.022460938 .59098818-.022460938 .60198977-.022460938 .61099246-.013473511 .61099246-.0024719239 .61099246-.00047302247 .61099246 .0015411377 .6049957 .013549805L.35598756 .5771179Z"/>
<path id="font_1_2" d="M.43798829 .0055236818C.59298709 .0644989 .73999026 .24256897 .73999026 .43579103 .73999026 .5969696 .6339874 .7050781 .4850006 .7050781 .2689972 .7050781 .04899597 .47784425 .04899597 .24456787 .04899597 .07847595 .16099549-.022460938 .30499269-.022460938 .32998658-.022460938 .3639984-.018463135 .40299989-.007461548 .39898683-.06939697 .39898683-.071380618 .39898683-.084365848 .39898683-.11634827 .39898683-.19433594 .48199464-.19433594 .6009979-.19433594 .6489868-.011474609 .6489868-.00047302247 .6489868 .0065307619 .6419983 .009521484 .6380005 .009521484 .6299896 .009521484 .6279907 .0045318605 .6259918-.0014648438 .60198977-.072387699 .5439911-.097335819 .5089874-.097335819 .46299745-.097335819 .44799806-.070388797 .43798829 .0055236818M.24899292 .013519287C.17098999 .044509889 .13699341 .12245178 .13699341 .21252442 .13699341 .2816162 .16299439 .4237671 .23899842 .5319061 .31199647 .63401797 .4059906 .68006899 .47898866 .68006899 .57899478 .68006899 .6519928 .6019745 .6519928 .4678192 .6519928 .3677063 .6009979 .13345337 .43299867 .039505006 .42799378 .07447815 .41799928 .14746094 .34498597 .14746094 .2919922 .14746094 .24299622 .097473148 .24299622 .04550171 .24299622 .025512696 .24899292 .014526367 .24899292 .013519287M.31098939 .002532959C.29699708 .002532959 .2649994 .002532959 .2649994 .04550171 .2649994 .08547974 .30299378 .12545777 .34498597 .12545777 .3869934 .12545777 .4059906 .10147095 .4059906 .040512086 .4059906 .025512696 .40499879 .024520874 .394989 .020523072 .36898805 .009521484 .33898927 .002532959 .31098939 .002532959Z"/>
<path id="font_2_2" d="M.60398867 .55810549C.6100006 .57110598 .61099246 .5731201 .61099246 .578125 .61099246 .5891113 .60198977 .598114 .59098818 .598114 .58099368 .598114 .57499697 .5911102 .56799319 .57611086L.33299256 .046585084 .09799194 .5771179C.08999634 .5961151 .08198547 .598114 .07499695 .598114 .06399536 .598114 .054992677 .5891113 .054992677 .578125 .054992677 .57611086 .054992677 .57411196 .06098938 .5621033L.30999757-.0014648438C.31799317-.018463135 .32398988-.022460938 .33299256-.022460938 .34599305-.022460938 .34899903-.015472412 .35499574-.0014648438L.60398867 .55810549Z"/>
<path id="font_1_3" d="M.375 .6136017C.3809967 .63760378 .38398744 .6476135 .40299989 .65060427 .4119873 .6516113 .44400025 .6516113 .46398927 .6516113 .5349884 .6516113 .6459961 .6516113 .6459961 .5525818 .6459961 .51856997 .6299896 .44955445 .59098818 .41055299 .5649872 .38453675 .5119934 .35253907 .42199708 .35253907H.30999757L.375 .6136017M.5189972 .33953858C.6199951 .3615265 .7389984 .43154908 .7389984 .5325775 .7389984 .61860659 .6489868 .6826172 .5179901 .6826172H.23298645C.21299744 .6826172 .20399475 .6826172 .20399475 .6626129 .20399475 .6516113 .21299744 .6516113 .23199463 .6516113 .23399353 .6516113 .25299073 .6516113 .269989 .6496124 .28799439 .6476135 .29699708 .64660647 .29699708 .63360598 .29699708 .62960818 .29599 .6266022 .29299928 .6145935L.15899658 .07752991C.14898682 .038528444 .14698792 .030532837 .067993167 .030532837 .049987794 .030532837 .040985109 .030532837 .040985109 .010528564 .040985109-.00047302247 .052993776-.00047302247 .054992677-.00047302247 .08299255-.00047302247 .15299988 .002532959 .18099976 .002532959 .20899964 .002532959 .27999879-.00047302247 .30799867-.00047302247 .31599427-.00047302247 .32798768-.00047302247 .32798768 .01953125 .32798768 .030532837 .31900025 .030532837 .2999878 .030532837 .2630005 .030532837 .23498535 .030532837 .23498535 .048538209 .23498535 .054534913 .23699951 .059524537 .23799134 .0655365L.3039856 .3305359H.4229889C.5139923 .3305359 .5319977 .27453614 .5319977 .23953247 .5319977 .22453308 .5239868 .19352722 .5179901 .17053223 .5109863 .14253235 .5019989 .105529788 .5019989 .08552551 .5019989-.022460938 .621994-.022460938 .6349945-.022460938 .7200012-.022460938 .7549896 .07853699 .7549896 .0925293 .7549896 .104537967 .74398806 .104537967 .7429962 .104537967 .73399356 .104537967 .7319946 .09753418 .7299957 .090530399 .7049866 .016525269 .6619873-.00047302247 .6389923-.00047302247 .60598757-.00047302247 .598999 .021530152 .598999 .060531618 .598999 .091537479 .6049957 .14253235 .60899356 .17453003 .61099246 .1885376 .61299136 .20753479 .61299136 .2215271 .61299136 .2985382 .54599 .3295288 .5189972 .33953858Z"/>
</defs>
<use data-text="P" xlink:href="#font_1_1" transform="matrix(27.673888,0,0,-27.673888,134.08609,28.133332)"/>
<use data-text="&#x2227;" xlink:href="#font_2_1" transform="matrix(27.673888,0,0,-27.673888,161.843,28.133332)"/>
<use data-text="Q" xlink:href="#font_1_2" transform="matrix(27.673888,0,0,-27.673888,186.44512,28.133332)"/>
<use data-text="&#x2228;" xlink:href="#font_2_2" transform="matrix(27.673888,0,0,-27.673888,214.47876,28.133332)"/>
<use data-text="R" xlink:href="#font_1_3" transform="matrix(27.673888,0,0,-27.673888,239.10852,28.133332)"/>
<use data-text="P" xlink:href="#font_1_1" transform="matrix(27.673888,0,0,-27.673888,41.963888,146.24169)"/>
<use data-text="&#x2227;" xlink:href="#font_2_1" transform="matrix(27.673888,0,0,-27.673888,69.720798,146.24169)"/>
<use data-text="Q" xlink:href="#font_1_2" transform="matrix(27.673888,0,0,-27.673888,94.32288,146.24169)"/>
<path transform="matrix(2.7777777,0,0,-2.7777777,197.19165,21.366669)" stroke-width=".3985" stroke-linecap="butt" stroke-miterlimit="10" stroke-linejoin="miter" fill="none" stroke="#000000" d="M-7.89006-7.89153-34.63158-34.6287"/>
<use data-text="P" xlink:href="#font_1_1" transform="matrix(27.673888,0,0,-27.673888,9.22222,267.04447)"/>
<path transform="matrix(2.7777777,0,0,-2.7777777,197.19165,21.366669)" stroke-width=".3985" stroke-linecap="butt" stroke-miterlimit="10" stroke-linejoin="miter" fill="none" stroke="#000000" d="M-46.46571-50.41174-60.32008-78.11751"/>
<use data-text="Q" xlink:href="#font_1_2" transform="matrix(27.673888,0,0,-27.673888,127.19722,264.35276)"/>
<path transform="matrix(2.7777777,0,0,-2.7777777,197.19165,21.366669)" stroke-width=".3985" stroke-linecap="butt" stroke-miterlimit="10" stroke-linejoin="miter" fill="none" stroke="#000000" d="M-38.57516-50.41174-25.20438-77.14891"/>
<use data-text="R" xlink:href="#font_1_3" transform="matrix(27.673888,0,0,-27.673888,304.68888,148.93332)"/>
<path transform="matrix(2.7777777,0,0,-2.7777777,197.19165,21.366669)" stroke-width=".3985" stroke-linecap="butt" stroke-miterlimit="10" stroke-linejoin="miter" fill="none" stroke="#000000" d="M7.89128-7.89153 35.59985-35.59727"/>
</svg>
