<svg xmlns="http://www.w3.org/2000/svg" xmlns:xlink="http://www.w3.org/1999/xlink" version="1.1" width="709.76669pt" height="473.5472pt" viewBox="0 0 709.76669 473.5472">
<defs>
<path id="font_1_1" d="M.69499209 .16300965H.6669922C.6609955 .13600159 .6539917 .104003909 .6489868 .08999634 .6429901 .07398987 .6399994 .06599426 .58200076 .06599426H.5019989C.5149994 .115997318 .5369873 .15400696 .58399966 .2230072 .6359863 .2980194 .6839905 .36802674 .6839905 .45404054 .6839905 .5920563 .54599 .7050781 .37098695 .7050781 .19198609 .7050781 .056991579 .5900574 .056991579 .45404054 .056991579 .3670349 .10699463 .29501344 .15499878 .2250061 .20698548 .14900208 .22698975 .11299133 .23899842 .06599426H.15899658C.100997928 .06599426 .09799194 .07398987 .09298706 .08699036 .08699036 .101989749 .07899475 .13700867 .07398987 .16300965H.04598999L.07998657 0H.24398804C.2659912 0 .2709961 0 .2709961 .020996094 .2709961 .09199524 .23899842 .17500305 .20899964 .25102235 .18299866 .31802369 .15899658 .38502503 .15899658 .45503236 .15899658 .60705569 .2689972 .68006899 .36999513 .68006899 .47599793 .68006899 .58200076 .60305789 .58200076 .45503236 .58200076 .38102723 .5549927 .31202699 .5309906 .25102235 .5019989 .17401123 .46998597 .09199524 .46998597 .020996094 .46998597 0 .47499085 0 .49699403 0H.6609955L.69499209 .16300965Z"/>
<path id="font_2_1" d="M.5319977 .36865235C.54499819 .36865235 .58200076 .36865235 .58200076 .4046631 .58200076 .43066407 .55999758 .43066407 .54100039 .43066407H.30599977C.15499878 .43066407 .038986207 .27381898 .038986207 .1490326 .038986207 .048187257 .10998535-.0107421879 .19499207-.0107421879 .31698609-.0107421879 .45199586 .11009216 .45199586 .26184083 .45199586 .32473756 .4249878 .36366273 .42199708 .36865235H.5319977M.19599915 .014251709C.15899658 .014251709 .10499573 .035217287 .10499573 .12207031 .10499573 .19094849 .14399719 .36865235 .2889862 .36865235 .33799745 .36865235 .38398744 .34669496 .38398744 .2728119 .38398744 .24786377 .37199403 .15701294 .32598878 .09312439 .29299928 .046203615 .24198914 .014251709 .19599915 .014251709Z"/>
<path id="font_1_2" d="M.34098817-.23803711C.34098817-.23303223 .33799745-.23002625 .33198548-.22303772 .20298767-.105026248 .1639862 .07498169 .1639862 .24996948 .1639862 .40498353 .19400025 .59298709 .33499146 .72698977 .33898927 .73098757 .34098817 .73399356 .34098817 .7389984 .34098817 .74598696 .33599855 .75 .32899476 .75 .31698609 .75 .22698975 .6779785 .17298889 .568985 .125 .47297669 .100997928 .36997987 .100997928 .25097657 .100997928 .17897034 .10998535 .064971927 .16499329-.053024293 .22399903-.17602539 .31698609-.24902344 .32899476-.24902344 .33599855-.24902344 .34098817-.24502564 .34098817-.23803711Z"/>
<path id="font_2_2" d="M.18199158 .116867069C.1329956 .036987306 .08898926 .033981325 .04899597 .0309906 .041992189 .02999878 .036987306 .021987915 .036987306 .0129852299 .036987306 .0069885256 .040985109 0 .050994874 0 .069992069 0 .116989139 .0029907227 .13598633 .0029907227 .1579895 .0029907227 .21199036 0 .23399353 0 .23999024 0 .25299073 0 .25299073 .017990113 .25299073 .02999878 .24099732 .0309906 .23799134 .0309906 .22898865 .03199768 .19099427 .033981325 .19099427 .063949588 .19099427 .077926639 .20199585 .09689331 .20498657 .101882938L.28399659 .23068238H.54499819C.5479889 .2077179 .5509949 .17378235 .55400088 .14881897 .55799868 .10987854 .56399539 .06593323 .56399539 .062942508 .56399539 .047973634 .5499878 .0309906 .49198915 .0309906 .48199464 .0309906 .46899415 .0309906 .46899415 .0129852299 .46899415 .0019989014 .47698976 0 .48399354 0 .5029907 0 .5269928 .0019989014 .5469971 .0019989014 .5669861 .0019989014 .59098818 .0029907227 .6069946 .0029907227 .6399994 .0029907227 .6419983 .0029907227 .66600039 .0019989014 .6819916 .0009918213 .7049866 0 .72099307 0 .72698977 0 .73999026 0 .73999026 .017990113 .73999026 .0309906 .72898867 .0309906 .71699526 .0309906 .6569977 .0309906 .6559906 .037979127 .6529999 .06694031L.58299258 .68881228C.58099368 .7108154 .5799866 .7158203 .5629883 .7158203 .548996 .7158203 .54299929 .7088165 .5349884 .69581606L.18199158 .116867069M.30299378 .26168824 .5049896 .5917816 .5419922 .26168824H.30299378Z"/>
<path id="font_1_3" d="M.2979889 .25097657C.2979889 .3329773 .28599549 .4429779 .23399353 .5539856 .1749878 .6769867 .08198547 .75 .069992069 .75 .05999756 .75 .057998659 .74198916 .057998659 .7389984 .057998659 .73399356 .05999756 .73098757 .066986087 .72398379 .125 .6719818 .23498535 .5359802 .23498535 .25097657 .23498535 .10797119 .20899964-.091033939 .06399536-.22602844 .06199646-.22903443 .057998659-.23303223 .057998659-.23803711 .057998659-.24102783 .05999756-.24902344 .069992069-.24902344 .08198547-.24902344 .17199707-.17703247 .22599793-.06802368 .27398683 .02796936 .2979889 .13098145 .2979889 .25097657Z"/>
<path id="font_2_4" d="M.7739868 .67807009C.7769928 .6900635 .7769928 .69207766 .7769928 .69407656 .7769928 .69506838 .776001 .7050781 .7649994 .7050781 .7589874 .7050781 .7559967 .70207217 .7489929 .69407656L.6879883 .6270294C.6839905 .62202456 .6799927 .61802676 .67900088 .61802676 .6779938 .61802676 .6769867 .61901858 .67099 .62602236 .6559906 .64604189 .61099246 .7050781 .5069885 .7050781 .27799989 .7050781 .050994874 .48291017 .050994874 .25473023 .050994874 .09159851 .16999817-.022460938 .33099366-.022460938 .43499757-.022460938 .5169983 .031555177 .55599978 .0665741 .6469879 .14764405 .6639862 .23571778 .6639862 .23971558 .6639862 .24372864 .6619873 .25073243 .6499939 .25073243 .6389923 .25073243 .6369934 .24472046 .6359863 .24072266 .58699038 .079589847 .44400025 .008529663 .34399415 .008529663 .24699402 .008529663 .14399719 .06758118 .14399719 .21870423 .14399719 .2637329 .15899658 .42185975 .2599945 .54496768 .31999208 .61701968 .41799928 .67407229 .5139923 .67407229 .625 .67407229 .6839905 .5890045 .6839905 .47891236 .6839905 .44488526 .68099978 .43788148 .68099978 .4298706 .68099978 .41886903 .69299319 .41886903 .69599917 .41886903 .70899966 .41886903 .70899966 .42086793 .71398928 .43988038L.7739868 .67807009Z"/>
<path id="font_2_3" d="M.16299439 .07595825C.1539917 .039993287 .1519928 .0309906 .07699585 .0309906 .057998659 .0309906 .04699707 .0309906 .04699707 .0129852299 .04699707 0 .056991579 0 .07499695 0H.43899537C.6009979 0 .7200012 .11793518 .7200012 .21485901 .7200012 .28581239 .6609955 .34576417 .56199648 .35676576 .6759949 .37875367 .772995 .4547119 .772995 .54367068 .772995 .6216278 .70098879 .6826172 .58200076 .6826172H.23999024C.22200012 .6826172 .20999146 .6826172 .20999146 .6646118 .20999146 .6516113 .21899414 .6516113 .23999024 .6516113 .24398804 .6516113 .2619934 .6516113 .27799989 .6496124 .29499818 .6476135 .3019867 .6456146 .3019867 .63461306 .3019867 .6296234 .30099488 .6256256 .2979889 .614624L.16299439 .07595825M.31900025 .36776734 .37998963 .6126251C.3889923 .64860537 .3909912 .6516113 .43299867 .6516113H.56799319C.6719971 .6516113 .68099978 .5726471 .68099978 .54766848 .68099978 .45870973 .58799746 .36776734 .47499085 .36776734H.31900025M.2709961 .0309906C.25698854 .0309906 .25498963 .0309906 .25099183 .03199768 .24099732 .032989503 .23799134 .033996583 .23799134 .040985109 .23799134 .04397583 .23799134 .04597473 .24299622 .063964847L.31199647 .34277345H.5C.56199648 .34277345 .625 .31578065 .625 .22485352 .625 .12593079 .5339966 .0309906 .4139862 .0309906H.2709961Z"/>
<path id="font_2_5" d="M.38198854 .3803711C.36299134 .41638185 .33198548 .4423828 .2869873 .4423828 .17098999 .4423828 .041992189 .30433656 .041992189 .1512909 .041992189 .041259767 .11199951-.0107421879 .1789856-.0107421879 .24398804-.0107421879 .29699708 .043258668 .31298829 .06227112 .32398988 .007247925 .37399293-.0107421879 .4059906-.0107421879 .43499757-.0107421879 .45999146 .002243042 .48199464 .044265748 .5 .07727051 .5139923 .13928223 .5139923 .14329529 .5139923 .14828491 .5109863 .1552887 .5009918 .1552887 .4889984 .1552887 .48799134 .15029907 .48399354 .13128662 .46199037 .044265748 .43998719 .014251709 .40899659 .014251709 .38398744 .014251709 .37799073 .038253786 .37799073 .060272218 .37799073 .07926941 .3829956 .09927368 .3919983 .1342926L.4169922 .23731995C.42399598 .2623291 .44198609 .33735658 .44599916 .35235597 .44999696 .36636354 .45599366 .3903656 .45599366 .39337159 .45599366 .40937806 .44299317 .42237855 .4249878 .42237855 .4119873 .42237855 .3869934 .41438294 .38198854 .3803711M.31698609 .122283939C.31199647 .103271488 .31199647 .10227966 .29599 .08326721 .2599945 .040252687 .21899414 .014251709 .18199158 .014251709 .1329956 .014251709 .115997318 .06526184 .115997318 .10827637 .115997318 .15730286 .14498902 .27233888 .16899109 .32034303 .20098877 .3803711 .24699402 .41737367 .2869873 .41737367 .35398866 .41737367 .36898805 .33735658 .36898805 .33035279 .36898805 .3253479 .36698915 .3193512 .3659973 .31533814L.31698609 .122283939Z"/>
<path id="font_2_6" d="M.23899842 .6603241C.24299622 .67433169 .24299622 .67633059 .24299622 .68032839 .24299622 .68933108 .23699951 .69433596 .22799683 .69433596 .21398926 .69433596 .12599182 .6863251 .10598755 .6843262 .09599304 .68333438 .084991458 .6823273 .084991458 .665329 .084991458 .6523285 .09599304 .6523285 .11199951 .6523285 .15899658 .6523285 .15899658 .6453247 .15899658 .6363373 .15899658 .6303406 .15899658 .6283264 .1519928 .6013336L.09899902 .3903656C.084991458 .3343506 .07199097 .28334046 .06098938 .23631287 .053985597 .21131897 .04699707 .18130493 .04699707 .14929199 .04699707 .06326294 .09498596-.0107421879 .18099976-.0107421879 .2979889-.0107421879 .42599488 .13027954 .42599488 .28033448 .42599488 .38237 .36299134 .4423828 .28799439 .4423828 .23699951 .4423828 .19299317 .40737916 .16999817 .38536073L.23899842 .6603241M.1559906 .32835389C.18399048 .36836244 .23498535 .41737367 .28599549 .41737367 .33299256 .41737367 .35198976 .37036134 .35198976 .323349 .35198976 .27833558 .32398988 .15429688 .29299928 .10127258 .2559967 .037261964 .21199036 .014251709 .18099976 .014251709 .1309967 .014251709 .11099243 .06427002 .11099243 .11528015 .11099243 .15029907 .117996219 .17730713 .14099121 .2683258L.1559906 .32835389Z"/>
<path id="font_2_7" d="M.4019928 .38200379C.3639984 .38101197 .34399415 .352005 .34399415 .3270111 .34399415 .29800416 .36999513 .29101563 .38198854 .29101563 .4019928 .29101563 .43798829 .30801393 .43798829 .355011 .43798829 .40827943 .3849945 .4423828 .31599427 .4423828 .17999268 .4423828 .042999269 .30400086 .042999269 .16012573 .042999269 .06021118 .10998535-.0107421879 .21099854-.0107421879 .36099244-.0107421879 .44499208 .093185428 .44499208 .106170658 .44499208 .11216736 .43798829 .120162967 .43099977 .120162967 .42599488 .120162967 .4249878 .119155887 .41600038 .108169559 .35598756 .034225465 .2649994 .014251709 .21299744 .014251709 .15699768 .014251709 .11999512 .051223756 .11999512 .12315369 .11999512 .16612244 .13899231 .2650299 .1789856 .32901 .20199585 .3650055 .2539978 .41737367 .31698609 .41737367 .33599855 .41737367 .37799073 .41333009 .4019928 .38200379Z"/>
</defs>
<path transform="matrix(2.7777777,0,0,-2.7777777,236.775,236.77223)" stroke-width=".3985" stroke-linecap="butt" stroke-miterlimit="10" stroke-linejoin="miter" fill="none" stroke="#000000" d="M-85.04042-85.04042V85.04042H170.08086V-85.04042ZM170.08086 85.04042"/>
<use data-text="&#x2126;" xlink:href="#font_1_1" transform="matrix(24.906666,0,0,-24.906666,35.280546,50.97223)"/>
<path transform="matrix(2.7777777,0,0,-2.7777777,236.775,236.77223)" stroke-width=".79701" stroke-linecap="butt" stroke-miterlimit="10" stroke-linejoin="miter" fill="none" stroke="#000000" d="M45.35506 0C45.35506 25.04922 25.04922 45.35506 0 45.35506-25.04922 45.35506-45.35506 25.04922-45.35506 0-45.35506-25.04922-25.04922-45.35506 0-45.35506 25.04922-45.35506 45.35506-25.04922 45.35506 0ZM0 0"/>
<path transform="matrix(2.7777777,0,0,-2.7777777,236.775,236.77223)" stroke-width=".79701" stroke-linecap="butt" stroke-miterlimit="10" stroke-linejoin="miter" fill="none" stroke="#000000" d="M110.55237-14.17339C110.55237-.08336 99.13045 11.33855 85.04042 11.33855 70.9504 11.33855 59.52847-.08336 59.52847-14.17339 59.52847-28.26341 70.9504-39.68533 85.04042-39.68533 99.13045-39.68533 110.55237-28.26341 110.55237-14.17339ZM85.04042-14.17339"/>
<path transform="matrix(2.7777777,0,0,-2.7777777,236.775,236.77223)" stroke-width=".79701" stroke-linecap="butt" stroke-miterlimit="10" stroke-linejoin="miter" fill="none" stroke="#000000" d="M121.89134 0C121.89134 28.18031 99.04733 51.02432 70.867 51.02432 42.68669 51.02432 19.84268 28.18031 19.84268 0 19.84268-28.18031 42.68669-51.02432 70.867-51.02432 99.04733-51.02432 121.89134-28.18031 121.89134 0ZM70.867 0"/>
<use data-text="&#x03c3;" xlink:href="#font_2_1" transform="matrix(24.906666,0,0,-24.906666,209.45555,94.7861)"/>
<use data-text="(" xlink:href="#font_1_2" transform="matrix(24.906666,0,0,-24.906666,224.9973,94.7861)"/>
<use data-text="A" xlink:href="#font_2_2" transform="matrix(24.906666,0,0,-24.906666,234.95998,94.7861)"/>
<use data-text=")" xlink:href="#font_1_3" transform="matrix(24.906666,0,0,-24.906666,254.16301,94.7861)"/>
<use data-text="&#x03c3;" xlink:href="#font_2_1" transform="matrix(24.906666,0,0,-24.906666,405.88056,79.0361)"/>
<use data-text="(" xlink:href="#font_1_2" transform="matrix(24.906666,0,0,-24.906666,421.4223,79.0361)"/>
<use data-text="C" xlink:href="#font_2_4" transform="matrix(24.906666,0,0,-24.906666,431.38499,79.0361)"/>
<use data-text=")" xlink:href="#font_1_3" transform="matrix(24.906666,0,0,-24.906666,451.43486,79.0361)"/>
<use data-text="&#x03c3;" xlink:href="#font_2_1" transform="matrix(24.906666,0,0,-24.906666,444.96943,189.27222)"/>
<use data-text="(" xlink:href="#font_1_2" transform="matrix(24.906666,0,0,-24.906666,460.51118,189.27222)"/>
<use data-text="B" xlink:href="#font_2_3" transform="matrix(24.906666,0,0,-24.906666,470.47386,189.27222)"/>
<use data-text=")" xlink:href="#font_1_3" transform="matrix(24.906666,0,0,-24.906666,491.09657,189.27222)"/>
<path transform="matrix(2.7777777,0,0,-2.7777777,236.775,236.77223)" d="M-12.38008 14.17339C-12.38008 15.16382-13.18297 15.96669-14.17339 15.96669-15.16382 15.96669-15.96669 15.16382-15.96669 14.17339-15.96669 13.18297-15.16382 12.38008-14.17339 12.38008-13.18297 12.38008-12.38008 13.18297-12.38008 14.17339ZM-14.17339 14.17339"/>
<use data-text="a" xlink:href="#font_2_5" transform="matrix(24.906666,0,0,-24.906666,209.94722,184.8584)"/>
<path transform="matrix(2.7777777,0,0,-2.7777777,236.775,236.77223)" d="M35.80937 0C35.80937 .99042 35.0065 1.79329 34.01608 1.79329 33.02565 1.79329 32.22278 .99042 32.22278 0 32.22278-.99042 33.02565-1.79329 34.01608-1.79329 35.0065-1.79329 35.80937-.99042 35.80937 0ZM34.01608 0"/>
<use data-text="b" xlink:href="#font_2_6" transform="matrix(24.906666,0,0,-24.906666,307.74723,266.6139)"/>
<path transform="matrix(2.7777777,0,0,-2.7777777,236.775,236.77223)" d="M86.83372-14.17339C86.83372-13.18297 86.03085-12.38008 85.04042-12.38008 84.05-12.38008 83.24712-13.18297 83.24712-14.17339 83.24712-15.16382 84.05-15.96669 85.04042-15.96669 86.03085-15.96669 86.83372-15.16382 86.83372-14.17339ZM85.04042-14.17339"/>
<use data-text="c" xlink:href="#font_2_7" transform="matrix(24.906666,0,0,-24.906666,485.53889,299.4111)"/>
</svg>
