<svg xmlns="http://www.w3.org/2000/svg" xmlns:xlink="http://www.w3.org/1999/xlink" version="1.1" width="185.80277pt" height="149.43889pt" viewBox="0 0 185.80277 149.43889">
<defs>
<path id="font_1_4" d="M.46798707 .37236024C.46798707 .42637635 .44198609 .4423828 .42399598 .4423828 .39898683 .4423828 .375 .41636659 .375 .3943634 .375 .38136292 .37998963 .3753662 .3909912 .36434938 .4119873 .3443451 .4249878 .31834413 .4249878 .28233338 .4249878 .24032593 .3639984 .011245728 .24699402 .011245728 .19599915 .011245728 .17298889 .04626465 .17298889 .09828186 .17298889 .15429688 .19999695 .22731018 .23098755 .31033326 .23799134 .3273468 .24299622 .34135438 .24299622 .36035157 .24299622 .405365 .21099854 .4423828 .16099549 .4423828 .066986087 .4423828 .0289917 .29733277 .0289917 .28833009 .0289917 .27833558 .038986207 .27833558 .040985109 .27833558 .050994874 .27833558 .051986696 .28033448 .056991579 .29634095 .085998538 .39736939 .1289978 .42037965 .1579895 .42037965 .1659851 .42037965 .18299866 .42037965 .18299866 .3883667 .18299866 .36335755 .17298889 .3363495 .1659851 .31834413 .12199402 .20230103 .10899353 .15629578 .10899353 .11328125 .10899353 .0052490236 .19699097-.0107421879 .24299622-.0107421879 .41099549-.0107421879 .46798707 .32034303 .46798707 .37236024Z"/>
<path id="font_2_1" d="M.33499146 .63612368C.33499146 .6630554 .33299256 .6640625 .30499269 .6640625 .24099732 .6014404 .1499939 .6004486 .10899353 .6004486V.5644531C.1329956 .5644531 .19898987 .5644531 .2539978 .592453V.08203125C.2539978 .04899597 .2539978 .035995485 .1539917 .035995485H.115997318V0C.13398743 .0009918213 .25698854 .0039978029 .2939911 .0039978029 .32499696 .0039978029 .45098878 .0009918213 .47299195 0V.035995485H.43499757C.33499146 .035995485 .33499146 .04899597 .33499146 .08203125V.63612368Z"/>
<path id="font_2_2" d="M.5049896 .18203736H.47099305C.46798707 .16001892 .45799256 .100997928 .44499208 .09098816 .43699647 .084991458 .3600006 .084991458 .34599305 .084991458H.1619873C.2669983 .17803955 .3019867 .20603943 .3619995 .25306703 .43598939 .312088 .5049896 .374115 .5049896 .46914674 .5049896 .5900879 .39898683 .6640625 .2709961 .6640625 .14698792 .6640625 .06298828 .57710269 .06298828 .4851532 .06298828 .43414308 .10598755 .42915345 .115997318 .42915345 .13999939 .42915345 .16899109 .44615174 .16899109 .48214723 .16899109 .5001526 .1619873 .53515627 .10998535 .53515627 .14099121 .6060791 .20899964 .62805178 .2559967 .62805178 .35598756 .62805178 .4079895 .5501404 .4079895 .46914674 .4079895 .38212586 .34599305 .3130951 .31399537 .27708436L.07299805 .038986207C.06298828 .02999878 .06298828 .027999878 .06298828 0H.47499085L.5049896 .18203736Z"/>
<path id="font_1_3" d="M.16999817-.16976929C.1659851-.18278504 .16499329-.18478394 .16499329-.18977356 .16499329-.21177674 .18399048-.21777344 .19400025-.21777344 .19898987-.21777344 .22099304-.21478272 .23098755-.19178772 .23399353-.18377686 .23899842-.1507721 .2659912-.008743286 .2749939-.009750366 .28199769-.0107421879 .29899598-.0107421879 .46499635-.0107421879 .61898806 .14628601 .61898806 .3043518 .61898806 .38237 .5799866 .4423828 .5049896 .4423828 .3600006 .4423828 .2999878 .24832154 .23999024 .053253175 .13198853 .07325745 .07598877 .12928772 .07598877 .2013092 .07598877 .22932434 .09899902 .33935548 .15899658 .40837098 .16699219 .41737367 .16699219 .41937257 .16699219 .42137147 .16699219 .42536927 .16499329 .43138124 .15499878 .43138124 .1269989 .43138124 .049987794 .28634645 .049987794 .19030762 .049987794 .0962677 .115997318 .023254395 .22299195-.0017547608L.16999817-.16976929M.30799867 .04725647C.2999878 .04725647 .2979889 .04725647 .2899933 .04824829 .27799989 .04824829 .2769928 .04925537 .2769928 .052246095 .2769928 .054260255 .2939911 .14529419 .29699708 .16029358 .32798768 .28834535 .4059906 .3843689 .49499513 .3843689 .56399539 .3843689 .59098818 .33035279 .59098818 .28233338 .59098818 .16929627 .46199037 .04725647 .30799867 .04725647Z"/>
<path id="font_1_2" d="M.48199464 .66833499C.48298646 .67233279 .4850006 .67832949 .4850006 .68333438 .4850006 .69332888 .47799684 .69433596 .47299195 .69433596 .46299745 .69433596 .46199037 .6923218 .45799256 .67433169L.2919922 .013244629C.21598816 .022247315 .17799378 .059265138 .17799378 .12528992 .17799378 .14529419 .17799378 .17129517 .23199463 .31134034 .23599243 .323349 .24299622 .3403473 .24299622 .36035157 .24299622 .405365 .21099854 .4423828 .16099549 .4423828 .06599426 .4423828 .0289917 .29733277 .0289917 .28833009 .0289917 .27833558 .038986207 .27833558 .040985109 .27833558 .050994874 .27833558 .051986696 .28033448 .056991579 .29634095 .083999637 .39135743 .12399292 .42037965 .1579895 .42037965 .1659851 .42037965 .18299866 .42037965 .18299866 .3883667 .18299866 .36235047 .17298889 .3373413 .1599884 .30233766 .11199951 .17630005 .11199951 .15029907 .11199951 .13328552 .11199951 .038253786 .18998719-.002746582 .28599549-.008743286 .27799989-.044815065 .27799989-.046813966 .2639923-.09992981 .26098634-.110946658 .24099732-.1920929 .24099732-.19508362 .24099732-.1960907 .24099732-.20507813 .25299073-.20507813 .25498963-.20507813 .2599945-.20507813 .2619934-.20108032 .2649994-.19908142 .2709961-.17407227 .27398683-.16003418L.31199647-.0107421879C.34899903-.0107421879 .43699647-.0107421879 .5309906 .09628296 .57199099 .14228821 .59298709 .18630982 .60398867 .2163086 .61299136 .24131775 .6349945 .32833863 .6349945 .37236024 .6349945 .42837525 .60798647 .4423828 .59098818 .4423828 .56599429 .4423828 .54100039 .41636659 .54100039 .3943634 .54100039 .38136292 .5469971 .3753662 .55599978 .36735536 .5669861 .35635377 .59199526 .33035279 .59199526 .28233338 .59199526 .2183075 .5399933 .1362915 .5049896 .10028076 .4169922 .011245728 .35299684 .011245728 .31698609 .011245728L.48199464 .66833499Z"/>
<path id="font_1_1" d="M.58299258 .4033661C.59399417 .41436769 .59399417 .41636659 .59399417 .41937257 .59399417 .42536927 .58999636 .43138124 .58200076 .43138124 .57598879 .43138124 .57199099 .42637635 .56599429 .41937257L.33699037 .16418457C.29699708 .29127503 .2889862 .31629945 .2659912 .369339 .25498963 .39234925 .23298645 .4423828 .14498902 .4423828 .08699036 .4423828 .06098938 .39035035 .06098938 .37634278 .06098938 .3753357 .06098938 .366333 .07299805 .366333 .08198547 .366333 .083999637 .3723297 .085998538 .3773346 .100997928 .41636659 .1329956 .42037965 .13899231 .42037965 .16899109 .42037965 .19898987 .34431459 .21598816 .3002777 .24798584 .22122193 .27999879 .10513306 .27999879 .102127078 .27999879 .101135257 .27999879 .09913635 .27198792 .09112549L.041992189-.16607666C.0309906-.17707825 .0309906-.17907715 .0309906-.18208313 .0309906-.18807984 .036987306-.1940918 .042999269-.1940918 .049987794-.1940918 .054992677-.18708802 .05899048-.18309021L.28799439 .07411194C.31999208-.029968262 .33198548-.069000247 .35598756-.12504578 .36898805-.15505982 .3909912-.20507813 .47999574-.20507813 .5379944-.20507813 .5649872-.15306092 .5649872-.14006043 .5649872-.13505554 .5629883-.12904358 .5529938-.12904358 .54299929-.12904358 .5419922-.13304138 .5389862-.14305115 .5299988-.16706848 .5049896-.18309021 .48599244-.18309021 .43499757-.18309021 .36698915 .05909729 .34498597 .13615418L.58299258 .4033661Z"/>
</defs>
<path transform="matrix(2.7777777,0,0,-2.7777777,5.536111,6.0888926)" stroke-width=".398" stroke-linecap="butt" stroke-miterlimit="10" stroke-linejoin="miter" fill="none" stroke="#000000" d="M0 0H62.904"/>
<path transform="matrix(2.7777777,0,0,-2.7777777,6.0888888,39.85)" stroke-width=".398" stroke-linecap="butt" stroke-miterlimit="10" stroke-linejoin="miter" fill="none" stroke="#000000" d="M0 0V11.955"/>
<path transform="matrix(2.7777777,0,0,-2.7777777,59.422224,39.85)" stroke-width=".398" stroke-linecap="butt" stroke-miterlimit="10" stroke-linejoin="miter" fill="none" stroke="#000000" d="M0 0V11.955"/>
<use data-text="v" xlink:href="#font_1_4" transform="matrix(27.673888,0,0,-27.673888,76.58055,29.886109)"/>
<use data-text="1" xlink:href="#font_2_1" transform="matrix(19.371666,0,0,-19.371666,89.99444,34.038888)"/>
<path transform="matrix(2.7777777,0,0,-2.7777777,119.569438,39.85)" stroke-width=".398" stroke-linecap="butt" stroke-miterlimit="10" stroke-linejoin="miter" fill="none" stroke="#000000" d="M0 0V11.955"/>
<use data-text="v" xlink:href="#font_1_4" transform="matrix(27.673888,0,0,-27.673888,136.72499,29.886109)"/>
<use data-text="2" xlink:href="#font_2_2" transform="matrix(19.371666,0,0,-19.371666,150.14167,34.038888)"/>
<path transform="matrix(2.7777777,0,0,-2.7777777,179.71389,39.85)" stroke-width=".398" stroke-linecap="butt" stroke-miterlimit="10" stroke-linejoin="miter" fill="none" stroke="#000000" d="M0 0V11.955"/>
<path transform="matrix(2.7777777,0,0,-2.7777777,5.536111,40.402784)" stroke-width=".398" stroke-linecap="butt" stroke-miterlimit="10" stroke-linejoin="miter" fill="none" stroke="#000000" d="M0 0H62.904"/>
<path transform="matrix(2.7777777,0,0,-2.7777777,6.0888888,74.166667)" stroke-width=".398" stroke-linecap="butt" stroke-miterlimit="10" stroke-linejoin="miter" fill="none" stroke="#000000" d="M0 0V11.955"/>
<use data-text="&#x03c6;" xlink:href="#font_1_3" transform="matrix(27.673888,0,0,-27.673888,23.247223,64.20278)"/>
<path transform="matrix(2.7777777,0,0,-2.7777777,59.422224,74.166667)" stroke-width=".398" stroke-linecap="butt" stroke-miterlimit="10" stroke-linejoin="miter" fill="none" stroke="#000000" d="M0 0V11.955"/>
<path transform="matrix(2.7777777,0,0,-2.7777777,119.569438,74.166667)" stroke-width=".398" stroke-linecap="butt" stroke-miterlimit="10" stroke-linejoin="miter" fill="none" stroke="#000000" d="M0 0V11.955"/>
<path transform="matrix(2.7777777,0,0,-2.7777777,179.71389,74.166667)" stroke-width=".398" stroke-linecap="butt" stroke-miterlimit="10" stroke-linejoin="miter" fill="none" stroke="#000000" d="M0 0V11.955"/>
<path transform="matrix(2.7777777,0,0,-2.7777777,5.536111,74.719448)" stroke-width=".398" stroke-linecap="butt" stroke-miterlimit="10" stroke-linejoin="miter" fill="none" stroke="#000000" d="M0 0H62.904"/>
<path transform="matrix(2.7777777,0,0,-2.7777777,6.0888888,108.48055)" stroke-width=".398" stroke-linecap="butt" stroke-miterlimit="10" stroke-linejoin="miter" fill="none" stroke="#000000" d="M0 0V11.955"/>
<use data-text="&#x03c8;" xlink:href="#font_1_2" transform="matrix(27.673888,0,0,-27.673888,23.247223,98.51945)"/>
<path transform="matrix(2.7777777,0,0,-2.7777777,59.422224,108.48055)" stroke-width=".398" stroke-linecap="butt" stroke-miterlimit="10" stroke-linejoin="miter" fill="none" stroke="#000000" d="M0 0V11.955"/>
<path transform="matrix(2.7777777,0,0,-2.7777777,119.569438,108.48055)" stroke-width=".398" stroke-linecap="butt" stroke-miterlimit="10" stroke-linejoin="miter" fill="none" stroke="#000000" d="M0 0V11.955"/>
<path transform="matrix(2.7777777,0,0,-2.7777777,179.71389,108.48055)" stroke-width=".398" stroke-linecap="butt" stroke-miterlimit="10" stroke-linejoin="miter" fill="none" stroke="#000000" d="M0 0V11.955"/>
<path transform="matrix(2.7777777,0,0,-2.7777777,5.536111,109.0361)" stroke-width=".398" stroke-linecap="butt" stroke-miterlimit="10" stroke-linejoin="miter" fill="none" stroke="#000000" d="M0 0H62.904"/>
<path transform="matrix(2.7777777,0,0,-2.7777777,6.0888888,142.79723)" stroke-width=".398" stroke-linecap="butt" stroke-miterlimit="10" stroke-linejoin="miter" fill="none" stroke="#000000" d="M0 0V11.955"/>
<use data-text="&#x03c7;" xlink:href="#font_1_1" transform="matrix(27.673888,0,0,-27.673888,23.247223,132.83333)"/>
<path transform="matrix(2.7777777,0,0,-2.7777777,59.422224,142.79723)" stroke-width=".398" stroke-linecap="butt" stroke-miterlimit="10" stroke-linejoin="miter" fill="none" stroke="#000000" d="M0 0V11.955"/>
<path transform="matrix(2.7777777,0,0,-2.7777777,119.569438,142.79723)" stroke-width=".398" stroke-linecap="butt" stroke-miterlimit="10" stroke-linejoin="miter" fill="none" stroke="#000000" d="M0 0V11.955"/>
<path transform="matrix(2.7777777,0,0,-2.7777777,179.71389,142.79723)" stroke-width=".398" stroke-linecap="butt" stroke-miterlimit="10" stroke-linejoin="miter" fill="none" stroke="#000000" d="M0 0V11.955"/>
<path transform="matrix(2.7777777,0,0,-2.7777777,5.536111,143.34999)" stroke-width=".398" stroke-linecap="butt" stroke-miterlimit="10" stroke-linejoin="miter" fill="none" stroke="#000000" d="M0 0H62.904"/>
</svg>
