<?xml version="1.0" encoding="UTF-8" standalone="no"?>
<!DOCTYPE svg PUBLIC "-//W3C//DTD SVG 1.1//EN" "http://www.w3.org/Graphics/SVG/1.1/DTD/svg11.dtd">
<svg xmlns="http://www.w3.org/2000/svg" xmlns:xlink="http://www.w3.org/1999/xlink" version="1.1" width="319.25834pt" height="154.97499pt" viewBox="0 0 319.25834 154.97499">
<g enable-background="new">
<symbol id="font_0_1">
<path d="M .521 .68 L 0 .68 L 0 .64900007 L .024000004 .64900007 C .101 .64900007 .10300001 .638 .10300001 .60200008 L .10300001 .078 C .10300001 .042000005 .101 .031000002 .024000004 .031000002 L 0 .031000002 L 0 0 C .035000005 .003 .11300001 .003 .15200001 .003 C .19300002 .003 .284 .003 .32000003 0 L .32000003 .031000002 L .28700004 .031000002 C .192 .031000002 .192 .044000005 .192 .079 L .192 .609 C .192 .642 .194 .64900007 .24100003 .64900007 L .344 .64900007 C .48700006 .64900007 .508 .59000006 .52400007 .455 L .549 .455 L .521 .68 Z "/>
</symbol>
<use xlink:href="#font_0_1" transform="matrix(27.673888,0,0,-27.673888,21.938237,29.058327)"/>
<symbol id="font_1_2">
<path d="M .040000008 .96400007 C .040000008 .98200008 .040000008 1 .02000001 1 C 0 1 0 .98200008 0 .96400007 L 0 .035999985 C 0 .017999992 0 0 .02000001 0 C .040000008 0 .040000008 .017999992 .040000008 .035999985 L .040000008 .96400007 Z "/>
</symbol>
<use xlink:href="#font_1_2" transform="matrix(27.673888,0,0,-27.673888,49.307714,35.9768)"/>
<symbol id="font_0_2">
<path d="M .63100007 .19400002 C .646 .19400002 .665 .19400002 .665 .214 C .665 .23400001 .646 .23400001 .632 .23400001 L .033 .23400001 C .019000002 .23400001 0 .23400001 0 .214 C 0 .19400002 .019000002 .19400002 .034 .19400002 L .63100007 .19400002 M .632 0 C .646 0 .665 0 .665 .02000001 C .665 .040000008 .646 .040000008 .63100007 .040000008 L .034 .040000008 C .019000002 .040000008 0 .040000008 0 .02000001 C 0 0 .019000002 0 .033 0 L .632 0 Z "/>
</symbol>
<use xlink:href="#font_0_2" transform="matrix(27.673888,0,0,-27.673888,50.636064,25.377699)"/>
<symbol id="font_2_1">
<path d="M .120000008 .048000009 C .11600001 .034999998 .11500001 .033000009 .11500001 .027999998 C .11500001 .0059999974 .13400002 0 .14400001 0 C .14900002 0 .17100002 .003000006 .18100001 .026000008 C .18400002 .033999996 .18900001 .067 .216 .209 C .22500001 .208 .23200001 .207 .24900003 .207 C .41500003 .207 .569 .36400003 .569 .522 C .569 .6 .53000006 .66 .45499999 .66 C .31 .66 .25 .46600003 .19000001 .27100004 C .082 .291 .026000005 .347 .026000005 .41900004 C .026000005 .44700004 .049000008 .55700007 .10900001 .62600007 C .11700001 .63500007 .11700001 .637 .11700001 .63900008 C .11700001 .643 .11500001 .64900007 .105000007 .64900007 C .07700001 .64900007 0 .504 0 .40800003 C 0 .314 .066 .24100001 .17300001 .216 L .120000008 .048000009 M .25800003 .26500003 C .25 .26500003 .24800001 .26500003 .24000003 .266 C .22800003 .266 .22700002 .26700003 .22700002 .27 C .22700002 .272 .244 .36300005 .24700003 .37800003 C .278 .50600007 .356 .602 .44500003 .602 C .514 .602 .541 .54800006 .541 .5 C .541 .38700003 .412 .26500003 .25800003 .26500003 Z "/>
</symbol>
<use xlink:href="#font_2_1" transform="matrix(27.673888,0,0,-27.673888,79.69366,35.091234)"/>
<symbol id="font_3_1">
<path d="M .29200004 .48700003 L .28500004 .48600004 L .28000004 .48400004 L .27500005 .47900004 C .156 .35000003 .065000008 .20300001 .0010000002 .026 L 0 .020000002 C .0010000002 .008000001 .008000001 .0010000002 .020000002 0 L .026 .0010000002 L .032 .0040000008 L .036000004 .008000001 L .039000006 .014000001 C .102000009 .187 .192 .32900004 .30800004 .45600004 L .31100003 .46100004 L .31200005 .46700005 C .31100003 .47900004 .30400003 .48600004 .29200004 .48700003 Z "/>
</symbol>
<use xlink:href="#font_3_1" transform="matrix(27.673888,0,0,-27.673888,58.15763,111.25068)"/>
<symbol id="font_4_1">
<path d="M .31200005 .020000002 L .31100003 .026 C .24700003 .20300001 .15600002 .35000003 .037 .47900004 L .032000007 .48400004 L .02700001 .48600004 L .02000001 .48700003 C .008000016 .48600004 .0010000169 .47900004 0 .46700005 L .0010000169 .46100004 L .004000008 .45600004 C .12000002 .32900004 .21000003 .187 .27300004 .014000001 L .27600003 .008000001 L .28000004 .0040000008 L .286 .0010000002 L .29200004 0 C .30400003 .0010000002 .31100003 .008000001 .31200005 .020000002 Z "/>
</symbol>
<use xlink:href="#font_4_1" transform="matrix(27.673888,0,0,-27.673888,50.630334,111.25068)"/>
<path transform="matrix(2.7777777,0,0,-2.7777777,61.477777,22.138892)" stroke-width=".398" stroke-linecap="round" stroke-linejoin="round" fill="none" stroke="#000000" d="M 0 -7.97 L 0 -29.39 "/>
<path transform="matrix(2.7777777,0,0,-2.7777777,55.94444,22.138892)" stroke-width=".398" stroke-linecap="round" stroke-linejoin="round" fill="none" stroke="#000000" d="M 0 -7.97 L 0 -29.39 "/>
<use xlink:href="#font_0_1" transform="matrix(27.673888,0,0,-27.673888,205.77712,29.058327)"/>
<symbol id="font_1_1">
<path d="M .57600006 0 C .59300008 0 .611 0 .611 .019999996 C .611 .040000008 .59300008 .040000008 .57600006 .040000008 L .035000005 .040000008 C .018 .040000008 0 .040000008 0 .019999996 C 0 0 .018 0 .035000005 0 L .57600006 0 Z "/>
</symbol>
<use xlink:href="#font_1_2" transform="matrix(27.673888,0,0,-27.673888,233.14659,35.9768)"/>
<use xlink:href="#font_1_1" transform="matrix(27.673888,0,0,-27.673888,234.44727,22.693333)"/>
<symbol id="font_5_1">
<path d="M .772 .67300006 L .024 .67300006 L 0 .43400003 L .06300001 .43400003 C .074 .54300007 .088000018 .61700007 .23300003 .61700007 L .323 .61700007 L .323 .056 L .17100002 .056 L .17100002 0 C .19700001 .002 .252 .003 .279 .003 C .319 .003 .359 .004 .398 .004 C .439 .004 .48000003 .003 .521 .003 C .55 .003 .597 .002 .62600007 0 L .62600007 .056 L .47400005 .056 L .47400005 .61700007 L .563 .61700007 C .708 .61700007 .722 .544 .73300006 .43400003 L .796 .43400003 L .772 .67300006 Z "/>
</symbol>
<use xlink:href="#font_5_1" transform="matrix(19.371666,0,0,-19.371666,254.64635,33.20832)"/>
<use xlink:href="#font_2_1" transform="matrix(27.673888,0,0,-27.673888,281.51426,35.091234)"/>
<use xlink:href="#font_0_1" transform="matrix(27.673888,0,0,-27.673888,9.216012,139.75556)"/>
<symbol id="font_6_1">
<path d="M .23400001 .215 C .31600005 .25100003 .35300005 .26500003 .37800003 .277 C .397 .285 .40600003 .289 .40600003 .308 C .40600003 .32500003 .393 .34 .375 .34 C .36800004 .34 .366 .34 .35400004 .331 L .21800001 .24000001 L .23300003 .388 C .235 .40600003 .23300003 .43100003 .20300003 .43100003 C .191 .43100003 .172 .423 .172 .40100003 C .172 .39200003 .17600002 .36200003 .177 .352 C .179 .335 .186 .263 .18800001 .24000001 L .053000004 .331 C .042999999 .337 .040000008 .34 .031000004 .34 C .013000004 .34 0 .32500003 0 .308 C 0 .28800003 .012000002 .283 .021000006 .279 L .172 .21599999 C .09 .18 .053000004 .16600001 .028000005 .15400002 C .009000003 .146 0 .14200002 0 .123 C 0 .106 .013000004 .091 .031000004 .091 C .038000004 .091 .040000008 .091 .052 .1 L .18800001 .19100002 L .172 .030000002 C .172 .008000001 .191 0 .20300003 0 C .21500002 0 .23400001 .008000001 .23400001 .030000002 C .23400001 .039000006 .23 .069000009 .22900002 .079 C .22700002 .09600001 .22000002 .16800002 .21800001 .19100002 L .338 .11100001 C .36400003 .091 .366 .091 .375 .091 C .393 .091 .40600003 .106 .40600003 .123 C .40600003 .143 .394 .148 .38500006 .15200001 L .23400001 .215 Z "/>
</symbol>
<use xlink:href="#font_6_1" transform="matrix(19.371666,0,0,-19.371666,27.321295,129.05248)"/>
<use xlink:href="#font_1_2" transform="matrix(27.673888,0,0,-27.673888,49.301519,146.67403)"/>
<use xlink:href="#font_0_2" transform="matrix(27.673888,0,0,-27.673888,50.629869,136.07492)"/>
<use xlink:href="#font_2_1" transform="matrix(27.673888,0,0,-27.673888,79.687458,145.78847)"/>
<use xlink:href="#font_6_1" transform="matrix(19.371666,0,0,-19.371666,98.121288,129.05248)"/>
<symbol id="font_3_2">
<path d="M 0 .29200004 L .0009999871 .28500004 L .0029999912 .28000004 L .007999986 .27500005 C .137 .156 .28399999 .065000008 .461 .0010000002 L .467 0 C .479 .0010000002 .486 .008000001 .48700003 .020000002 L .486 .026 L .483 .032 L .479 .036000004 L .47300003 .039000006 C .3 .102000009 .15799999 .192 .030999989 .30800004 L .025999994 .31100003 L .01999998 .31200005 C .007999986 .31100003 .0009999871 .30400003 0 .29200004 Z "/>
</symbol>
<use xlink:href="#font_3_2" transform="matrix(27.673888,0,0,-27.673888,170.91515,133.38959)"/>
<symbol id="font_4_2">
<path d="M .467 .31200005 L .461 .31100003 C .28399999 .24700003 .137 .15600002 .007999986 .037 L .0029999912 .032000007 L .0009999871 .02700001 L 0 .02000001 C .0009999871 .008000016 .007999986 .0010000169 .01999998 0 L .025999994 .0010000169 L .030999989 .004000008 C .15799999 .12000002 .3 .21000003 .47300003 .27300004 L .479 .27600003 L .483 .28000004 L .486 .286 L .48700003 .29200004 C .486 .30400003 .479 .31100003 .467 .31200005 Z "/>
</symbol>
<use xlink:href="#font_4_2" transform="matrix(27.673888,0,0,-27.673888,170.91515,140.91689)"/>
<path transform="matrix(2.7777777,0,0,-2.7777777,58.71111,19.37222)" stroke-width=".398" stroke-linecap="round" stroke-linejoin="round" fill="none" stroke="#000000" d="M 21.136 -39.851 L 42.556 -39.851 "/>
<path transform="matrix(2.7777777,0,0,-2.7777777,58.71111,24.908329)" stroke-width=".398" stroke-linecap="round" stroke-linejoin="round" fill="none" stroke="#000000" d="M 21.136 -39.851 L 42.556 -39.851 "/>
<use xlink:href="#font_0_1" transform="matrix(27.673888,0,0,-27.673888,193.05489,139.75556)"/>
<use xlink:href="#font_6_1" transform="matrix(19.371666,0,0,-19.371666,211.16295,129.05248)"/>
<use xlink:href="#font_1_2" transform="matrix(27.673888,0,0,-27.673888,233.1404,146.67403)"/>
<use xlink:href="#font_1_1" transform="matrix(27.673888,0,0,-27.673888,234.46874,133.39057)"/>
<use xlink:href="#font_5_1" transform="matrix(19.371666,0,0,-19.371666,254.64635,143.90555)"/>
<use xlink:href="#font_2_1" transform="matrix(27.673888,0,0,-27.673888,281.51426,145.78847)"/>
<use xlink:href="#font_6_1" transform="matrix(19.371666,0,0,-19.371666,299.9574,129.05248)"/>
<symbol id="font_3_3">
<path d="M .02000001 0 L .02700001 .0009999871 L .032000007 .0029999912 L .037 .007999986 C .15600002 .137 .24700003 .28399999 .31100003 .461 L .31200005 .467 C .31100003 .479 .30400003 .486 .29200004 .48700003 L .286 .486 L .28000004 .483 L .27600003 .479 L .27300004 .47300003 C .21000003 .3 .12000002 .15799999 .004000008 .030999989 L .0010000169 .025999994 L 0 .01999998 C .0010000169 .007999986 .008000016 .0009999871 .02000001 0 Z "/>
</symbol>
<use xlink:href="#font_3_3" transform="matrix(27.673888,0,0,-27.673888,243.46921,57.201478)"/>
<symbol id="font_4_3">
<path d="M 0 .467 L .0010000002 .461 C .065000008 .28399999 .156 .137 .27500005 .007999986 L .28000004 .0029999912 L .28500004 .0009999871 L .29200004 0 C .30400003 .0009999871 .31100003 .007999986 .31200005 .01999998 L .31100003 .025999994 L .30800004 .030999989 C .192 .15799999 .102000009 .3 .039000006 .47300003 L .036000004 .479 L .032 .483 L .026 .486 L .020000002 .48700003 C .008000001 .486 .0010000002 .479 0 .467 Z "/>
</symbol>
<use xlink:href="#font_4_3" transform="matrix(27.673888,0,0,-27.673888,250.9965,57.201478)"/>
<path transform="matrix(2.7777777,0,0,-2.7777777,55.94444,22.138892)" stroke-width=".398" stroke-linecap="round" stroke-linejoin="round" fill="none" stroke="#000000" d="M 69.422 -31.88 L 69.422 -10.461 "/>
<path transform="matrix(2.7777777,0,0,-2.7777777,61.477777,22.138892)" stroke-width=".398" stroke-linecap="round" stroke-linejoin="round" fill="none" stroke="#000000" d="M 69.422 -31.88 L 69.422 -10.461 "/>
</g>
</svg>
