<?xml version="1.0" encoding="UTF-8" standalone="no"?>
<!DOCTYPE svg PUBLIC "-//W3C//DTD SVG 1.1//EN" "http://www.w3.org/Graphics/SVG/1.1/DTD/svg11.dtd">
<svg xmlns="http://www.w3.org/2000/svg" xmlns:xlink="http://www.w3.org/1999/xlink" version="1.1" width="317.28056pt" height="220.62223pt" viewBox="0 0 317.28056 220.62223">
<g enable-background="new">
<symbol id="font_0_1">
<path d="M .14400001 .115 C .10400002 .048 .065 .034 .021000002 .031000002 C .009000003 .030000002 0 .030000002 0 .011000001 C 0 .0050000005 .0050000029 0 .013 0 C .040000004 0 .07100001 .003 .09900001 .003 C .13200002 .003 .16700001 0 .19900002 0 C .20500002 0 .21800003 0 .21800003 .019000002 C .21800003 .030000002 .20900002 .031000002 .20200002 .031000002 C .17900002 .033 .15500002 .041 .15500002 .066 C .15500002 .078 .16100002 .089 .16900002 .10300001 L .245 .231 L .49600003 .231 C .49800007 .21000001 .512 .074 .512 .064 C .512 .034 .46000005 .031000002 .44000004 .031000002 C .42600004 .031000002 .41600005 .031000002 .41600005 .011000001 C .41600005 0 .42800004 0 .43000005 0 C .47100006 0 .514 .003 .555 .003 C .58 .003 .643 0 .668 0 C .674 0 .686 0 .686 .020000002 C .686 .031000002 .676 .031000002 .663 .031000002 C .601 .031000002 .601 .038000004 .598 .067 L .537 .69200006 C .535 .712 .535 .716 .518 .716 C .502 .716 .49800007 .70900008 .492 .69900009 L .14400001 .115 M .26400004 .26200003 L .46100004 .592 L .493 .26200003 L .26400004 .26200003 Z "/>
</symbol>
<use xlink:href="#font_0_1" transform="matrix(27.673888,0,0,-27.673888,9.271363,27.21112)"/>
<symbol id="font_1_1">
<path d="M .342 .083000008 C .342 .052000006 .342 .006 .446 .006 L .49400003 .006 C .514 .006 .526 .006 .526 .030000002 C .526 .053000004 .513 .053000004 .5 .053000004 C .439 .054 .439 .067 .439 .09 L .439 .30500005 C .439 .39400003 .368 .45900003 .21900001 .45900003 C .162 .45900003 .040000004 .45500005 .040000004 .36700005 C .040000004 .323 .075 .30400003 .102 .30400003 C .133 .30400003 .165 .32500003 .165 .36700005 C .165 .39700005 .146 .41400004 .143 .41600005 C .171 .42200003 .20300001 .42300005 .215 .42300005 C .29000003 .42300005 .32500003 .38100005 .32500003 .30500005 L .32500003 .27100004 C .254 .26800005 0 .25900004 0 .114 C 0 .018 .124 0 .193 0 C .273 0 .32000003 .041 .342 .083000008 M .32500003 .24000001 L .32500003 .14500001 C .32500003 .049000004 .23300001 .036000004 .208 .036000004 C .157 .036000004 .117 .071 .117 .115 C .117 .223 .275 .237 .32500003 .24000001 Z "/>
</symbol>
<use xlink:href="#font_1_1" transform="matrix(27.673888,0,0,-27.673888,29.94376,27.377165)"/>
<symbol id="font_0_2">
<path d="M .11800001 .078 C .108 .039 .106 .031000002 .027000003 .031000002 C .009999998 .031000002 0 .031000002 0 .011000001 C 0 0 .009 0 .027000003 0 L .38400004 0 C .54200008 0 .66 .11800001 .66 .216 C .66 .28800003 .60200008 .34600003 .50500008 .35700003 C .609 .37600003 .71400007 .45000003 .71400007 .545 C .71400007 .619 .64800009 .683 .52800008 .683 L .192 .683 C .17300001 .683 .16300002 .683 .16300002 .66300007 C .16300002 .652 .17200002 .652 .19100002 .652 C .19300002 .652 .21200001 .652 .22900003 .65000006 C .24700001 .648 .256 .647 .256 .634 C .256 .63000008 .25500003 .62700006 .252 .615 L .11800001 .078 M .26900003 .36600004 L .33100004 .614 C .34000004 .64900007 .342 .652 .38500003 .652 L .51400008 .652 C .60200008 .652 .623 .59300008 .623 .549 C .623 .46100004 .53700008 .36600004 .41500003 .36600004 L .26900003 .36600004 M .224 .031000002 C .21000001 .031000002 .208 .031000002 .20200002 .032 C .192 .033 .18900001 .034 .18900001 .042000005 C .18900001 .045 .18900001 .047000003 .194 .065000008 L .263 .344 L .45200003 .344 C .54800006 .344 .56700006 .27 .56700006 .22700002 C .56700006 .128 .47800005 .031000002 .36 .031000002 L .224 .031000002 Z "/>
</symbol>
<use xlink:href="#font_0_2" transform="matrix(27.673888,0,0,-27.673888,45.690206,27.21112)"/>
<use xlink:href="#font_0_1" transform="matrix(27.673888,0,0,-27.673888,251.58393,27.21112)"/>
<symbol id="font_1_2">
<path d="M .43 .224 C .45200003 .224 .462 .224 .462 .25100003 C .462 .28200004 .45600004 .35500003 .40600003 .40500004 C .36900003 .44100005 .316 .45900003 .24700001 .45900003 C .087 .45900003 0 .35600005 0 .231 C 0 .097 .099999997 0 .261 0 C .41900004 0 .462 .106 .462 .123 C .462 .141 .44300003 .141 .43800003 .141 C .421 .141 .41900004 .136 .41300003 .120000008 C .39200003 .072 .335 .040000004 .27 .040000004 C .12900001 .040000004 .128 .17300001 .128 .224 L .43 .224 M .128 .25700004 C .13 .29600004 .131 .33800004 .15200001 .37100003 C .178 .41100005 .218 .42300005 .24700001 .42300005 C .36400003 .42300005 .36600004 .29200004 .367 .25700004 L .128 .25700004 Z "/>
</symbol>
<use xlink:href="#font_1_2" transform="matrix(27.673888,0,0,-27.673888,272.25633,27.377165)"/>
<use xlink:href="#font_0_2" transform="matrix(27.673888,0,0,-27.673888,287.1172,27.21112)"/>
<use xlink:href="#font_0_1" transform="matrix(27.673888,0,0,-27.673888,12.585253,212.31945)"/>
<symbol id="font_1_3">
<path d="M .177 .45000003 L .0029999987 .44200004 L .0029999987 .395 C .062000004 .395 .069000009 .395 .069000009 .356 L .069000009 .047000003 L 0 .047000003 L 0 0 C .031 .001 .08 .003 .12200001 .003 C .15200001 .003 .203 .001 .23900001 0 L .23900001 .047000003 L .177 .047000003 L .177 .45000003 M .187 .61700007 C .187 .661 .15100001 .69500008 .109 .69500008 C .066 .69500008 .031 .66 .031 .61700007 C .031 .574 .066 .53900006 .109 .53900006 C .15100001 .53900006 .187 .573 .187 .61700007 Z "/>
</symbol>
<use xlink:href="#font_1_3" transform="matrix(27.673888,0,0,-27.673888,33.67276,212.31945)"/>
<use xlink:href="#font_0_2" transform="matrix(27.673888,0,0,-27.673888,42.36236,212.31945)"/>
<use xlink:href="#font_0_1" transform="matrix(27.673888,0,0,-27.673888,250.91275,212.31945)"/>
<symbol id="font_1_4">
<path d="M .51000007 .224 C .51000007 .35800005 .418 .45900003 .255 .45900003 C .091000009 .45900003 0 .35700003 0 .224 C 0 .1 .088 0 .255 0 C .423 0 .51000007 .101 .51000007 .224 M .255 .040000004 C .128 .040000004 .128 .148 .128 .23500002 C .128 .28000004 .128 .33100004 .145 .36500005 C .164 .40200005 .206 .42300005 .255 .42300005 C .29700003 .42300005 .33900003 .40700004 .361 .37200005 C .38200004 .33800004 .38200004 .28300003 .38200004 .23500002 C .38200004 .148 .38200004 .040000004 .255 .040000004 Z "/>
</symbol>
<use xlink:href="#font_1_4" transform="matrix(27.673888,0,0,-27.673888,271.58515,212.48549)"/>
<use xlink:href="#font_0_2" transform="matrix(27.673888,0,0,-27.673888,287.77439,212.31945)"/>
</g>
</svg>
