<?xml version="1.0" encoding="UTF-8" standalone="no"?>
<!DOCTYPE svg PUBLIC "-//W3C//DTD SVG 1.1//EN" "http://www.w3.org/Graphics/SVG/1.1/DTD/svg11.dtd">
<svg xmlns="http://www.w3.org/2000/svg" xmlns:xlink="http://www.w3.org/1999/xlink" version="1.1" width="443.15834pt" height="443.15834pt" viewBox="0 0 443.15834 443.15834">
<g enable-background="new">
<path transform="matrix(2.7777777,0,0,-2.7777777,221.58054,221.57779)" stroke-width=".79701" stroke-linecap="butt" stroke-miterlimit="10" stroke-linejoin="miter" fill="none" stroke="#000000" d="M 79.37114 0 C 79.37114 43.83603 43.83603 79.37114 0 79.37114 C -43.83603 79.37114 -79.37114 43.83603 -79.37114 0 C -79.37114 -43.83603 -43.83603 -79.37114 0 -79.37114 C 43.83603 -79.37114 79.37114 -43.83603 79.37114 0 Z M 0 0 "/>
<path transform="matrix(2.7777777,0,0,-2.7777777,221.58054,221.57779)" stroke-width=".79701" stroke-linecap="butt" stroke-miterlimit="10" stroke-linejoin="miter" fill="none" stroke="#000000" d="M 75.05482 25.84389 L 8.29686 78.94408 "/>
<path transform="matrix(2.7777777,0,0,-2.7777777,221.58054,221.57779)" stroke-width=".79701" stroke-linecap="butt" stroke-miterlimit="10" stroke-linejoin="miter" fill="none" stroke="#000000" d="M 75.05482 25.84389 L -79.33046 2.77002 "/>
<path transform="matrix(2.7777777,0,0,-2.7777777,221.58054,221.57779)" stroke-width=".79701" stroke-linecap="butt" stroke-miterlimit="10" stroke-linejoin="miter" fill="none" stroke="#000000" d="M 75.05482 25.84389 L -28.44682 -74.10646 "/>
<path transform="matrix(2.7777777,0,0,-2.7777777,221.58054,221.57779)" stroke-width=".79701" stroke-linecap="butt" stroke-miterlimit="10" stroke-linejoin="miter" fill="none" stroke="#000000" d="M 75.05482 25.84389 L 58.05403 -54.13695 "/>
<path transform="matrix(2.7777777,0,0,-2.7777777,221.58054,221.57779)" stroke-width=".79701" stroke-linecap="butt" stroke-miterlimit="10" stroke-linejoin="miter" fill="none" stroke="#000000" d="M 8.29686 78.94408 L -79.33046 2.77002 "/>
<path transform="matrix(2.7777777,0,0,-2.7777777,221.58054,221.57779)" stroke-width=".79701" stroke-linecap="butt" stroke-miterlimit="10" stroke-linejoin="miter" fill="none" stroke="#000000" d="M 8.29686 78.94408 L -28.44682 -74.10646 "/>
<path transform="matrix(2.7777777,0,0,-2.7777777,221.58054,221.57779)" stroke-width=".79701" stroke-linecap="butt" stroke-miterlimit="10" stroke-linejoin="miter" fill="none" stroke="#000000" d="M 8.29686 78.94408 L 58.05403 -54.13695 "/>
<path transform="matrix(2.7777777,0,0,-2.7777777,221.58054,221.57779)" stroke-width=".79701" stroke-linecap="butt" stroke-miterlimit="10" stroke-linejoin="miter" fill="none" stroke="#000000" d="M -79.33046 2.77002 L -28.44682 -74.10646 "/>
<path transform="matrix(2.7777777,0,0,-2.7777777,221.58054,221.57779)" stroke-width=".79701" stroke-linecap="butt" stroke-miterlimit="10" stroke-linejoin="miter" fill="none" stroke="#000000" d="M -79.33046 2.77002 L 58.05403 -54.13695 "/>
<path transform="matrix(2.7777777,0,0,-2.7777777,221.58054,221.57779)" stroke-width=".79701" stroke-linecap="butt" stroke-miterlimit="10" stroke-linejoin="miter" fill="none" stroke="#000000" d="M -28.44682 -74.10646 L 58.05403 -54.13695 "/>
<symbol id="font_0_2">
<path d="M .22600001 .63600006 C .22600001 .66300007 .224 .66400006 .19600001 .66400006 C .132 .601 .041 .6 0 .6 L 0 .564 C .023999997 .564 .09000001 .564 .14500001 .592 L .14500001 .082 C .14500001 .049000004 .14500001 .036000004 .04500001 .036000004 L .0069999995 .036000004 L .0069999995 0 C .024999999 .001 .148 .004 .185 .004 C .21600002 .004 .34200005 .001 .36400003 0 L .36400003 .036000004 L .32600004 .036000004 C .22600001 .036000004 .22600001 .049000004 .22600001 .082 L .22600001 .63600006 Z "/>
</symbol>
<use xlink:href="#font_0_2" transform="matrix(19.371666,0,0,-19.371666,99.12261,88.92221)"/>
<symbol id="font_0_3">
<path d="M .442 .18200001 L .40800003 .18200001 C .40500004 .16000001 .39500005 .101 .38200004 .091000009 C .374 .085 .29700003 .085 .28300003 .085 L .099 .085 C .20400003 .178 .23900002 .20600002 .29900003 .25300003 C .37300004 .312 .442 .374 .442 .469 C .442 .59000006 .33600004 .66400006 .20800004 .66400006 C .084 .66400006 0 .577 0 .485 C 0 .43400003 .043000007 .42900003 .053000004 .42900003 C .077 .42900003 .10600001 .446 .10600001 .48200003 C .10600001 .5 .099 .535 .047000007 .535 C .078 .606 .146 .628 .19300002 .628 C .293 .628 .34500004 .55 .34500004 .469 C .34500004 .38200004 .28300003 .31300003 .25100003 .277 L .010000005 .039 C 0 .030000002 0 .028 0 0 L .41200004 0 L .442 .18200001 Z "/>
</symbol>
<use xlink:href="#font_0_3" transform="matrix(19.371666,0,0,-19.371666,347.36207,71.283329)"/>
<symbol id="font_0_4">
<path d="M .219 .35400004 C .29700003 .35400004 .35300002 .3 .35300002 .193 C .35300002 .069000009 .28100003 .032 .223 .032 C .18300002 .032 .095 .043000007 .053000008 .102000009 C .10000001 .10400001 .111 .13700001 .111 .158 C .111 .19 .087 .213 .056000007 .213 C .028 .213 0 .19600001 0 .155 C 0 .061000006 .104 0 .22500001 0 C .36400003 0 .46 .09300001 .46 .193 C .46 .27100004 .39600004 .34900005 .286 .37200005 C .39100004 .41000004 .42900003 .48500005 .42900003 .546 C .42900003 .625 .33800004 .684 .22700002 .684 C .116 .684 .031 .63 .031 .55 C .031 .51600006 .053000008 .49700005 .083000008 .49700005 C .11400001 .49700005 .134 .52 .134 .548 C .134 .577 .11400001 .598 .083000008 .6 C .118 .644 .187 .65500006 .22400002 .65500006 C .26900003 .65500006 .33200003 .633 .33200003 .546 C .33200003 .504 .31800003 .45800004 .29200004 .42700003 C .25900004 .38900004 .23100002 .38700003 .18100001 .38400004 C .156 .38200004 .154 .38200004 .149 .38100005 C .147 .38100005 .139 .37900005 .139 .36800004 C .139 .35400004 .148 .35400004 .165 .35400004 L .219 .35400004 Z "/>
</symbol>
<use xlink:href="#font_0_4" transform="matrix(19.371666,0,0,-19.371666,419.94328,263.48466)"/>
<symbol id="font_0_5">
<path d="M .49000005 .164 L .49000005 .2 L .379 .2 L .379 .646 C .379 .66700008 .379 .674 .35700003 .674 C .345 .674 .34100003 .674 .331 .66 L 0 .2 L 0 .164 L .294 .164 L .294 .082 C .294 .048 .294 .036000004 .213 .036000004 L .186 .036000004 L .186 0 C .236 .002 .3 .004 .33600004 .004 C .37300004 .004 .437 .002 .48700003 0 L .48700003 .036000004 L .46 .036000004 C .379 .036000004 .379 .048 .379 .082 L .379 .164 L .49000005 .164 M .301 .56600007 L .301 .2 L .037000006 .2 L .301 .56600007 Z "/>
</symbol>
<use xlink:href="#font_0_5" transform="matrix(19.371666,0,0,-19.371666,267.52769,421.83888)"/>
<symbol id="font_0_6">
<path d="M .092 .578 C .143 .565 .17300001 .565 .18900001 .565 C .321 .565 .39900003 .65500006 .39900003 .67 C .39900003 .681 .39200003 .684 .38700003 .684 C .38500003 .684 .38300003 .684 .37900005 .681 C .35500003 .672 .30200003 .652 .22800002 .652 C .20000002 .652 .14700002 .654 .08200001 .679 C .072000008 .684 .07 .684 .069 .684 C .056 .684 .056 .67300006 .056 .657 L .056 .36200003 C .056 .34500004 .056 .33300004 .072000008 .33300004 C .08100001 .33300004 .08200001 .33500005 .092 .34700004 C .13500002 .40200005 .19600001 .41000004 .231 .41000004 C .291 .41000004 .31800003 .36200003 .323 .35400004 C .34100003 .32100005 .34700004 .28300003 .34700004 .22500001 C .34700004 .19500001 .34700004 .136 .31700004 .09200001 C .29200004 .056 .24900002 .032 .20000002 .032 C .13500002 .032 .06800001 .068 .043000007 .134 C .08100001 .13100001 .1 .156 .1 .183 C .1 .22600001 .063 .23400001 .050000006 .23400001 C .048000009 .23400001 0 .23400001 0 .18 C 0 .09 .08200001 0 .20200002 0 C .33 0 .442 .095000009 .442 .221 C .442 .33400003 .35600005 .43800003 .23200003 .43800003 C .18800003 .43800003 .136 .42700003 .092 .38900004 L .092 .578 Z "/>
</symbol>
<use xlink:href="#font_0_6" transform="matrix(19.371666,0,0,-19.371666,49.725965,336.2402)"/>
<symbol id="font_0_7">
<path d="M .096 .34700004 C .096 .42900003 .103 .503 .141 .564 C .17500001 .61800006 .22900002 .65500006 .293 .65500006 C .323 .65500006 .36300005 .647 .38300003 .62 C .35800005 .61800006 .33700005 .601 .33700005 .572 C .33700005 .547 .35400004 .525 .38400004 .525 C .41400004 .525 .43200005 .545 .43200005 .574 C .43200005 .632 .39000006 .684 .29100005 .684 C .147 .684 0 .552 0 .337 C 0 .078 .12200001 0 .23200001 0 C .35400004 0 .46 .09300001 .46 .224 C .46 .35100005 .35900004 .44500003 .242 .44500003 C .162 .44500003 .118 .39200003 .096 .34700004 M .23200001 .032 C .18200001 .032 .143 .061000006 .12200001 .105000007 C .10700001 .135 .09900001 .185 .09900001 .245 C .09900001 .34200005 .157 .41700004 .237 .41700004 C .28300003 .41700004 .31400005 .39900003 .33900003 .36200003 C .36300005 .32400004 .36400003 .28200004 .36400003 .224 C .36400003 .167 .36400003 .125 .33700005 .086 C .31300003 .051000004 .28100003 .032 .23200001 .032 Z "/>
</symbol>
<use xlink:href="#font_0_7" transform="matrix(19.371666,0,0,-19.371666,155.37662,142.22356)"/>
<symbol id="font_0_8">
<path d="M .46500004 .624 C .47500003 .63600006 .47500003 .638 .47500003 .66400006 L .21300003 .66400006 C .17300001 .66400006 .162 .665 .12600002 .668 C .07400001 .672 .072000008 .679 .06900001 .69600006 L .035000005 .69600006 L 0 .48200003 L .034 .48200003 C .036000007 .49700005 .046000005 .563 .062 .573 C .07 .579 .15100003 .579 .16600001 .579 L .38400004 .579 C .35200004 .537 .30100004 .47500003 .28000004 .44700004 C .14900002 .27500005 .13700003 .116000007 .13700003 .057000005 C .13700003 .046000005 .13700003 0 .18400002 0 C .23200003 0 .23200003 .045 .23200003 .058000007 L .23200003 .098000008 C .23200003 .29200004 .272 .38100005 .31500004 .43500004 L .46500004 .624 Z "/>
</symbol>
<use xlink:href="#font_0_8" transform="matrix(19.371666,0,0,-19.371666,327.656,124.58467)"/>
<symbol id="font_0_9">
<path d="M .30100004 .38100005 C .37900005 .41900004 .42900003 .46600003 .42900003 .535 C .42900003 .632 .32800005 .684 .23100002 .684 C .12100001 .684 .031 .612 .031 .517 C .031 .47000004 .053000008 .43600003 .070999998 .41600005 C .089 .39500005 .096 .39100004 .155 .35600005 C .09900001 .33200003 0 .27800004 0 .17300001 C 0 .062000008 .11500001 0 .22900002 0 C .35600005 0 .46 .08100001 .46 .18900001 C .46 .25500003 .42100004 .31100003 .36300005 .34500004 C .35000003 .35300002 .31500004 .37300004 .30100004 .38100005 M .138 .47600005 C .112 .49100004 .08400001 .518 .08400001 .555 C .08400001 .61800006 .157 .65500006 .22900002 .65500006 C .30700005 .65500006 .37600003 .606 .37600003 .535 C .37600003 .44600005 .272 .40100003 .27 .40100003 C .26800005 .40100003 .26600004 .40200005 .25900004 .40600003 L .138 .47600005 M .187 .337 L .32400004 .25800003 C .35000003 .243 .40000005 .213 .40000005 .154 C .40000005 .079 .31700004 .032 .23100002 .032 C .139 .032 .060000007 .091000009 .060000007 .17300001 C .060000007 .24700001 .11500001 .30400003 .187 .337 Z "/>
</symbol>
<use xlink:href="#font_0_9" transform="matrix(19.371666,0,0,-19.371666,373.64607,263.48466)"/>
<symbol id="font_0_a">
<path d="M .36400003 .31800003 C .36400003 .07 .24100001 .032 .18100001 .032 C .15900001 .032 .106000009 .034 .078999999 .065000008 C .120000008 .069000009 .122999999 .10300001 .122999999 .11200001 C .122999999 .13700001 .106000009 .15900001 .076000008 .15900001 C .046 .15900001 .028 .139 .028 .11000001 C .028 .042000005 .08500001 0 .18200001 0 C .32500003 0 .46 .135 .46 .34900005 C .46 .597 .35000003 .684 .233 .684 C .2 .684 .131 .679 .074 .623 C .040000004 .59000006 0 .551 0 .46100004 C 0 .33400003 .100999999 .24000001 .21800001 .24000001 C .29800005 .24000001 .34100003 .293 .36400003 .33800004 L .36400003 .31800003 M .223 .268 C .184 .268 .147 .28100003 .119 .32700003 C .096 .36400003 .096 .40600003 .096 .46100004 C .096 .519 .096 .559 .125 .59900006 C .149 .634 .18200001 .65500006 .23400001 .65500006 C .28500004 .65500006 .31500004 .623 .33100004 .597 C .35800005 .555 .36100004 .48500005 .36100004 .45000003 C .36100004 .32000003 .286 .268 .223 .268 Z "/>
</symbol>
<use xlink:href="#font_0_a" transform="matrix(19.371666,0,0,-19.371666,256.79328,371.5152)"/>
<symbol id="font_0_1">
<path d="M .46400006 .33900003 C .46400006 .44900004 .45100004 .528 .40500004 .598 C .374 .644 .31200005 .684 .23200001 .684 C 0 .684 0 .41100005 0 .33900003 C 0 .26700003 0 0 .23200001 0 C .46400006 0 .46400006 .26700003 .46400006 .33900003 M .23200001 .028 C .186 .028 .125 .055 .105000007 .13700001 C .091000009 .19600001 .091000009 .27800004 .091000009 .35200004 C .091000009 .42500005 .091000009 .50100007 .106000009 .556 C .127 .635 .19100002 .656 .23200001 .656 C .286 .656 .338 .623 .356 .565 C .37200005 .51100006 .37300004 .43900005 .37300004 .35200004 C .37300004 .27800004 .37300004 .20400001 .36 .141 C .34000004 .050000006 .272 .028 .23200001 .028 Z "/>
</symbol>
<use xlink:href="#font_0_2" transform="matrix(19.371666,0,0,-19.371666,111.24206,316.00834)"/>
<use xlink:href="#font_0_1" transform="matrix(19.371666,0,0,-19.371666,121.179729,316.39576)"/>
<use xlink:href="#font_0_2" transform="matrix(19.371666,0,0,-19.371666,120.0615,234.43334)"/>
<use xlink:href="#font_0_2" transform="matrix(19.371666,0,0,-19.371666,131.10335,234.43334)"/>
<use xlink:href="#font_0_2" transform="matrix(19.371666,0,0,-19.371666,243.52538,130.81113)"/>
<use xlink:href="#font_0_3" transform="matrix(19.371666,0,0,-19.371666,253.67613,130.81113)"/>
<use xlink:href="#font_0_2" transform="matrix(19.371666,0,0,-19.371666,349.35038,192.54448)"/>
<use xlink:href="#font_0_4" transform="matrix(19.371666,0,0,-19.371666,359.3268,192.93192)"/>
<use xlink:href="#font_0_2" transform="matrix(19.371666,0,0,-19.371666,314.07817,320.41944)"/>
<use xlink:href="#font_0_5" transform="matrix(19.371666,0,0,-19.371666,323.764,320.41944)"/>
<use xlink:href="#font_0_2" transform="matrix(19.371666,0,0,-19.371666,183.9976,344.66947)"/>
<use xlink:href="#font_0_6" transform="matrix(19.371666,0,0,-19.371666,194.14836,345.0569)"/>
<use xlink:href="#font_0_2" transform="matrix(19.371666,0,0,-19.371666,243.52538,249.86945)"/>
<use xlink:href="#font_0_7" transform="matrix(19.371666,0,0,-19.371666,253.50179,250.25688)"/>
</g>
</svg>
