<?xml version="1.0" encoding="UTF-8" standalone="no"?>
<!DOCTYPE svg PUBLIC "-//W3C//DTD SVG 1.1//EN" "http://www.w3.org/Graphics/SVG/1.1/DTD/svg11.dtd">
<svg xmlns="http://www.w3.org/2000/svg" xmlns:xlink="http://www.w3.org/1999/xlink" version="1.1" width="412.20555pt" height="411.66389pt" viewBox="0 0 412.20555 411.66389">
<g enable-background="new">
<path transform="matrix(2.7777777,0,0,-2.7777777,205.83055,205.83335)" stroke-width=".79701" stroke-linecap="butt" stroke-miterlimit="10" stroke-linejoin="miter" fill="none" stroke="#000000" d="M 73.70186 0 C 73.70186 40.70493 40.70493 73.70186 0 73.70186 C -40.70493 73.70186 -73.70186 40.70493 -73.70186 0 C -73.70186 -40.70493 -40.70493 -73.70186 0 -73.70186 C 40.70493 -73.70186 73.70186 -40.70493 73.70186 0 Z M 0 0 "/>
<path transform="matrix(2.7777777,0,0,-2.7777777,205.83055,205.83335)" stroke-width=".79701" stroke-linecap="butt" stroke-miterlimit="10" stroke-linejoin="miter" fill="none" stroke="#000000" d="M 70.49467 21.55266 L 35.73886 64.47351 "/>
<path transform="matrix(2.7777777,0,0,-2.7777777,205.83055,205.83335)" stroke-width=".79701" stroke-linecap="butt" stroke-miterlimit="10" stroke-linejoin="miter" fill="none" stroke="#000000" d="M 70.49467 21.55266 L -53.91257 50.2749 "/>
<path transform="matrix(2.7777777,0,0,-2.7777777,205.83055,205.83335)" stroke-width=".79701" stroke-linecap="butt" stroke-miterlimit="10" stroke-linejoin="miter" fill="none" stroke="#000000" d="M 70.49467 21.55266 L -72.80844 -11.53159 "/>
<path transform="matrix(2.7777777,0,0,-2.7777777,205.83055,205.83335)" stroke-width=".79701" stroke-linecap="butt" stroke-miterlimit="10" stroke-linejoin="miter" fill="none" stroke="#000000" d="M 70.49467 21.55266 L -16.58205 -71.82646 "/>
<path transform="matrix(2.7777777,0,0,-2.7777777,205.83055,205.83335)" stroke-width=".79701" stroke-linecap="butt" stroke-miterlimit="10" stroke-linejoin="miter" fill="none" stroke="#000000" d="M 70.49467 21.55266 L 61.11366 -41.2212 "/>
<path transform="matrix(2.7777777,0,0,-2.7777777,205.83055,205.83335)" stroke-width=".79701" stroke-linecap="butt" stroke-miterlimit="10" stroke-linejoin="miter" fill="none" stroke="#000000" d="M 35.73886 64.47351 L -53.91257 50.2749 "/>
<path transform="matrix(2.7777777,0,0,-2.7777777,205.83055,205.83335)" stroke-width=".79701" stroke-linecap="butt" stroke-miterlimit="10" stroke-linejoin="miter" fill="none" stroke="#000000" d="M 35.73886 64.47351 L -72.80844 -11.53159 "/>
<path transform="matrix(2.7777777,0,0,-2.7777777,205.83055,205.83335)" stroke-width=".79701" stroke-linecap="butt" stroke-miterlimit="10" stroke-linejoin="miter" fill="none" stroke="#000000" d="M 35.73886 64.47351 L -16.58205 -71.82646 "/>
<path transform="matrix(2.7777777,0,0,-2.7777777,205.83055,205.83335)" stroke-width=".79701" stroke-linecap="butt" stroke-miterlimit="10" stroke-linejoin="miter" fill="none" stroke="#000000" d="M 35.73886 64.47351 L 61.11366 -41.2212 "/>
<path transform="matrix(2.7777777,0,0,-2.7777777,205.83055,205.83335)" stroke-width=".79701" stroke-linecap="butt" stroke-miterlimit="10" stroke-linejoin="miter" fill="none" stroke="#000000" d="M -53.91257 50.2749 L -72.80844 -11.53159 "/>
<path transform="matrix(2.7777777,0,0,-2.7777777,205.83055,205.83335)" stroke-width=".79701" stroke-linecap="butt" stroke-miterlimit="10" stroke-linejoin="miter" fill="none" stroke="#000000" d="M -53.91257 50.2749 L -16.58205 -71.82646 "/>
<path transform="matrix(2.7777777,0,0,-2.7777777,205.83055,205.83335)" stroke-width=".79701" stroke-linecap="butt" stroke-miterlimit="10" stroke-linejoin="miter" fill="none" stroke="#000000" d="M -53.91257 50.2749 L 61.11366 -41.2212 "/>
<path transform="matrix(2.7777777,0,0,-2.7777777,205.83055,205.83335)" stroke-width=".79701" stroke-linecap="butt" stroke-miterlimit="10" stroke-linejoin="miter" fill="none" stroke="#000000" d="M -72.80844 -11.53159 L -16.58205 -71.82646 "/>
<path transform="matrix(2.7777777,0,0,-2.7777777,205.83055,205.83335)" stroke-width=".79701" stroke-linecap="butt" stroke-miterlimit="10" stroke-linejoin="miter" fill="none" stroke="#000000" d="M -72.80844 -11.53159 L 61.11366 -41.2212 "/>
<path transform="matrix(2.7777777,0,0,-2.7777777,205.83055,205.83335)" stroke-width=".79701" stroke-linecap="butt" stroke-miterlimit="10" stroke-linejoin="miter" fill="none" stroke="#000000" d="M -16.58205 -71.82646 L 61.11366 -41.2212 "/>
<symbol id="font_0_3">
<path d="M .49800004 .193 L .45600004 .193 C .453 .17400001 .44300003 .112 .427 .102000009 C .41900004 .096 .33500005 .096 .32 .096 L .124 .096 C .19000001 .14500001 .264 .201 .324 .24100001 C .41399998 .303 .49800004 .36100004 .49800004 .467 C .49800004 .595 .37700004 .666 .23400001 .666 C .09900001 .666 0 .588 0 .49 C 0 .43800003 .044 .42900003 .058 .42900003 C .08500001 .42900003 .117 .44700004 .117 .48800005 C .117 .52400007 .091000009 .544 .060000004 .54700008 C .088 .592 .14600002 .62200006 .21300002 .62200006 C .31 .62200006 .39100004 .564 .39100004 .46600003 C .39100004 .38200004 .333 .31800003 .25599999 .25300003 L .012000002 .046000005 C .0019999967 .037 .001000002 .037 0 .030000002 L 0 0 L .46500004 0 L .49800004 .193 Z "/>
</symbol>
<symbol id="font_0_6">
<path d="M .105000007 .573 C .158 .56000009 .203 .56000009 .214 .56000009 C .282 .56000009 .33200003 .58000007 .35800005 .59400007 C .38200004 .60600009 .45 .64900007 .45 .67100009 C .45 .68600007 .439 .688 .436 .688 C .43400003 .688 .43199999 .688 .421 .683 C .38300003 .67 .32100005 .656 .255 .656 C .198 .656 .143 .66600009 .09 .6840001 C .078999999 .688 .07700001 .688 .075 .688 C .061000006 .688 .061000006 .67600008 .061000006 .66 L .061000006 .36000005 C .061000006 .34300003 .061000006 .33000005 .08 .33000005 C .091000009 .33000005 .09200001 .33200003 .100999999 .34300003 C .139 .38700003 .19200002 .40900005 .26 .40900005 C .31800003 .40900005 .35000003 .37500004 .36400003 .35400004 C .38700003 .32000003 .39200003 .27500005 .39200003 .22700002 C .39200003 .185 .388 .12900001 .34900005 .09 C .30400003 .044000005 .24700003 .041 .22500001 .041 C .16000001 .041 .087 .069000009 .055999996 .128 C .098000008 .13100001 .112 .16100002 .112 .184 C .112 .216 .088 .24000001 .055999996 .24000001 C .033999996 .24000001 0 .22700002 0 .18100001 C 0 .083000008 .096 0 .22700002 0 C .376 0 .49800004 .1 .49800004 .224 C .49800004 .33700005 .40100003 .44200004 .26200003 .44200004 C .19900002 .44200004 .148 .42600004 .105000007 .39300005 L .105000007 .573 Z "/>
</symbol>
<use xlink:href="#font_0_3" transform="matrix(13.836944,0,0,-13.836944,209.95636,148.87223)"/>
<use xlink:href="#font_0_6" transform="matrix(13.836944,0,0,-13.836944,219.37932,149.17664)"/>
<use xlink:href="#font_0_3" transform="matrix(13.836944,0,0,-13.836944,360.02024,91.55002)"/>
<symbol id="font_0_8">
<path d="M .528 .62200006 C .537 .63100007 .537 .633 .53800007 .6380001 L .53800007 .66600009 L .296 .66600009 C .27 .66600009 .12400001 .67 .106000009 .67300006 C .083000008 .67800006 .082 .688 .08 .6980001 L .038000004 .6980001 L 0 .47300006 L .04200001 .47300006 C .044 .48800005 .055000009 .55300006 .07200001 .56400009 C .07800001 .56900009 .17200002 .57000008 .187 .57000008 L .425 .57000008 C .38300003 .521 .32900004 .46700005 .29000003 .41800005 C .171 .26600004 .15600002 .122 .15600002 .061000006 C .15600002 .006000001 .19100002 0 .20900002 0 C .26200003 0 .26200003 .051000004 .26200003 .063 L .26200003 .083000008 C .26200003 .261 .3 .37100003 .36 .43700005 L .528 .62200006 Z "/>
</symbol>
<use xlink:href="#font_0_3" transform="matrix(13.836944,0,0,-13.836944,287.7536,216.43334)"/>
<use xlink:href="#font_0_8" transform="matrix(13.836944,0,0,-13.836944,297.25959,216.73775)"/>
<symbol id="font_0_2">
<path d="M .25500003 .63600006 C .25500003 .666 .252 .666 .21900001 .666 C .148 .60200008 .037 .60200008 .017000005 .60200008 L 0 .60200008 L 0 .558 L .017000005 .558 C .040000008 .558 .105000007 .56100007 .16300002 .586 L .16300002 .086 C .16300002 .055000005 .16300002 .044000005 .056999998 .044000005 L .0069999995 .044000005 L .0069999995 0 C .062000008 .004 .151 .004 .20900002 .004 C .26700003 .004 .356 .004 .411 0 L .411 .044000005 L .361 .044000005 C .25500003 .044000005 .25500003 .055000005 .25500003 .086 L .25500003 .63600006 Z "/>
</symbol>
<symbol id="font_0_7">
<path d="M .106 .35000003 C .107 .39600004 .108 .47500003 .144 .54 C .17300001 .59400007 .238 .65000006 .331 .65000006 C .35 .65000006 .395 .64800009 .42499999 .6240001 C .409 .62000009 .38300003 .605 .38300003 .57100006 C .38300003 .53900006 .407 .518 .43600003 .518 C .45300005 .518 .489 .527 .489 .57400009 C .489 .628 .451 .688 .33 .688 C .15799999 .688 0 .54700008 0 .34000004 C 0 .101 .117000009 0 .263 0 C .36200003 0 .409 .037 .443 .065000008 C .507 .118 .52000007 .177 .52000007 .22700002 C .52000007 .28800003 .50000008 .33700005 .44799999 .38300006 C .404 .42300005 .358 .45000006 .271 .45000006 C .213 .45000006 .148 .42200003 .106 .35000003 M .263 .041 C .109000008 .041 .109000008 .207 .109000008 .24900002 C .109000008 .32600004 .164 .41600005 .269 .41600005 C .32 .41600005 .352 .40300004 .38300003 .36300005 C .41300003 .32600004 .414 .28400005 .414 .22800002 C .414 .17 .414 .13200002 .382 .092 C .354 .059 .319 .041 .263 .041 Z "/>
</symbol>
<use xlink:href="#font_0_2" transform="matrix(13.836944,0,0,-13.836944,351.93699,173.44167)"/>
<use xlink:href="#font_0_7" transform="matrix(13.836944,0,0,-13.836944,360.48826,173.74608)"/>
<symbol id="font_0_4">
<path d="M .25 .35300005 C .342 .35300005 .403 .29600004 .403 .19700001 C .403 .095000009 .34 .041 .25100003 .041 C .24000001 .041 .121 .041 .07 .093 C .11100001 .09900001 .123 .13000001 .123 .154 C .123 .19100002 .095000009 .215 .062 .215 C .030000002 .215 0 .194 0 .15200001 C 0 .048 .11800001 0 .254 0 C .418 0 .52000007 .09900001 .52000007 .19600001 C .52000007 .27800004 .447 .34800003 .333 .37400005 C .45300005 .41300006 .48499999 .48900003 .48499999 .545 C .48499999 .62700006 .38300003 .688 .257 .688 C .134 .688 .034999998 .63600006 .034999998 .54600009 C .034999998 .49900005 .07300001 .48700006 .092 .48700006 C .121 .48700006 .14900002 .508 .14900002 .544 C .14900002 .56700006 .137 .595 .101 .6010001 C .144 .647 .23300001 .65000006 .254 .65000006 C .327 .65000006 .379 .61300006 .379 .545 C .379 .48700006 .34100003 .39600004 .236 .39000006 C .208 .38900004 .204 .38800005 .178 .38700003 C .167 .38600005 .15600002 .38500003 .15600002 .37000004 C .15600002 .35300005 .16600001 .35300005 .18399999 .35300005 L .25 .35300005 Z "/>
</symbol>
<use xlink:href="#font_0_4" transform="matrix(13.836944,0,0,-13.836944,223.11249,198.92386)"/>
<use xlink:href="#font_0_2" transform="matrix(13.836944,0,0,-13.836944,233.40718,198.61945)"/>
<use xlink:href="#font_0_6" transform="matrix(13.836944,0,0,-13.836944,65.21748,339.57386)"/>
<symbol id="font_0_1">
<path d="M .522 .34200005 C .522 .41400004 .522 .688 .261 .688 C 0 .688 0 .41400004 0 .34200005 C 0 .26900003 0 0 .261 0 C .522 0 .522 .26900003 .522 .34200005 M .261 .033000005 C .224 .033000005 .14000002 .046000005 .115 .147 C .101 .201 .1 .272 .1 .35400004 C .1 .42800004 .1 .49700005 .116000007 .554 C .141 .6380001 .21800003 .65500006 .261 .65500006 C .33500005 .65500006 .388 .61700007 .40800003 .54700008 C .42200006 .49600006 .42200006 .41300006 .42200006 .35400004 C .42200006 .286 .42200006 .20500002 .40700004 .14500001 C .381 .048 .30100004 .033000005 .261 .033000005 Z "/>
</symbol>
<use xlink:href="#font_0_4" transform="matrix(13.836944,0,0,-13.836944,136.10416,181.93498)"/>
<use xlink:href="#font_0_1" transform="matrix(13.836944,0,0,-13.836944,145.51329,181.93498)"/>
<use xlink:href="#font_0_8" transform="matrix(13.836944,0,0,-13.836944,192.22829,73.42941)"/>
<use xlink:href="#font_0_2" transform="matrix(13.836944,0,0,-13.836944,253.67035,85.408329)"/>
<use xlink:href="#font_0_4" transform="matrix(13.836944,0,0,-13.836944,262.2216,85.71274)"/>
<use xlink:href="#font_0_3" transform="matrix(13.836944,0,0,-13.836944,285.70359,150.92224)"/>
<use xlink:href="#font_0_7" transform="matrix(13.836944,0,0,-13.836944,294.97438,151.22666)"/>
<use xlink:href="#font_0_3" transform="matrix(13.836944,0,0,-13.836944,70.74527,243.04723)"/>
<use xlink:href="#font_0_2" transform="matrix(13.836944,0,0,-13.836944,80.88775,243.04723)"/>
<symbol id="font_0_a">
<path d="M .414 .34000004 C .414 .27700005 .41 .201 .37600003 .142 C .343 .08400001 .284 .041 .20300001 .041 C .192 .041 .13100001 .041 .096999999 .065000008 C .122 .072000008 .137 .091000009 .137 .117000009 C .137 .149 .113 .17 .084 .17 C .066999997 .17 .031000004 .16100002 .031000004 .11400001 C .031000004 0 .178 0 .20500002 0 C .373 0 .52000007 .143 .52000007 .35000003 C .52000007 .59200009 .402 .688 .264 .688 C .164 .688 .115 .65300008 .074999999 .619 C .012999997 .568 0 .513 0 .46200005 C 0 .40500004 .016999998 .35400004 .071 .30700005 C .11800001 .26500003 .164 .23900001 .24900002 .23900001 C .29 .23900001 .36200003 .25300003 .414 .34000004 M .25100003 .27300004 C .211 .27300004 .17300001 .28000004 .137 .32500003 C .107 .36200003 .106 .40300004 .106 .46200005 C .106 .53400006 .109000008 .56400009 .14700002 .60400006 C .162 .62100008 .192 .65000006 .264 .65000006 C .411 .65000006 .411 .48500005 .411 .44200004 C .411 .35900004 .352 .27300004 .25100003 .27300004 Z "/>
</symbol>
<use xlink:href="#font_0_3" transform="matrix(13.836944,0,0,-13.836944,169.01192,238.95278)"/>
<use xlink:href="#font_0_a" transform="matrix(13.836944,0,0,-13.836944,178.28267,239.25719)"/>
<use xlink:href="#font_0_3" transform="matrix(13.836944,0,0,-13.836944,89.170269,134.54444)"/>
<use xlink:href="#font_0_4" transform="matrix(13.836944,0,0,-13.836944,98.441028,134.84885)"/>
<use xlink:href="#font_0_2" transform="matrix(13.836944,0,0,-13.836944,200.43979,331.07777)"/>
<use xlink:href="#font_0_a" transform="matrix(13.836944,0,0,-13.836944,208.99102,331.38218)"/>
<use xlink:href="#font_0_3" transform="matrix(13.836944,0,0,-13.836944,156.72859,322.8889)"/>
<use xlink:href="#font_0_1" transform="matrix(13.836944,0,0,-13.836944,165.98552,323.1933)"/>
<use xlink:href="#font_0_2" transform="matrix(13.836944,0,0,-13.836944,259.81199,339.26945)"/>
<use xlink:href="#font_0_1" transform="matrix(13.836944,0,0,-13.836944,268.3494,339.57386)"/>
<use xlink:href="#font_0_2" transform="matrix(13.836944,0,0,-13.836944,178.537,28.08612)"/>
<symbol id="font_0_9">
<path d="M .349 .38300006 C .452 .42600004 .48499999 .47900004 .48499999 .536 C .48499999 .64000007 .37 .688 .261 .688 C .137 .688 .034999998 .61800006 .034999998 .518 C .034999998 .42600004 .114 .38500003 .16600001 .35800005 C .059999996 .31700004 0 .25800003 0 .17600002 C 0 .056 .13300002 0 .259 0 C .39900003 0 .52000007 .075 .52000007 .193 C .52000007 .30200003 .416 .35300005 .349 .38300006 M .153 .48500005 C .11000001 .507 .096999999 .53300008 .096999999 .55700007 C .096999999 .62100008 .17899999 .65000006 .259 .65000006 C .33900003 .65000006 .423 .61100009 .423 .535 C .423 .44700004 .30900003 .40600003 .308 .40600003 C .307 .40600003 .306 .40600003 .297 .41100005 L .153 .48500005 M .20899999 .33600004 L .36400003 .25700004 C .4 .238 .451 .21100001 .451 .157 C .451 .076000008 .35 .041 .261 .041 C .16999999 .041 .069 .086 .069 .177 C .069 .27600003 .17699999 .32200004 .20899999 .33600004 Z "/>
</symbol>
<use xlink:href="#font_0_9" transform="matrix(13.836944,0,0,-13.836944,337.3486,106.187747)"/>
<use xlink:href="#font_0_4" transform="matrix(13.836944,0,0,-13.836944,394.67085,236.18497)"/>
<use xlink:href="#font_0_2" transform="matrix(13.836944,0,0,-13.836944,304.85087,296.275)"/>
<use xlink:href="#font_0_9" transform="matrix(13.836944,0,0,-13.836944,313.40214,296.5794)"/>
<symbol id="font_0_5">
<path d="M .554 .163 L .554 .20700002 L .42900003 .20700002 L .42900003 .647 C .42900003 .671 .42800004 .67700007 .40200005 .67700007 C .38200004 .67700007 .38100005 .67600008 .37000004 .66200008 L 0 .20700002 L 0 .163 L .33300004 .163 L .33300004 .085 C .33300004 .054 .33300004 .044000005 .24600002 .044000005 L .21100003 .044000005 L .21100003 0 C .25800003 .002 .323 .004 .38100005 .004 C .43900005 .004 .503 .002 .551 0 L .551 .044000005 L .51600006 .044000005 C .42900003 .044000005 .42900003 .054 .42900003 .085 L .42900003 .163 L .554 .163 M .34100003 .569 L .34100003 .20700002 L .047000007 .20700002 L .34100003 .569 Z "/>
</symbol>
<use xlink:href="#font_0_5" transform="matrix(13.836944,0,0,-13.836944,275.69673,382.25834)"/>
<use xlink:href="#font_0_2" transform="matrix(13.836944,0,0,-13.836944,89.889789,306.5111)"/>
<use xlink:href="#font_0_2" transform="matrix(13.836944,0,0,-13.836944,99.31275,306.5111)"/>
<use xlink:href="#font_0_7" transform="matrix(13.836944,0,0,-13.836944,13.884728,161.45998)"/>
<use xlink:href="#font_0_2" transform="matrix(13.836944,0,0,-13.836944,48.94534,167.29723)"/>
<use xlink:href="#font_0_3" transform="matrix(13.836944,0,0,-13.836944,57.648778,167.29723)"/>
<use xlink:href="#font_0_2" transform="matrix(13.836944,0,0,-13.836944,292.56755,97.69168)"/>
<use xlink:href="#font_0_5" transform="matrix(13.836944,0,0,-13.836944,300.88359,97.69168)"/>
<use xlink:href="#font_0_2" transform="matrix(13.836944,0,0,-13.836944,330.4425,269.65834)"/>
<use xlink:href="#font_0_8" transform="matrix(13.836944,0,0,-13.836944,339.229,269.96275)"/>
<use xlink:href="#font_0_3" transform="matrix(13.836944,0,0,-13.836944,240.66747,265.56666)"/>
<use xlink:href="#font_0_9" transform="matrix(13.836944,0,0,-13.836944,249.93822,265.87107)"/>
<use xlink:href="#font_0_a" transform="matrix(13.836944,0,0,-13.836944,370.10694,222.87941)"/>
<use xlink:href="#font_0_3" transform="matrix(13.836944,0,0,-13.836944,64.60361,212.3361)"/>
<use xlink:href="#font_0_3" transform="matrix(13.836944,0,0,-13.836944,74.026569,212.3361)"/>
<use xlink:href="#font_0_3" transform="matrix(13.836944,0,0,-13.836944,134.20915,112.024997)"/>
<use xlink:href="#font_0_5" transform="matrix(13.836944,0,0,-13.836944,143.24469,112.024997)"/>
<use xlink:href="#font_0_2" transform="matrix(13.836944,0,0,-13.836944,347.84257,150.92224)"/>
<use xlink:href="#font_0_6" transform="matrix(13.836944,0,0,-13.836944,356.546,151.22666)"/>
</g>
</svg>
