<svg xmlns="http://www.w3.org/2000/svg" xmlns:xlink="http://www.w3.org/1999/xlink" xmlns:inkscape="http://www.inkscape.org/namespaces/inkscape" version="1.1" width="347.032" height="181.835" viewBox="0 0 347.032 181.835">
<defs>
<clipPath id="clip_0">
<path transform="matrix(1,0,0,-1,64.668,139.11602)" d="M28.3468 0C28.3468 15.6557 15.6557 28.3468 0 28.3468-15.6557 28.3468-28.3468 15.6557-28.3468 0-28.3468-15.6557-15.6557-28.3468 0-28.3468 15.6557-28.3468 28.3468-15.6557 28.3468 0ZM0 0"/>
</clipPath>
</defs>
<path transform="matrix(1,0,0,-1,64.668,42.71901)" stroke-width=".3985" stroke-linecap="butt" stroke-miterlimit="10" stroke-linejoin="miter" fill="none" stroke="#000000" d="M-56.69362-42.5202V42.5202H99.21382V-42.5202ZM99.21382 42.5202"/>
<text xml:space="preserve" transform="matrix(1 0 -0 1 0 181.835)" font-size="9.9626" font-family="CMMI10" font-style="italic"><tspan y="-171.308" x="132.258">X</tspan></text>
<text xml:space="preserve" transform="matrix(1 0 -0 1 0 181.835)" font-size="9.9626" font-family="CMSY10" font-style="italic"><tspan y="-171.308" x="143.51575">&#x222a;</tspan></text>
<text xml:space="preserve" transform="matrix(1 0 -0 1 0 181.835)" font-size="9.9626" font-family="CMMI10" font-style="italic"><tspan y="-171.308" x="152.3725">Y</tspan></text>
<path transform="matrix(1,0,0,-1,64.668,42.71901)" d="M28.3468 0C28.3468 15.6557 15.6557 28.3468 0 28.3468-15.6557 28.3468-28.3468 15.6557-28.3468 0-28.3468-15.6557-15.6557-28.3468 0-28.3468 15.6557-28.3468 28.3468-15.6557 28.3468 0ZM0 0" fill="#bfbfbf"/>
<path transform="matrix(1,0,0,-1,64.668,42.71901)" d="M70.867 0C70.867 15.6557 58.17592 28.3468 42.5202 28.3468 26.86449 28.3468 14.17339 15.6557 14.17339 0 14.17339-15.6557 26.86449-28.3468 42.5202-28.3468 58.17592-28.3468 70.867-15.6557 70.867 0ZM42.5202 0" fill="#bfbfbf"/>
<path transform="matrix(1,0,0,-1,64.668,42.71901)" stroke-width=".3985" stroke-linecap="butt" stroke-miterlimit="10" stroke-linejoin="miter" fill="none" stroke="#000000" d="M28.3468 0C28.3468 15.6557 15.6557 28.3468 0 28.3468-15.6557 28.3468-28.3468 15.6557-28.3468 0-28.3468-15.6557-15.6557-28.3468 0-28.3468 15.6557-28.3468 28.3468-15.6557 28.3468 0ZM0 0"/>
<text xml:space="preserve" transform="matrix(1 0 -0 1 -.0000038146974 181.83502)" font-size="9.9626" font-family="CMMI10" font-style="italic"><tspan y="-135.712" x="60.15">X</tspan></text>
<path transform="matrix(1,0,0,-1,64.668,42.71901)" stroke-width=".3985" stroke-linecap="butt" stroke-miterlimit="10" stroke-linejoin="miter" fill="none" stroke="#000000" d="M70.867 0C70.867 15.6557 58.17592 28.3468 42.5202 28.3468 26.86449 28.3468 14.17339 15.6557 14.17339 0 14.17339-15.6557 26.86449-28.3468 42.5202-28.3468 58.17592-28.3468 70.867-15.6557 70.867 0ZM42.5202 0"/>
<text xml:space="preserve" transform="matrix(1 0 -0 1 -.0000076293949 181.83502)" font-size="9.9626" font-family="CMMI10" font-style="italic"><tspan y="-135.712" x="103.189">Y</tspan></text>
<path transform="matrix(1,0,0,-1,64.668,139.11602)" stroke-width=".3985" stroke-linecap="butt" stroke-miterlimit="10" stroke-linejoin="miter" fill="none" stroke="#000000" d="M-56.69362-42.5202V42.5202H99.21382V-42.5202ZM99.21382 42.5202"/>
<text xml:space="preserve" transform="matrix(1 0 -0 1 0 181.83502)" font-size="9.9626" font-family="CMMI10" font-style="italic"><tspan y="-74.911" x="132.258">X</tspan></text>
<text xml:space="preserve" transform="matrix(1 0 -0 1 0 181.83502)" font-size="9.9626" font-family="CMSY10" font-style="italic"><tspan y="-74.911" x="143.51575">&#x2229;</tspan></text>
<text xml:space="preserve" transform="matrix(1 0 -0 1 0 181.83502)" font-size="9.9626" font-family="CMMI10" font-style="italic"><tspan y="-74.911" x="152.3725">Y</tspan></text>
<g clip-path="url(#clip_0)">
<path transform="matrix(1,0,0,-1,64.668,139.11602)" d="M70.867 0C70.867 15.6557 58.17592 28.3468 42.5202 28.3468 26.86449 28.3468 14.17339 15.6557 14.17339 0 14.17339-15.6557 26.86449-28.3468 42.5202-28.3468 58.17592-28.3468 70.867-15.6557 70.867 0ZM42.5202 0" fill="#bfbfbf"/>
</g>
<path transform="matrix(1,0,0,-1,64.668,139.11602)" stroke-width=".3985" stroke-linecap="butt" stroke-miterlimit="10" stroke-linejoin="miter" fill="none" stroke="#000000" d="M28.3468 0C28.3468 15.6557 15.6557 28.3468 0 28.3468-15.6557 28.3468-28.3468 15.6557-28.3468 0-28.3468-15.6557-15.6557-28.3468 0-28.3468 15.6557-28.3468 28.3468-15.6557 28.3468 0ZM0 0"/>
<text xml:space="preserve" transform="matrix(1 0 -0 1 -.0000038146974 181.83502)" font-size="9.9626" font-family="CMMI10" font-style="italic"><tspan y="-39.315" x="60.15">X</tspan></text>
<path transform="matrix(1,0,0,-1,64.668,139.11602)" stroke-width=".3985" stroke-linecap="butt" stroke-miterlimit="10" stroke-linejoin="miter" fill="none" stroke="#000000" d="M70.867 0C70.867 15.6557 58.17592 28.3468 42.5202 28.3468 26.86449 28.3468 14.17339 15.6557 14.17339 0 14.17339-15.6557 26.86449-28.3468 42.5202-28.3468 58.17592-28.3468 70.867-15.6557 70.867 0ZM42.5202 0"/>
<text xml:space="preserve" transform="matrix(1 0 -0 1 -.0000076293949 181.83502)" font-size="9.9626" font-family="CMMI10" font-style="italic"><tspan y="-39.315" x="103.189">Y</tspan></text>
<path transform="matrix(1,0,0,-1,239.844,42.71901)" stroke-width=".3985" stroke-linecap="butt" stroke-miterlimit="10" stroke-linejoin="miter" fill="none" stroke="#000000" d="M-56.69362-42.5202V42.5202H99.21382V-42.5202ZM99.21382 42.5202"/>
<text xml:space="preserve" transform="matrix(1 0 -0 1 0 181.835)" font-size="9.9626" font-family="CMMI10" font-style="italic"><tspan y="-171.308" x="306.327">Y</tspan></text>
<text xml:space="preserve" transform="matrix(1 0 -0 1 0 181.835)" font-size="9.9626" font-family="CMSY10" font-style="italic"><tspan y="-171.308" x="316.53868">&#x2212;</tspan></text>
<text xml:space="preserve" transform="matrix(1 0 -0 1 0 181.835)" font-size="9.9626" font-family="CMMI10" font-style="italic"><tspan y="-171.308" x="326.51124">X</tspan></text>
<path transform="matrix(1,0,0,-1,239.844,42.71901)" d="M70.867 0C70.867 15.6557 58.17592 28.3468 42.5202 28.3468 26.86449 28.3468 14.17339 15.6557 14.17339 0 14.17339-15.6557 26.86449-28.3468 42.5202-28.3468 58.17592-28.3468 70.867-15.6557 70.867 0ZM42.5202 0" fill="#bfbfbf"/>
<path transform="matrix(1,0,0,-1,239.844,42.71901)" d="M28.3468 0C28.3468 15.6557 15.6557 28.3468 0 28.3468-15.6557 28.3468-28.3468 15.6557-28.3468 0-28.3468-15.6557-15.6557-28.3468 0-28.3468 15.6557-28.3468 28.3468-15.6557 28.3468 0ZM0 0" fill="#ffffff"/>
<path transform="matrix(1,0,0,-1,239.844,42.71901)" stroke-width=".3985" stroke-linecap="butt" stroke-miterlimit="10" stroke-linejoin="miter" fill="none" stroke="#000000" d="M28.3468 0C28.3468 15.6557 15.6557 28.3468 0 28.3468-15.6557 28.3468-28.3468 15.6557-28.3468 0-28.3468-15.6557-15.6557-28.3468 0-28.3468 15.6557-28.3468 28.3468-15.6557 28.3468 0ZM0 0"/>
<text xml:space="preserve" transform="matrix(1 0 -0 1 0 181.83502)" font-size="9.9626" font-family="CMMI10" font-style="italic"><tspan y="-135.712" x="235.327">X</tspan></text>
<path transform="matrix(1,0,0,-1,239.844,42.71901)" stroke-width=".3985" stroke-linecap="butt" stroke-miterlimit="10" stroke-linejoin="miter" fill="none" stroke="#000000" d="M70.867 0C70.867 15.6557 58.17592 28.3468 42.5202 28.3468 26.86449 28.3468 14.17339 15.6557 14.17339 0 14.17339-15.6557 26.86449-28.3468 42.5202-28.3468 58.17592-28.3468 70.867-15.6557 70.867 0ZM42.5202 0"/>
<text xml:space="preserve" transform="matrix(1 0 -0 1 0 181.83502)" font-size="9.9626" font-family="CMMI10" font-style="italic"><tspan y="-135.712" x="278.365">Y</tspan></text>
<path transform="matrix(1,0,0,-1,239.844,139.11602)" d="M-56.69362-42.5202V42.5202H99.21382V-42.5202ZM99.21382 42.5202" fill="#bfbfbf"/>
<path transform="matrix(1,0,0,-1,239.844,139.11602)" stroke-width=".3985" stroke-linecap="butt" stroke-miterlimit="10" stroke-linejoin="miter" fill="none" stroke="#000000" d="M-56.69362-42.5202V42.5202H99.21382V-42.5202ZM99.21382 42.5202"/>
<text xml:space="preserve" transform="matrix(1 0 -0 1 0 181.83502)" font-size="9.9626" font-family="CMMI10" font-style="italic"><tspan y="-74.911" x="322.443">X</tspan></text>
<text xml:space="preserve" transform="matrix(1 0 -0 1 0 181.83502)" font-size="6.9738" font-family="CMMI7" font-style="italic"><tspan y="-78.526" x="331.479">c</tspan></text>
<path transform="matrix(1,0,0,-1,239.844,139.11602)" d="M49.6069 0C49.6069 15.6557 36.9158 28.3468 21.2601 28.3468 5.60439 28.3468-7.0867 15.6557-7.0867 0-7.0867-15.6557 5.60439-28.3468 21.2601-28.3468 36.9158-28.3468 49.6069-15.6557 49.6069 0ZM21.2601 0" fill="#ffffff"/>
<path transform="matrix(1,0,0,-1,239.844,139.11602)" stroke-width=".3985" stroke-linecap="butt" stroke-miterlimit="10" stroke-linejoin="miter" fill="none" stroke="#000000" d="M49.6069 0C49.6069 15.6557 36.9158 28.3468 21.2601 28.3468 5.60439 28.3468-7.0867 15.6557-7.0867 0-7.0867-15.6557 5.60439-28.3468 21.2601-28.3468 36.9158-28.3468 49.6069-15.6557 49.6069 0ZM21.2601 0"/>
<text xml:space="preserve" transform="matrix(1 0 -0 1 0 181.83502)" font-size="9.9626" font-family="CMMI10" font-style="italic"><tspan y="-39.315" x="256.586">X</tspan></text>
</svg>
