<?xml version="1.0" encoding="UTF-8" standalone="no"?>
<svg
   xmlns:dc="http://purl.org/dc/elements/1.1/"
   xmlns:cc="http://creativecommons.org/ns#"
   xmlns:rdf="http://www.w3.org/1999/02/22-rdf-syntax-ns#"
   xmlns:svg="http://www.w3.org/2000/svg"
   xmlns="http://www.w3.org/2000/svg"
   viewBox="0 0 368.716 249.70934"
   height="249.70934"
   width="368.716"
   xml:space="preserve"
   id="svg2"
   version="1.1"><metadata
     id="metadata8"><rdf:RDF><cc:Work
         rdf:about=""><dc:format>image/svg+xml</dc:format><dc:type
           rdf:resource="http://purl.org/dc/dcmitype/StillImage" /></cc:Work></rdf:RDF></metadata><defs
     id="defs6"><pattern
       id="pattern28"
       height="4.98138"
       width="4.98138"
       y="0"
       x="0"
       patternUnits="userSpaceOnUse"
       patternTransform="translate(-93.623,-99.611)"><g
         id="g26"><path
           id="path24"
           style="fill:none;stroke:#000000;stroke-opacity:1;stroke-width:0.3985;stroke-linecap:butt;stroke-linejoin:miter;stroke-miterlimit:10;stroke-dasharray:none"
           d="M 0,2.98883 3.08846,-0.09962" /></g></pattern><pattern
       id="pattern38"
       height="4.98138"
       width="4.98138"
       y="0"
       x="0"
       patternUnits="userSpaceOnUse"
       patternTransform="translate(-93.623,-99.611)"><g
         id="g36"><path
           id="path34"
           style="fill:none;stroke:#000000;stroke-opacity:1;stroke-width:0.3985;stroke-linecap:butt;stroke-linejoin:miter;stroke-miterlimit:10;stroke-dasharray:none"
           d="M 0,0 3.08846,3.08846" /></g></pattern><pattern
       id="pattern48"
       height="4.98138"
       width="4.98138"
       y="0"
       x="0"
       patternUnits="userSpaceOnUse"
       patternTransform="translate(-93.623,-99.611)"><g
         id="g46"><path
           id="path44"
           style="fill:none;stroke:#000000;stroke-opacity:1;stroke-width:0.3985;stroke-linecap:butt;stroke-linejoin:miter;stroke-miterlimit:10;stroke-dasharray:none"
           d="M 0,2.98883 3.08846,-0.09962" /></g></pattern><pattern
       id="pattern58"
       height="4.98138"
       width="4.98138"
       y="0"
       x="0"
       patternUnits="userSpaceOnUse"
       patternTransform="translate(-93.623,-99.611)"><g
         id="g56"><path
           id="path54"
           style="fill:none;stroke:#000000;stroke-opacity:1;stroke-width:0.3985;stroke-linecap:butt;stroke-linejoin:miter;stroke-miterlimit:10;stroke-dasharray:none"
           d="M 0,0 3.08846,3.08846" /></g></pattern></defs><g
     transform="matrix(1.3333333,0,0,-1.3333333,0,249.70933)"
     id="g10"><g
       transform="translate(93.623,99.611)"
       id="g12"><g
         id="g14"><g
           id="g16"><g
             id="g18"><path
               id="path20"
               style="fill:none;stroke:#000000;stroke-width:0.79701;stroke-linecap:butt;stroke-linejoin:miter;stroke-miterlimit:10;stroke-dasharray:none;stroke-opacity:1"
               d="M -59.52802,59.52802 V -99.2134 H 138.89876 V 59.52802 Z" /></g><g
             id="g22"><path
               id="path30"
               style="fill:url(#pattern28);fill-opacity:1;fill-rule:nonzero;stroke:#000000;stroke-width:0.79701;stroke-linecap:butt;stroke-linejoin:miter;stroke-miterlimit:10;stroke-dasharray:none;stroke-opacity:1"
               d="m 56.55173,-15.87419 c 0,31.23305 -25.31868,56.55173 -56.55173,56.55173 -31.23305,0 -56.55173,-25.31868 -56.55173,-56.55173 0,-31.23305 25.31868,-56.55174 56.55173,-56.55174 31.23305,0 56.55173,25.31869 56.55173,56.55174 z" /></g><g
             id="g32"><path
               id="path40"
               style="fill:url(#pattern38);fill-opacity:1;fill-rule:nonzero;stroke:#000000;stroke-width:0.79701;stroke-linecap:butt;stroke-linejoin:miter;stroke-miterlimit:10;stroke-dasharray:none;stroke-opacity:1"
               d="m 109.1347,3.96846 c 0,10.95894 -22.20933,19.84267 -49.60668,19.84267 -27.39736,0 -49.60668,-8.88373 -49.60668,-19.84267 0,-10.95892 22.20932,-19.84266 49.60668,-19.84266 27.39735,0 49.60668,8.88374 49.60668,19.84266 z" /></g><g
             id="g42"><path
               id="path50"
               style="fill:url(#pattern48);fill-opacity:1;fill-rule:nonzero;stroke:#000000;stroke-width:0.79701;stroke-linecap:butt;stroke-linejoin:miter;stroke-miterlimit:10;stroke-dasharray:none;stroke-opacity:1"
               d="m 115.08759,-55.55954 c 0,16.43842 -13.32559,29.76401 -29.76401,29.76401 -16.43842,0 -29.76402,-13.32559 -29.76402,-29.76401 0,-16.43842 13.3256,-29.76402 29.76402,-29.76402 16.43842,0 29.76401,13.3256 29.76401,29.76402 z" /></g><g
             id="g52"><path
               id="path60"
               style="fill:url(#pattern58);fill-opacity:1;fill-rule:nonzero;stroke:#000000;stroke-width:0.79701;stroke-linecap:butt;stroke-linejoin:miter;stroke-miterlimit:10;stroke-dasharray:none;stroke-opacity:1"
               d="m 21.82704,-51.59106 c 0,8.76718 -7.10702,15.87419 -15.87419,15.87419 -8.76717,0 -15.87419,-7.10701 -15.87419,-15.87419 0,-8.76719 7.10702,-15.8742 15.87419,-15.8742 8.76717,0 15.87419,7.10701 15.87419,15.8742 z" /></g><g
             id="g62"><g
               transform="translate(-48.726,38.751)"
               id="g64"><g
                 id="g66"><g
                   transform="translate(-44.897,-138.362)"
                   id="g68"><text
                     id="text72"
                     style="font-variant:normal;font-weight:normal;font-size:14.34619999px;font-family:CMR12;-inkscape-font-specification:CMR12;writing-mode:lr-tb;fill:#000000;fill-opacity:1;fill-rule:nonzero;stroke:none"
                     transform="matrix(1,0,0,-1,44.897,138.362)"><tspan
                       id="tspan70"
                       y="0"
                       x="0">Ω</tspan></text>
<g
                     transform="translate(44.897,138.362)"
                     id="g74" /></g></g><g
                 transform="translate(48.726,-38.751)"
                 id="g76" /></g></g><g
             id="g78"><g
               transform="translate(88.279,76.879)"
               id="g80"><g
                 id="g82"><g
                   transform="translate(-181.902,-176.49)"
                   id="g84"><text
                     id="text88"
                     style="font-variant:normal;font-weight:normal;font-size:9.96259975px;font-family:CMMI10;-inkscape-font-specification:CMMI10;writing-mode:lr-tb;fill:#000000;fill-opacity:1;fill-rule:nonzero;stroke:none"
                     transform="matrix(1,0,0,-1,181.902,176.49)"><tspan
                       id="tspan86"
                       y="0"
                       x="0">σ</tspan></text>
<text
                     id="text92"
                     style="font-variant:normal;font-weight:normal;font-size:9.96259975px;font-family:CMR10;-inkscape-font-specification:CMR10;writing-mode:lr-tb;fill:#000000;fill-opacity:1;fill-rule:nonzero;stroke:none"
                     transform="matrix(1,0,0,-1,187.95328,176.49)"><tspan
                       id="tspan90"
                       y="0"
                       x="0">(</tspan></text>
<text
                     id="text96"
                     style="font-variant:normal;font-weight:normal;font-size:9.96259975px;font-family:CMMI10;-inkscape-font-specification:CMMI10;writing-mode:lr-tb;fill:#000000;fill-opacity:1;fill-rule:nonzero;stroke:none"
                     transform="matrix(1,0,0,-1,191.82774,176.49)"><tspan
                       id="tspan94"
                       y="0"
                       x="0">t</tspan></text>
<text
                     id="text100"
                     style="font-variant:normal;font-weight:normal;font-size:6.97380018px;font-family:CMR7;-inkscape-font-specification:CMR7;writing-mode:lr-tb;fill:#000000;fill-opacity:1;fill-rule:nonzero;stroke:none"
                     transform="matrix(1,0,0,-1,195.425,174.995)"><tspan
                       id="tspan98"
                       y="0"
                       x="0">1</tspan></text>
<text
                     id="text104"
                     style="font-variant:normal;font-weight:normal;font-size:9.96259975px;font-family:CMR10;-inkscape-font-specification:CMR10;writing-mode:lr-tb;fill:#000000;fill-opacity:1;fill-rule:nonzero;stroke:none"
                     transform="matrix(1,0,0,-1,199.894,176.49)"><tspan
                       id="tspan102"
                       y="0"
                       x="0">)</tspan></text>
<g
                     transform="translate(181.902,176.49)"
                     id="g106" /></g></g><g
                 transform="translate(-88.279,-76.879)"
                 id="g108" /></g></g><g
             id="g110"><g
               transform="translate(0,39.684)"
               id="g112"><g
                 id="g114" /><g
                 transform="translate(0,-39.684)"
                 id="g116" /></g></g><g
             id="g118"><g
               id="g120"><path
                 id="path122"
                 style="fill:none;stroke:#000000;stroke-width:0.79701;stroke-linecap:butt;stroke-linejoin:miter;stroke-miterlimit:10;stroke-dasharray:none;stroke-opacity:1"
                 d="M 84.76202,81.45361 C 49.47632,84.53647 23.0807,72.22278 3.17358,43.78543" /><g
                 transform="matrix(-0.57347,-0.81921,0.81921,-0.57347,3.17358,43.78545)"
                 id="g124"><g
                   id="g126"><path
                     id="path128"
                     style="fill:none;stroke:#000000;stroke-width:0.6376;stroke-linecap:round;stroke-linejoin:round;stroke-miterlimit:10;stroke-dasharray:none;stroke-opacity:1"
                     d="M -1.55415,2.0722 C -1.42464,1.29512 0,0.1295 0.38852,0 0,-0.1295 -1.42464,-1.29512 -1.55415,-2.0722" /></g></g></g></g><g
             id="g130"><g
               transform="translate(157.728,47.115)"
               id="g132"><g
                 id="g134"><g
                   transform="translate(-251.351,-146.726)"
                   id="g136"><text
                     id="text140"
                     style="font-variant:normal;font-weight:normal;font-size:9.96259975px;font-family:CMMI10;-inkscape-font-specification:CMMI10;writing-mode:lr-tb;fill:#000000;fill-opacity:1;fill-rule:nonzero;stroke:none"
                     transform="matrix(1,0,0,-1,251.351,146.726)"><tspan
                       id="tspan138"
                       y="0"
                       x="0">σ</tspan></text>
<text
                     id="text144"
                     style="font-variant:normal;font-weight:normal;font-size:9.96259975px;font-family:CMR10;-inkscape-font-specification:CMR10;writing-mode:lr-tb;fill:#000000;fill-opacity:1;fill-rule:nonzero;stroke:none"
                     transform="matrix(1,0,0,-1,257.40228,146.726)"><tspan
                       id="tspan142"
                       y="0"
                       x="0">(</tspan></text>
<text
                     id="text148"
                     style="font-variant:normal;font-weight:normal;font-size:9.96259975px;font-family:CMMI10;-inkscape-font-specification:CMMI10;writing-mode:lr-tb;fill:#000000;fill-opacity:1;fill-rule:nonzero;stroke:none"
                     transform="matrix(1,0,0,-1,261.27674,146.726)"><tspan
                       id="tspan146"
                       y="0"
                       x="0">t</tspan></text>
<text
                     id="text152"
                     style="font-variant:normal;font-weight:normal;font-size:6.97380018px;font-family:CMR7;-inkscape-font-specification:CMR7;writing-mode:lr-tb;fill:#000000;fill-opacity:1;fill-rule:nonzero;stroke:none"
                     transform="matrix(1,0,0,-1,264.873,145.232)"><tspan
                       id="tspan150"
                       y="0"
                       x="0">2</tspan></text>
<text
                     id="text156"
                     style="font-variant:normal;font-weight:normal;font-size:9.96259975px;font-family:CMR10;-inkscape-font-specification:CMR10;writing-mode:lr-tb;fill:#000000;fill-opacity:1;fill-rule:nonzero;stroke:none"
                     transform="matrix(1,0,0,-1,269.342,146.726)"><tspan
                       id="tspan154"
                       y="0"
                       x="0">)</tspan></text>
<g
                     transform="translate(251.351,146.726)"
                     id="g158" /></g></g><g
                 transform="translate(-157.728,-47.115)"
                 id="g160" /></g></g><g
             id="g162"><g
               transform="translate(109.133,3.968)"
               id="g164"><g
                 id="g166" /><g
                 transform="translate(-109.133,-3.968)"
                 id="g168" /></g></g><g
             id="g170"><g
               id="g172"><path
                 id="path174"
                 style="fill:none;stroke:#000000;stroke-width:0.79701;stroke-linecap:butt;stroke-linejoin:miter;stroke-miterlimit:10;stroke-dasharray:none;stroke-opacity:1"
                 d="M 165.14201,41.10622 C 154.53474,18.41504 137.61139,6.5894 113.36133,4.49092" /><g
                 transform="matrix(-0.99625,-0.08623,0.08623,-0.99625,113.36133,4.49094)"
                 id="g176"><g
                   id="g178"><path
                     id="path180"
                     style="fill:none;stroke:#000000;stroke-width:0.6376;stroke-linecap:round;stroke-linejoin:round;stroke-miterlimit:10;stroke-dasharray:none;stroke-opacity:1"
                     d="M -1.55415,2.0722 C -1.42464,1.29512 0,0.1295 0.38852,0 0,-0.1295 -1.42464,-1.29512 -1.55415,-2.0722" /></g></g></g></g><g
             id="g182"><g
               transform="translate(157.728,-81.861)"
               id="g184"><g
                 id="g186"><g
                   transform="translate(-251.351,-17.75)"
                   id="g188"><text
                     id="text192"
                     style="font-variant:normal;font-weight:normal;font-size:9.96259975px;font-family:CMMI10;-inkscape-font-specification:CMMI10;writing-mode:lr-tb;fill:#000000;fill-opacity:1;fill-rule:nonzero;stroke:none"
                     transform="matrix(1,0,0,-1,251.351,17.75)"><tspan
                       id="tspan190"
                       y="0"
                       x="0">σ</tspan></text>
<text
                     id="text196"
                     style="font-variant:normal;font-weight:normal;font-size:9.96259975px;font-family:CMR10;-inkscape-font-specification:CMR10;writing-mode:lr-tb;fill:#000000;fill-opacity:1;fill-rule:nonzero;stroke:none"
                     transform="matrix(1,0,0,-1,257.40228,17.75)"><tspan
                       id="tspan194"
                       y="0"
                       x="0">(</tspan></text>
<text
                     id="text200"
                     style="font-variant:normal;font-weight:normal;font-size:9.96259975px;font-family:CMMI10;-inkscape-font-specification:CMMI10;writing-mode:lr-tb;fill:#000000;fill-opacity:1;fill-rule:nonzero;stroke:none"
                     transform="matrix(1,0,0,-1,261.27674,17.75)"><tspan
                       id="tspan198"
                       y="0"
                       x="0">t</tspan></text>
<text
                     id="text204"
                     style="font-variant:normal;font-weight:normal;font-size:6.97380018px;font-family:CMR7;-inkscape-font-specification:CMR7;writing-mode:lr-tb;fill:#000000;fill-opacity:1;fill-rule:nonzero;stroke:none"
                     transform="matrix(1,0,0,-1,264.873,16.256)"><tspan
                       id="tspan202"
                       y="0"
                       x="0">3</tspan></text>
<text
                     id="text208"
                     style="font-variant:normal;font-weight:normal;font-size:9.96259975px;font-family:CMR10;-inkscape-font-specification:CMR10;writing-mode:lr-tb;fill:#000000;fill-opacity:1;fill-rule:nonzero;stroke:none"
                     transform="matrix(1,0,0,-1,269.342,17.75)"><tspan
                       id="tspan206"
                       y="0"
                       x="0">)</tspan></text>
<g
                     transform="translate(251.351,17.75)"
                     id="g210" /></g></g><g
                 transform="translate(-157.728,81.861)"
                 id="g212" /></g></g><g
             id="g214"><g
               transform="translate(115.086,-55.559)"
               id="g216"><g
                 id="g218" /><g
                 transform="translate(-115.086,55.559)"
                 id="g220" /></g></g><g
             id="g222"><g
               id="g224"><path
                 id="path226"
                 style="fill:none;stroke:#000000;stroke-width:0.79701;stroke-linecap:butt;stroke-linejoin:miter;stroke-miterlimit:10;stroke-dasharray:none;stroke-opacity:1"
                 d="m 162.48225,-70.87079 c -11.80752,13.90789 -25.92431,18.95377 -43.17681,15.80898" /><g
                 transform="matrix(-0.98375,-0.17929,0.17929,-0.98375,119.30545,-55.0618)"
                 id="g228"><g
                   id="g230"><path
                     id="path232"
                     style="fill:none;stroke:#000000;stroke-width:0.6376;stroke-linecap:round;stroke-linejoin:round;stroke-miterlimit:10;stroke-dasharray:none;stroke-opacity:1"
                     d="M -1.55415,2.0722 C -1.42464,1.29512 0,0.1295 0.38852,0 0,-0.1295 -1.42464,-1.29512 -1.55415,-2.0722" /></g></g></g></g><g
             id="g234"><g
               transform="translate(-90.303,-81.861)"
               id="g236"><g
                 id="g238"><g
                   transform="translate(-3.32,-17.75)"
                   id="g240"><text
                     id="text244"
                     style="font-variant:normal;font-weight:normal;font-size:9.96259975px;font-family:CMMI10;-inkscape-font-specification:CMMI10;writing-mode:lr-tb;fill:#000000;fill-opacity:1;fill-rule:nonzero;stroke:none"
                     transform="matrix(1,0,0,-1,3.32,17.75)"><tspan
                       id="tspan242"
                       y="0"
                       x="0">σ</tspan></text>
<text
                     id="text248"
                     style="font-variant:normal;font-weight:normal;font-size:9.96259975px;font-family:CMR10;-inkscape-font-specification:CMR10;writing-mode:lr-tb;fill:#000000;fill-opacity:1;fill-rule:nonzero;stroke:none"
                     transform="matrix(1,0,0,-1,9.3712832,17.75)"><tspan
                       id="tspan246"
                       y="0"
                       x="0">(</tspan></text>
<text
                     id="text252"
                     style="font-variant:normal;font-weight:normal;font-size:9.96259975px;font-family:CMMI10;-inkscape-font-specification:CMMI10;writing-mode:lr-tb;fill:#000000;fill-opacity:1;fill-rule:nonzero;stroke:none"
                     transform="matrix(1,0,0,-1,13.245738,17.75)"><tspan
                       id="tspan250"
                       y="0"
                       x="0">t</tspan></text>
<text
                     id="text256"
                     style="font-variant:normal;font-weight:normal;font-size:6.97380018px;font-family:CMR7;-inkscape-font-specification:CMR7;writing-mode:lr-tb;fill:#000000;fill-opacity:1;fill-rule:nonzero;stroke:none"
                     transform="matrix(1,0,0,-1,16.843,16.256)"><tspan
                       id="tspan254"
                       y="0"
                       x="0">4</tspan></text>
<text
                     id="text260"
                     style="font-variant:normal;font-weight:normal;font-size:9.96259975px;font-family:CMR10;-inkscape-font-specification:CMR10;writing-mode:lr-tb;fill:#000000;fill-opacity:1;fill-rule:nonzero;stroke:none"
                     transform="matrix(1,0,0,-1,21.312,17.75)"><tspan
                       id="tspan258"
                       y="0"
                       x="0">)</tspan></text>
<g
                     transform="translate(3.32,17.75)"
                     id="g262" /></g></g><g
                 transform="translate(90.303,81.861)"
                 id="g264" /></g></g><g
             id="g266"><g
               transform="translate(-7.937,-51.591)"
               id="g268"><g
                 id="g270" /><g
                 transform="translate(7.937,51.591)"
                 id="g272" /></g></g><g
             id="g274"><g
               id="g276"><path
                 id="path278"
                 style="fill:none;stroke:#000000;stroke-width:0.79701;stroke-linecap:butt;stroke-linejoin:miter;stroke-miterlimit:10;stroke-dasharray:none;stroke-opacity:1"
                 d="m -72.55122,-70.87079 c 16.79982,18.64084 36.55092,25.04843 60.40245,19.96726" /><g
                 transform="matrix(0.97804,-0.20834,0.20834,0.97804,-12.14877,-50.90353)"
                 id="g280"><g
                   id="g282"><path
                     id="path284"
                     style="fill:none;stroke:#000000;stroke-width:0.6376;stroke-linecap:round;stroke-linejoin:round;stroke-miterlimit:10;stroke-dasharray:none;stroke-opacity:1"
                     d="M -1.55415,2.0722 C -1.42464,1.29512 0,0.1295 0.38852,0 0,-0.1295 -1.42464,-1.29512 -1.55415,-2.0722" /></g></g></g></g><g
             id="g286"><path
               id="path288"
               style="fill:#000000;fill-opacity:1;fill-rule:nonzero;stroke:#000000;stroke-width:0.3985;stroke-linecap:butt;stroke-linejoin:miter;stroke-miterlimit:10;stroke-dasharray:none;stroke-opacity:1"
               d="m 2.09216,-9.92133 c 0,1.15549 -0.93667,2.09218 -2.09216,2.09218 -1.15549,0 -2.09216,-0.93669 -2.09216,-2.09218 0,-1.15548 0.93667,-2.09216 2.09216,-2.09216 1.15549,0 2.09216,0.93668 2.09216,2.09216 z" /></g><g
             id="g290"><path
               id="path292"
               style="fill:#000000;fill-opacity:1;fill-rule:nonzero;stroke:#000000;stroke-width:0.3985;stroke-linecap:butt;stroke-linejoin:miter;stroke-miterlimit:10;stroke-dasharray:none;stroke-opacity:1"
               d="m 21.93483,31.74838 c 0,1.15549 -0.93668,2.09218 -2.09216,2.09218 -1.15549,0 -2.09218,-0.93669 -2.09218,-2.09218 0,-1.15548 0.93669,-2.09218 2.09218,-2.09218 1.15548,0 2.09216,0.9367 2.09216,2.09218 z" /></g><g
             id="g294"><path
               id="path296"
               style="fill:#000000;fill-opacity:1;fill-rule:nonzero;stroke:#000000;stroke-width:0.3985;stroke-linecap:butt;stroke-linejoin:miter;stroke-miterlimit:10;stroke-dasharray:none;stroke-opacity:1"
               d="m -7.82915,11.90572 c 0,1.15548 -0.93669,2.09216 -2.09218,2.09216 -1.15548,0 -2.09216,-0.93668 -2.09216,-2.09216 0,-1.15549 0.93668,-2.09218 2.09216,-2.09218 1.15549,0 2.09218,0.93669 2.09218,2.09218 z" /></g><g
             id="g298"><path
               id="path300"
               style="fill:#000000;fill-opacity:1;fill-rule:nonzero;stroke:#000000;stroke-width:0.3985;stroke-linecap:butt;stroke-linejoin:miter;stroke-miterlimit:10;stroke-dasharray:none;stroke-opacity:1"
               d="m 49.71446,-33.73247 c 0,1.15549 -0.93669,2.09218 -2.09218,2.09218 -1.15548,0 -2.09216,-0.93669 -2.09216,-2.09218 0,-1.15548 0.93668,-2.09218 2.09216,-2.09218 1.15549,0 2.09218,0.9367 2.09218,2.09218 z" /></g><g
             id="g302"><path
               id="path304"
               style="fill:#000000;fill-opacity:1;fill-rule:nonzero;stroke:#000000;stroke-width:0.3985;stroke-linecap:butt;stroke-linejoin:miter;stroke-miterlimit:10;stroke-dasharray:none;stroke-opacity:1"
               d="m 75.51001,-39.68535 c 0,1.15549 -0.93668,2.09218 -2.09216,2.09218 -1.15549,0 -2.09218,-0.93669 -2.09218,-2.09218 0,-1.15549 0.93669,-2.09218 2.09218,-2.09218 1.15548,0 2.09216,0.93669 2.09216,2.09218 z" /></g><g
             id="g306"><path
               id="path308"
               style="fill:#000000;fill-opacity:1;fill-rule:nonzero;stroke:#000000;stroke-width:0.3985;stroke-linecap:butt;stroke-linejoin:miter;stroke-miterlimit:10;stroke-dasharray:none;stroke-opacity:1"
               d="m 81.46288,0 c 0,1.15549 -0.93668,2.09216 -2.09217,2.09216 -1.15548,0 -2.09218,-0.93667 -2.09218,-2.09216 0,-1.15549 0.9367,-2.09216 2.09218,-2.09216 1.15549,0 2.09217,0.93667 2.09217,2.09216 z" /></g><g
             id="g310"><path
               id="path312"
               style="fill:#000000;fill-opacity:1;fill-rule:nonzero;stroke:#000000;stroke-width:0.3985;stroke-linecap:butt;stroke-linejoin:miter;stroke-miterlimit:10;stroke-dasharray:none;stroke-opacity:1"
               d="m -27.67183,-39.68535 c 0,1.15549 -0.93669,2.09218 -2.09217,2.09218 -1.1555,0 -2.09219,-0.93669 -2.09219,-2.09218 0,-1.15549 0.93669,-2.09218 2.09219,-2.09218 1.15548,0 2.09217,0.93669 2.09217,2.09218 z" /></g><g
             id="g314"><path
               id="path316"
               style="fill:#000000;fill-opacity:1;fill-rule:nonzero;stroke:#000000;stroke-width:0.3985;stroke-linecap:butt;stroke-linejoin:miter;stroke-miterlimit:10;stroke-dasharray:none;stroke-opacity:1"
               d="m 2.09216,-59.52802 c 0,1.15549 -0.93667,2.09217 -2.09216,2.09217 -1.15549,0 -2.09216,-0.93668 -2.09216,-2.09217 0,-1.15548 0.93667,-2.09218 2.09216,-2.09218 1.15549,0 2.09216,0.9367 2.09216,2.09218 z" /></g><g
             id="g318"><path
               id="path320"
               style="fill:#000000;fill-opacity:1;fill-rule:nonzero;stroke:#000000;stroke-width:0.3985;stroke-linecap:butt;stroke-linejoin:miter;stroke-miterlimit:10;stroke-dasharray:none;stroke-opacity:1"
               d="m 21.93483,5.95285 c 0,1.15549 -0.93668,2.09216 -2.09216,2.09216 -1.15549,0 -2.09218,-0.93667 -2.09218,-2.09216 0,-1.15549 0.93669,-2.09218 2.09218,-2.09218 1.15548,0 2.09216,0.93669 2.09216,2.09218 z" /></g><g
             id="g322"><path
               id="path324"
               style="fill:#000000;fill-opacity:1;fill-rule:nonzero;stroke:#000000;stroke-width:0.3985;stroke-linecap:butt;stroke-linejoin:miter;stroke-miterlimit:10;stroke-dasharray:none;stroke-opacity:1"
               d="m 51.69885,1.98438 c 0,1.15548 -0.93669,2.09216 -2.09218,2.09216 -1.15548,0 -2.09216,-0.93668 -2.09216,-2.09216 0,-1.15551 0.93668,-2.09217 2.09216,-2.09217 1.15549,0 2.09218,0.93666 2.09218,2.09217 z" /></g><g
             id="g326"><path
               id="path328"
               style="fill:#000000;fill-opacity:1;fill-rule:nonzero;stroke:#000000;stroke-width:0.3985;stroke-linecap:butt;stroke-linejoin:miter;stroke-miterlimit:10;stroke-dasharray:none;stroke-opacity:1"
               d="m 101.30557,-39.68535 c 0,1.15549 -0.93669,2.09218 -2.09217,2.09218 -1.1555,0 -2.09218,-0.93669 -2.09218,-2.09218 0,-1.15549 0.93668,-2.09218 2.09218,-2.09218 1.15548,0 2.09217,0.93669 2.09217,2.09218 z" /></g><g
             id="g330"><path
               id="path332"
               style="fill:#000000;fill-opacity:1;fill-rule:nonzero;stroke:#000000;stroke-width:0.3985;stroke-linecap:butt;stroke-linejoin:miter;stroke-miterlimit:10;stroke-dasharray:none;stroke-opacity:1"
               d="m 93.36859,39.68535 c 0,1.15549 -0.93667,2.09218 -2.09216,2.09218 -1.15549,0 -2.09218,-0.93669 -2.09218,-2.09218 0,-1.15549 0.93669,-2.09218 2.09218,-2.09218 1.15549,0 2.09216,0.93669 2.09216,2.09218 z" /></g><g
             id="g334"><path
               id="path336"
               style="fill:#000000;fill-opacity:1;fill-rule:nonzero;stroke:#000000;stroke-width:0.3985;stroke-linecap:butt;stroke-linejoin:miter;stroke-miterlimit:10;stroke-dasharray:none;stroke-opacity:1"
               d="m -33.62468,15.87419 c 0,1.15549 -0.93669,2.09216 -2.09218,2.09216 -1.15548,0 -2.09218,-0.93667 -2.09218,-2.09216 0,-1.15549 0.9367,-2.09218 2.09218,-2.09218 1.15549,0 2.09218,0.93669 2.09218,2.09218 z" /></g><g
             id="g338"><path
               id="path340"
               style="fill:#000000;fill-opacity:1;fill-rule:nonzero;stroke:#000000;stroke-width:0.3985;stroke-linecap:butt;stroke-linejoin:miter;stroke-miterlimit:10;stroke-dasharray:none;stroke-opacity:1"
               d="m 93.36859,11.90572 c 0,1.15548 -0.93667,2.09216 -2.09216,2.09216 -1.15549,0 -2.09218,-0.93668 -2.09218,-2.09216 0,-1.15549 0.93669,-2.09218 2.09218,-2.09218 1.15549,0 2.09216,0.93669 2.09216,2.09218 z" /></g><g
             id="g342"><path
               id="path344"
               style="fill:#000000;fill-opacity:1;fill-rule:nonzero;stroke:#000000;stroke-width:0.3985;stroke-linecap:butt;stroke-linejoin:miter;stroke-miterlimit:10;stroke-dasharray:none;stroke-opacity:1"
               d="m 93.36859,-79.37071 c 0,1.15548 -0.93667,2.09218 -2.09216,2.09218 -1.15549,0 -2.09218,-0.9367 -2.09218,-2.09218 0,-1.15549 0.93669,-2.09217 2.09218,-2.09217 1.15549,0 2.09216,0.93668 2.09216,2.09217 z" /></g><g
             id="g346"><path
               id="path348"
               style="fill:#000000;fill-opacity:1;fill-rule:nonzero;stroke:#000000;stroke-width:0.3985;stroke-linecap:butt;stroke-linejoin:miter;stroke-miterlimit:10;stroke-dasharray:none;stroke-opacity:1"
               d="m 81.46288,-59.52802 c 0,1.15549 -0.93668,2.09217 -2.09217,2.09217 -1.15548,0 -2.09218,-0.93668 -2.09218,-2.09217 0,-1.15548 0.9367,-2.09218 2.09218,-2.09218 1.15549,0 2.09217,0.9367 2.09217,2.09218 z" /></g><g
             id="g350"><path
               id="path352"
               style="fill:#000000;fill-opacity:1;fill-rule:nonzero;stroke:#000000;stroke-width:0.3985;stroke-linecap:butt;stroke-linejoin:miter;stroke-miterlimit:10;stroke-dasharray:none;stroke-opacity:1"
               d="m 31.85619,-79.37071 c 0,1.15548 -0.93669,2.09218 -2.09219,2.09218 -1.15548,0 -2.09217,-0.9367 -2.09217,-2.09218 0,-1.15549 0.93669,-2.09217 2.09217,-2.09217 1.1555,0 2.09219,0.93668 2.09219,2.09217 z" /></g><g
             id="g354"><path
               id="path356"
               style="fill:#000000;fill-opacity:1;fill-rule:nonzero;stroke:#000000;stroke-width:0.3985;stroke-linecap:butt;stroke-linejoin:miter;stroke-miterlimit:10;stroke-dasharray:none;stroke-opacity:1"
               d="m 12.01349,-43.65382 c 0,1.15548 -0.93668,2.09216 -2.09216,2.09216 -1.15549,0 -2.09218,-0.93668 -2.09218,-2.09216 0,-1.15549 0.93669,-2.09218 2.09218,-2.09218 1.15548,0 2.09216,0.93669 2.09216,2.09218 z" /></g><g
             id="g358"><path
               id="path360"
               style="fill:#000000;fill-opacity:1;fill-rule:nonzero;stroke:#000000;stroke-width:0.3985;stroke-linecap:butt;stroke-linejoin:miter;stroke-miterlimit:10;stroke-dasharray:none;stroke-opacity:1"
               d="m 81.46288,0 c 0,1.15549 -0.93668,2.09216 -2.09217,2.09216 -1.15548,0 -2.09218,-0.93667 -2.09218,-2.09216 0,-1.15549 0.9367,-2.09216 2.09218,-2.09216 1.15549,0 2.09217,0.93667 2.09217,2.09216 z" /></g></g></g></g></g></svg>