<svg xmlns="http://www.w3.org/2000/svg" xmlns:xlink="http://www.w3.org/1999/xlink" version="1.1" width="386.9611pt" height="282.33055pt" viewBox="0 0 386.9611 282.33055">
<defs>
<path id="font_1_1" d="M.30299378 .3157959H.47299195C.61499026 .3157959 .7539978 .41973878 .7539978 .53167727 .7539978 .6086273 .6879883 .6826172 .5569916 .6826172H.23298645C.21398926 .6826172 .20298767 .6826172 .20298767 .66360476 .20298767 .6516113 .21199036 .6516113 .23199463 .6516113 .24499512 .6516113 .2630005 .65060427 .2749939 .6496124 .29100038 .6476135 .29699708 .64460757 .29699708 .6336212 .29699708 .6296234 .29599 .62661746 .29299928 .614624L.15899658 .07795715C.14898682 .038986207 .14698792 .0309906 .067993167 .0309906 .050994874 .0309906 .039993287 .0309906 .039993287 .011993408 .039993287 0 .051986696 0 .054992677 0 .08299255 0 .1539917 .0029907227 .18199158 .0029907227 .20298767 .0029907227 .22499085 .0019989014 .24598694 .0019989014 .2679901 .0019989014 .2899933 0 .31098939 0 .31799317 0 .33099366 0 .33099366 .019989014 .33099366 .0309906 .32199098 .0309906 .30299378 .0309906 .2659912 .0309906 .23799134 .0309906 .23799134 .048980714 .23799134 .054977418 .23999024 .05996704 .24099732 .065963748L.30299378 .3157959M.375 .6136322C.38398744 .64860537 .38598634 .6516113 .42900086 .6516113H.5249939C.60798647 .6516113 .6609955 .62461856 .6609955 .55566409 .6609955 .5166931 .6409912 .43074037 .60198977 .39476014 .5519867 .34977723 .49198915 .34179688 .44799806 .34179688H.30699159L.375 .6136322Z"/>
<path id="font_2_1" d="M.35598756 .5771179C.34799195 .5941162 .34199525 .598114 .33299256 .598114 .31999208 .598114 .31698609 .5911102 .31098939 .5771179L.06199646 .017547608C.055999757 .0045318605 .054992677 .002532959 .054992677-.0024719239 .054992677-.013473511 .06399536-.022460938 .07499695-.022460938 .08198547-.022460938 .08999634-.020462037 .09799194-.0014648438L.33299256 .529068 .56799319-.0014648438C.57699587-.022460938 .58699038-.022460938 .59098818-.022460938 .60198977-.022460938 .61099246-.013473511 .61099246-.0024719239 .61099246-.00047302247 .61099246 .0015411377 .6049957 .013549805L.35598756 .5771179Z"/>
<path id="font_1_2" d="M.43798829 .0055236818C.59298709 .0644989 .73999026 .24256897 .73999026 .43579103 .73999026 .5969696 .6339874 .7050781 .4850006 .7050781 .2689972 .7050781 .04899597 .47784425 .04899597 .24456787 .04899597 .07847595 .16099549-.022460938 .30499269-.022460938 .32998658-.022460938 .3639984-.018463135 .40299989-.007461548 .39898683-.06939697 .39898683-.071380618 .39898683-.084365848 .39898683-.11634827 .39898683-.19433594 .48199464-.19433594 .6009979-.19433594 .6489868-.011474609 .6489868-.00047302247 .6489868 .0065307619 .6419983 .009521484 .6380005 .009521484 .6299896 .009521484 .6279907 .0045318605 .6259918-.0014648438 .60198977-.072387699 .5439911-.097335819 .5089874-.097335819 .46299745-.097335819 .44799806-.070388797 .43798829 .0055236818M.24899292 .013519287C.17098999 .044509889 .13699341 .12245178 .13699341 .21252442 .13699341 .2816162 .16299439 .4237671 .23899842 .5319061 .31199647 .63401797 .4059906 .68006899 .47898866 .68006899 .57899478 .68006899 .6519928 .6019745 .6519928 .4678192 .6519928 .3677063 .6009979 .13345337 .43299867 .039505006 .42799378 .07447815 .41799928 .14746094 .34498597 .14746094 .2919922 .14746094 .24299622 .097473148 .24299622 .04550171 .24299622 .025512696 .24899292 .014526367 .24899292 .013519287M.31098939 .002532959C.29699708 .002532959 .2649994 .002532959 .2649994 .04550171 .2649994 .08547974 .30299378 .12545777 .34498597 .12545777 .3869934 .12545777 .4059906 .10147095 .4059906 .040512086 .4059906 .025512696 .40499879 .024520874 .394989 .020523072 .36898805 .009521484 .33898927 .002532959 .31098939 .002532959Z"/>
<path id="font_2_2" d="M.60398867 .55810549C.6100006 .57110598 .61099246 .5731201 .61099246 .578125 .61099246 .5891113 .60198977 .598114 .59098818 .598114 .58099368 .598114 .57499697 .5911102 .56799319 .57611086L.33299256 .046585084 .09799194 .5771179C.08999634 .5961151 .08198547 .598114 .07499695 .598114 .06399536 .598114 .054992677 .5891113 .054992677 .578125 .054992677 .57611086 .054992677 .57411196 .06098938 .5621033L.30999757-.0014648438C.31799317-.018463135 .32398988-.022460938 .33299256-.022460938 .34599305-.022460938 .34899903-.015472412 .35499574-.0014648438L.60398867 .55810549Z"/>
<path id="font_1_3" d="M.375 .6136017C.3809967 .63760378 .38398744 .6476135 .40299989 .65060427 .4119873 .6516113 .44400025 .6516113 .46398927 .6516113 .5349884 .6516113 .6459961 .6516113 .6459961 .5525818 .6459961 .51856997 .6299896 .44955445 .59098818 .41055299 .5649872 .38453675 .5119934 .35253907 .42199708 .35253907H.30999757L.375 .6136017M.5189972 .33953858C.6199951 .3615265 .7389984 .43154908 .7389984 .5325775 .7389984 .61860659 .6489868 .6826172 .5179901 .6826172H.23298645C.21299744 .6826172 .20399475 .6826172 .20399475 .6626129 .20399475 .6516113 .21299744 .6516113 .23199463 .6516113 .23399353 .6516113 .25299073 .6516113 .269989 .6496124 .28799439 .6476135 .29699708 .64660647 .29699708 .63360598 .29699708 .62960818 .29599 .6266022 .29299928 .6145935L.15899658 .07752991C.14898682 .038528444 .14698792 .030532837 .067993167 .030532837 .049987794 .030532837 .040985109 .030532837 .040985109 .010528564 .040985109-.00047302247 .052993776-.00047302247 .054992677-.00047302247 .08299255-.00047302247 .15299988 .002532959 .18099976 .002532959 .20899964 .002532959 .27999879-.00047302247 .30799867-.00047302247 .31599427-.00047302247 .32798768-.00047302247 .32798768 .01953125 .32798768 .030532837 .31900025 .030532837 .2999878 .030532837 .2630005 .030532837 .23498535 .030532837 .23498535 .048538209 .23498535 .054534913 .23699951 .059524537 .23799134 .0655365L.3039856 .3305359H.4229889C.5139923 .3305359 .5319977 .27453614 .5319977 .23953247 .5319977 .22453308 .5239868 .19352722 .5179901 .17053223 .5109863 .14253235 .5019989 .105529788 .5019989 .08552551 .5019989-.022460938 .621994-.022460938 .6349945-.022460938 .7200012-.022460938 .7549896 .07853699 .7549896 .0925293 .7549896 .104537967 .74398806 .104537967 .7429962 .104537967 .73399356 .104537967 .7319946 .09753418 .7299957 .090530399 .7049866 .016525269 .6619873-.00047302247 .6389923-.00047302247 .60598757-.00047302247 .598999 .021530152 .598999 .060531618 .598999 .091537479 .6049957 .14253235 .60899356 .17453003 .61099246 .1885376 .61299136 .20753479 .61299136 .2215271 .61299136 .2985382 .54599 .3295288 .5189972 .33953858Z"/>
<path id="font_3_1" d="M.31698609 .75C.30299378 .74497988 .2849884 .72499087 .272995 .7129822 .1499939 .5899811 .099990848 .4199829 .099990848 .25097657 .099990848 .06997681 .15899658-.123031619 .30599977-.24102783 .31098939-.24403382 .31698609-.24902344 .32299806-.24902344 .32899476-.24902344 .33198548-.24302674 .33198548-.23902893 .33198548-.22802735 .30499269-.20703125 .2939911-.19403076 .19099427-.07102966 .15899658 .0929718 .15899658 .24998474 .15899658 .41497804 .19198609 .5959778 .31599427 .71998599 .32199098 .72598269 .33198548 .73298647 .33198548 .74098208 .33198548 .7469635 .32699586 .75097659 .32099916 .75097659 .31999208 .7509918 .31799317 .75 .31698609 .75Z"/>
<path id="font_4_1" d="M.6439972 .6795349H.038986207V.63253787H.14698792V.04699707H.038986207V0C.07699585 .0029907227 .17799378 .0029907227 .22200012 .0029907227 .2709961 .0029907227 .37998963 .0029907227 .42399598 0V.04699707H.2889862V.31640626H.33898927C.43499757 .31640626 .44400025 .27349855 .44400025 .19966126H.4909973V.4804535H.44400025C.44400025 .40641786 .43598939 .36340333 .33898927 .36340333H.2889862V.63253787H.42900086C.58999636 .63253787 .61299136 .5554962 .6279907 .4384308H.6749878L.6439972 .6795349Z"/>
<path id="font_3_2" d="M.06199646 .7499695C.057998659 .7479706 .055999757 .7449646 .055999757 .7419739 .055999757 .7299652 .07899475 .7129669 .08999634 .7009735 .19699097 .57696536 .22898865 .40797425 .22898865 .24996948 .22898865 .088974 .19599915-.09402466 .07598877-.21403504 .068984989-.22102356 .055999757-.23103333 .055999757-.23902893 .055999757-.24403382 .06098938-.24902344 .066986087-.24902344H.067993167C.07998657-.24702454 .099990848-.22602844 .11199951-.21403504 .23799134-.088027957 .28799439 .081970218 .28799439 .25196839 .28799439 .43597413 .22799683 .6189728 .08198547 .7429657 .07699585 .7459717 .07199097 .75097659 .06599426 .75097659 .06498718 .75097659 .06399536 .75097659 .06199646 .7499695Z"/>
<path id="font_4_2" d="M.73599246 .6745453H.06298828L.041992189 .43370057H.08898926C.09799194 .54660037 .10798645 .62753298 .2519989 .62753298H.32899476V.04699707H.17599488V0C.22999573 .0029907227 .34098817 .0029907227 .3999939 .0029907227 .45899964 .0029907227 .56999209 .0029907227 .6239929 0V.04699707H.47099305V.62753298H.5469971C.6899872 .62753298 .69999697 .5476074 .70999148 .43370057H.7569885L.73599246 .6745453Z"/>
</defs>
<use data-text="P" xlink:href="#font_1_1" transform="matrix(27.673888,0,0,-27.673888,75.03055,29.972214)"/>
<use data-text="&#x2227;" xlink:href="#font_2_1" transform="matrix(27.673888,0,0,-27.673888,102.78747,29.972214)"/>
<use data-text="Q" xlink:href="#font_1_2" transform="matrix(27.673888,0,0,-27.673888,127.38956,29.972214)"/>
<use data-text="&#x2228;" xlink:href="#font_2_2" transform="matrix(27.673888,0,0,-27.673888,155.4232,29.972214)"/>
<use data-text="R" xlink:href="#font_1_3" transform="matrix(27.673888,0,0,-27.673888,180.05297,29.972214)"/>
<use data-text="(" xlink:href="#font_3_1" transform="matrix(27.673888,0,0,-27.673888,210.49425,29.972214)"/>
<use data-text="F" xlink:href="#font_4_1" transform="matrix(27.673888,0,0,-27.673888,221.25939,29.972214)"/>
<use data-text=")" xlink:href="#font_3_2" transform="matrix(27.673888,0,0,-27.673888,241.29528,29.972214)"/>
<use data-text="P" xlink:href="#font_1_1" transform="matrix(27.673888,0,0,-27.673888,9.22222,148.08333)"/>
<use data-text="(" xlink:href="#font_3_1" transform="matrix(27.673888,0,0,-27.673888,40.050935,148.08333)"/>
<use data-text="F" xlink:href="#font_4_1" transform="matrix(27.673888,0,0,-27.673888,50.81608,148.08333)"/>
<use data-text=")" xlink:href="#font_3_2" transform="matrix(27.673888,0,0,-27.673888,70.851978,148.08333)"/>
<path transform="matrix(2.7777777,0,0,-2.7777777,163.51944,23.055563)" stroke-width=".3985" stroke-linecap="butt" stroke-miterlimit="10" stroke-linejoin="miter" fill="none" stroke="#000000" d="M-8.49916-8.49916-34.02415-34.02104"/>
<use data-text="Q" xlink:href="#font_1_2" transform="matrix(27.673888,0,0,-27.673888,218.26387,148.08333)"/>
<use data-text="&#x2228;" xlink:href="#font_2_2" transform="matrix(27.673888,0,0,-27.673888,246.29753,148.08333)"/>
<use data-text="R" xlink:href="#font_1_3" transform="matrix(27.673888,0,0,-27.673888,270.89964,148.08333)"/>
<use data-text="(" xlink:href="#font_3_1" transform="matrix(27.673888,0,0,-27.673888,301.3409,148.08333)"/>
<use data-text="T" xlink:href="#font_4_2" transform="matrix(27.673888,0,0,-27.673888,312.10606,148.08333)"/>
<use data-text=")" xlink:href="#font_3_2" transform="matrix(27.673888,0,0,-27.673888,334.24516,148.08333)"/>
<path transform="matrix(2.7777777,0,0,-2.7777777,163.51944,23.055563)" stroke-width=".3985" stroke-linecap="butt" stroke-miterlimit="10" stroke-linejoin="miter" fill="none" stroke="#000000" d="M8.49916-8.49916 34.0242-34.02104"/>
<use data-text="Q" xlink:href="#font_1_2" transform="matrix(27.673888,0,0,-27.673888,185.1972,266.19166)"/>
<use data-text="(" xlink:href="#font_3_1" transform="matrix(27.673888,0,0,-27.673888,216.30266,266.19166)"/>
<use data-text="T" xlink:href="#font_4_2" transform="matrix(27.673888,0,0,-27.673888,227.0678,266.19166)"/>
<use data-text=")" xlink:href="#font_3_2" transform="matrix(27.673888,0,0,-27.673888,249.2069,266.19166)"/>
<path transform="matrix(2.7777777,0,0,-2.7777777,163.51944,23.055563)" stroke-width=".3985" stroke-linecap="butt" stroke-miterlimit="10" stroke-linejoin="miter" fill="none" stroke="#000000" d="M38.27068-51.01938 25.50818-76.54128"/>
<use data-text="R" xlink:href="#font_1_3" transform="matrix(27.673888,0,0,-27.673888,303.63334,266.19166)"/>
<use data-text="(" xlink:href="#font_3_1" transform="matrix(27.673888,0,0,-27.673888,334.07463,266.19166)"/>
<use data-text="T" xlink:href="#font_4_2" transform="matrix(27.673888,0,0,-27.673888,344.83976,266.19166)"/>
<use data-text=")" xlink:href="#font_3_2" transform="matrix(27.673888,0,0,-27.673888,366.97886,266.19166)"/>
<path transform="matrix(2.7777777,0,0,-2.7777777,163.51944,23.055563)" stroke-width=".3985" stroke-linecap="butt" stroke-miterlimit="10" stroke-linejoin="miter" fill="none" stroke="#000000" d="M46.76982-51.01938 59.53235-76.54128"/>
</svg>
