<svg xmlns="http://www.w3.org/2000/svg" xmlns:xlink="http://www.w3.org/1999/xlink" version="1.1" width="158.29721pt" height="280.64723pt" viewBox="0 0 158.29721 280.64723">
<defs>
<path id="font_1_1" d="M.61099246 .32040406C.61099246 .35339356 .60798647 .35639955 .57598879 .35639955H.08999634C.07299805 .35639955 .054992677 .35639955 .054992677 .33639527 .054992677 .31640626 .07299805 .31640626 .08999634 .31640626H.57099917V.12489319C.57099917 .1068573 .57099917 .08886719 .59098818 .08886719 .61099246 .08886719 .61099246 .1068573 .61099246 .12489319V.32040406Z"/>
<path id="font_2_1" d="M.33099366-.2400055C.33099366-.23701477 .33099366-.23500061 .31399537-.21800232 .18899536-.0920105 .15699768 .09700012 .15699768 .25 .15699768 .42399598 .19499207 .59799197 .31799317 .72299197 .33099366 .73498538 .33099366 .7369995 .33099366 .73999026 .33099366 .746994 .32699586 .75 .32099916 .75 .31098939 .75 .22099304 .6819916 .1619873 .5549927 .11099243 .44499208 .09899902 .33399964 .09899902 .25 .09899902 .17199707 .10998535 .050994874 .16499329-.06201172 .22499085-.18501282 .31098939-.25 .32099916-.25 .32699586-.25 .33099366-.24700928 .33099366-.2400055Z"/>
<path id="font_3_1" d="M.30299378 .3157959H.47299195C.61499026 .3157959 .7539978 .41973878 .7539978 .53167727 .7539978 .6086273 .6879883 .6826172 .5569916 .6826172H.23298645C.21398926 .6826172 .20298767 .6826172 .20298767 .66360476 .20298767 .6516113 .21199036 .6516113 .23199463 .6516113 .24499512 .6516113 .2630005 .65060427 .2749939 .6496124 .29100038 .6476135 .29699708 .64460757 .29699708 .6336212 .29699708 .6296234 .29599 .62661746 .29299928 .614624L.15899658 .07795715C.14898682 .038986207 .14698792 .0309906 .067993167 .0309906 .050994874 .0309906 .039993287 .0309906 .039993287 .011993408 .039993287 0 .051986696 0 .054992677 0 .08299255 0 .1539917 .0029907227 .18199158 .0029907227 .20298767 .0029907227 .22499085 .0019989014 .24598694 .0019989014 .2679901 .0019989014 .2899933 0 .31098939 0 .31799317 0 .33099366 0 .33099366 .019989014 .33099366 .0309906 .32199098 .0309906 .30299378 .0309906 .2659912 .0309906 .23799134 .0309906 .23799134 .048980714 .23799134 .054977418 .23999024 .05996704 .24099732 .065963748L.30299378 .3157959M.375 .6136322C.38398744 .64860537 .38598634 .6516113 .42900086 .6516113H.5249939C.60798647 .6516113 .6609955 .62461856 .6609955 .55566409 .6609955 .5166931 .6409912 .43074037 .60198977 .39476014 .5519867 .34977723 .49198915 .34179688 .44799806 .34179688H.30699159L.375 .6136322Z"/>
<path id="font_1_2" d="M.35598756 .5771179C.34799195 .5941162 .34199525 .598114 .33299256 .598114 .31999208 .598114 .31698609 .5911102 .31098939 .5771179L.06199646 .017547608C.055999757 .0045318605 .054992677 .002532959 .054992677-.0024719239 .054992677-.013473511 .06399536-.022460938 .07499695-.022460938 .08198547-.022460938 .08999634-.020462037 .09799194-.0014648438L.33299256 .529068 .56799319-.0014648438C.57699587-.022460938 .58699038-.022460938 .59098818-.022460938 .60198977-.022460938 .61099246-.013473511 .61099246-.0024719239 .61099246-.00047302247 .61099246 .0015411377 .6049957 .013549805L.35598756 .5771179Z"/>
<path id="font_3_2" d="M.43798829 .0055236818C.59298709 .0644989 .73999026 .24256897 .73999026 .43579103 .73999026 .5969696 .6339874 .7050781 .4850006 .7050781 .2689972 .7050781 .04899597 .47784425 .04899597 .24456787 .04899597 .07847595 .16099549-.022460938 .30499269-.022460938 .32998658-.022460938 .3639984-.018463135 .40299989-.007461548 .39898683-.06939697 .39898683-.071380618 .39898683-.084365848 .39898683-.11634827 .39898683-.19433594 .48199464-.19433594 .6009979-.19433594 .6489868-.011474609 .6489868-.00047302247 .6489868 .0065307619 .6419983 .009521484 .6380005 .009521484 .6299896 .009521484 .6279907 .0045318605 .6259918-.0014648438 .60198977-.072387699 .5439911-.097335819 .5089874-.097335819 .46299745-.097335819 .44799806-.070388797 .43798829 .0055236818M.24899292 .013519287C.17098999 .044509889 .13699341 .12245178 .13699341 .21252442 .13699341 .2816162 .16299439 .4237671 .23899842 .5319061 .31199647 .63401797 .4059906 .68006899 .47898866 .68006899 .57899478 .68006899 .6519928 .6019745 .6519928 .4678192 .6519928 .3677063 .6009979 .13345337 .43299867 .039505006 .42799378 .07447815 .41799928 .14746094 .34498597 .14746094 .2919922 .14746094 .24299622 .097473148 .24299622 .04550171 .24299622 .025512696 .24899292 .014526367 .24899292 .013519287M.31098939 .002532959C.29699708 .002532959 .2649994 .002532959 .2649994 .04550171 .2649994 .08547974 .30299378 .12545777 .34498597 .12545777 .3869934 .12545777 .4059906 .10147095 .4059906 .040512086 .4059906 .025512696 .40499879 .024520874 .394989 .020523072 .36898805 .009521484 .33898927 .002532959 .31098939 .002532959Z"/>
<path id="font_2_2" d="M.2889862 .25C.2889862 .32798768 .27799989 .44898988 .22299195 .56199648 .16299439 .68499758 .07699585 .75 .066986087 .75 .06098938 .75 .056991579 .74598696 .056991579 .73999026 .056991579 .7369995 .056991579 .73498538 .07598877 .71699526 .17399597 .6179962 .23098755 .45899964 .23098755 .25 .23098755 .07899475 .19400025-.09700012 .069992069-.2230072 .056991579-.23500061 .056991579-.23701477 .056991579-.2400055 .056991579-.2460022 .06098938-.25 .066986087-.25 .07699585-.25 .16699219-.18200684 .22599793-.055007936 .2769928 .054992677 .2889862 .16600037 .2889862 .25Z"/>
</defs>
<use data-text="&#x00ac;" xlink:href="#font_1_1" transform="matrix(27.673888,0,0,-27.673888,21.974997,29.977753)"/>
<use data-text="(" xlink:href="#font_2_1" transform="matrix(27.673888,0,0,-27.673888,40.433485,29.977753)"/>
<use data-text="P" xlink:href="#font_3_1" transform="matrix(27.673888,0,0,-27.673888,51.198629,29.977753)"/>
<use data-text="&#x2227;" xlink:href="#font_1_2" transform="matrix(27.673888,0,0,-27.673888,78.955539,29.977753)"/>
<use data-text="Q" xlink:href="#font_3_2" transform="matrix(27.673888,0,0,-27.673888,103.557628,29.977753)"/>
<use data-text=")" xlink:href="#font_2_2" transform="matrix(27.673888,0,0,-27.673888,125.44767,29.977753)"/>
<use data-text="(" xlink:href="#font_2_1" transform="matrix(27.673888,0,0,-27.673888,31.199999,148.08889)"/>
<use data-text="P" xlink:href="#font_3_1" transform="matrix(27.673888,0,0,-27.673888,41.965147,148.08889)"/>
<use data-text="&#x2227;" xlink:href="#font_1_2" transform="matrix(27.673888,0,0,-27.673888,69.72205,148.08889)"/>
<use data-text="Q" xlink:href="#font_3_2" transform="matrix(27.673888,0,0,-27.673888,94.32414,148.08889)"/>
<use data-text=")" xlink:href="#font_2_2" transform="matrix(27.673888,0,0,-27.673888,116.21419,148.08889)"/>
<path transform="matrix(2.7777777,0,0,-2.7777777,79.08055,23.05832)" stroke-width=".3985" stroke-linecap="butt" stroke-miterlimit="10" stroke-linejoin="miter" fill="none" stroke="#000000" d="M0-8.50038V-34.01984"/>
<use data-text="P" xlink:href="#font_3_1" transform="matrix(27.673888,0,0,-27.673888,9.22222,268.7361)"/>
<path transform="matrix(2.7777777,0,0,-2.7777777,79.08055,23.05832)" stroke-width=".3985" stroke-linecap="butt" stroke-miterlimit="10" stroke-linejoin="miter" fill="none" stroke="#000000" d="M-4.24991-51.0206-17.79987-78.11751"/>
<use data-text="Q" xlink:href="#font_3_2" transform="matrix(27.673888,0,0,-27.673888,127.19722,266.0444)"/>
<path transform="matrix(2.7777777,0,0,-2.7777777,79.08055,23.05832)" stroke-width=".3985" stroke-linecap="butt" stroke-miterlimit="10" stroke-linejoin="miter" fill="none" stroke="#000000" d="M4.24942-51.0206 17.31584-77.14891"/>
</svg>
